  0
SECTION
  2
HEADER
  9
$ACADVER
  1
AC1015
  9
$ACADMAINTVER
 70
     6
  9
$DWGCODEPAGE
  3
ANSI_1252
  9
$INSBASE
 10
0.0
 20
0.0
 30
0.0
  9
$EXTMIN
 10
0.0
 20
0.0
 30
0.0
  9
$EXTMAX
 10
2846.5
 20
19.0
 30
0.0
  9
$LIMMIN
 10
0.0
 20
0.0
  9
$LIMMAX
 10
420.0
 20
297.0
  9
$ORTHOMODE
 70
     0
  9
$REGENMODE
 70
     1
  9
$FILLMODE
 70
     1
  9
$QTEXTMODE
 70
     0
  9
$MIRRTEXT
 70
     1
  9
$LTSCALE
 40
1.0
  9
$ATTMODE
 70
     1
  9
$TEXTSIZE
 40
3.175
  9
$TRACEWID
 40
1.0
  9
$TEXTSTYLE
  7
Standard
  9
$CLAYER
  8
0
  9
$CELTYPE
  6
ByLayer
  9
$CECOLOR
 62
   256
  9
$CELTSCALE
 40
1.0
  9
$DISPSILH
 70
     0
  9
$DIMSCALE
 40
1.0
  9
$DIMASZ
 40
3.302
  9
$DIMEXO
 40
0.0
  9
$DIMDLI
 40
3.75
  9
$DIMRND
 40
0.0
  9
$DIMDLE
 40
0.0
  9
$DIMEXE
 40
3.175
  9
$DIMTP
 40
0.0
  9
$DIMTM
 40
0.0
  9
$DIMTXT
 40
3.175
  9
$DIMCEN
 40
2.5
  9
$DIMTSZ
 40
0.0
  9
$DIMTOL
 70
     0
  9
$DIMLIM
 70
     0
  9
$DIMTIH
 70
     1
  9
$DIMTOH
 70
     1
  9
$DIMSE1
 70
     0
  9
$DIMSE2
 70
     0
  9
$DIMTAD
 70
     0
  9
$DIMZIN
 70
     1
  9
$DIMBLK
  1

  9
$DIMASO
 70
     1
  9
$DIMSHO
 70
     1
  9
$DIMPOST
  1

  9
$DIMAPOST
  1

  9
$DIMALT
 70
     0
  9
$DIMALTD
 70
     3
  9
$DIMALTF
 40
0.0393700787
  9
$DIMLFAC
 40
1.0
  9
$DIMTOFL
 70
     1
  9
$DIMTVP
 40
0.0
  9
$DIMTIX
 70
     0
  9
$DIMSOXD
 70
     0
  9
$DIMSAH
 70
     0
  9
$DIMBLK1
  1

  9
$DIMBLK2
  1

  9
$DIMSTYLE
  2
ISO-25
  9
$DIMCLRD
 70
     0
  9
$DIMCLRE
 70
     0
  9
$DIMCLRT
 70
     0
  9
$DIMTFAC
 40
1.0
  9
$DIMGAP
 40
1.524
  9
$DIMJUST
 70
     0
  9
$DIMSD1
 70
     0
  9
$DIMSD2
 70
     0
  9
$DIMTOLJ
 70
     0
  9
$DIMTZIN
 70
     1
  9
$DIMALTZ
 70
     0
  9
$DIMALTTZ
 70
     0
  9
$DIMUPT
 70
     0
  9
$DIMDEC
 70
     2
  9
$DIMTDEC
 70
     2
  9
$DIMALTU
 70
     2
  9
$DIMALTTD
 70
     3
  9
$DIMTXSTY
  7
Standard
  9
$DIMAUNIT
 70
     0
  9
$DIMADEC
 70
     2
  9
$DIMALTRND
 40
0.0
  9
$DIMAZIN
 70
     0
  9
$DIMDSEP
 70
    44
  9
$DIMATFIT
 70
     3
  9
$DIMFRAC
 70
     0
  9
$DIMLDRBLK
  1

  9
$DIMLUNIT
 70
     2
  9
$DIMLWD
 70
    -2
  9
$DIMLWE
 70
    -2
  9
$DIMTMOVE
 70
     0
  9
$LUNITS
 70
     2
  9
$LUPREC
 70
     2
  9
$SKETCHINC
 40
1.0
  9
$FILLETRAD
 40
10.0
  9
$AUNITS
 70
     0
  9
$AUPREC
 70
     2
  9
$MENU
  1
.
  9
$ELEVATION
 40
0.0
  9
$PELEVATION
 40
0.0
  9
$THICKNESS
 40
0.0
  9
$LIMCHECK
 70
     0
  9
$CHAMFERA
 40
0.0
  9
$CHAMFERB
 40
0.0
  9
$CHAMFERC
 40
0.0
  9
$CHAMFERD
 40
0.0
  9
$SKPOLY
 70
     0
  9
$TDCREATE
 40
2460869.400730243
  9
$TDUCREATE
 40
2460868.984063576
  9
$TDUPDATE
 40
2460869.400762396
  9
$TDUUPDATE
 40
2460868.984095729
  9
$TDINDWG
 40
0.0000000116
  9
$TDUSRTIMER
 40
0.0000000116
  9
$USRTIMER
 70
     1
  9
$ANGBASE
 50
0.0
  9
$ANGDIR
 70
     0
  9
$PDMODE
 70
     0
  9
$PDSIZE
 40
-1.0
  9
$PLINEWID
 40
0.0
  9
$SPLFRAME
 70
     0
  9
$SPLINETYPE
 70
     6
  9
$SPLINESEGS
 70
     8
  9
$HANDSEED
  5
3F7
  9
$SURFTAB1
 70
     6
  9
$SURFTAB2
 70
     6
  9
$SURFTYPE
 70
     6
  9
$SURFU
 70
     6
  9
$SURFV
 70
     6
  9
$UCSBASE
  2

  9
$UCSNAME
  2

  9
$UCSORG
 10
0.0
 20
0.0
 30
0.0
  9
$UCSXDIR
 10
1.0
 20
0.0
 30
0.0
  9
$UCSYDIR
 10
0.0
 20
1.0
 30
0.0
  9
$UCSORTHOREF
  2

  9
$UCSORTHOVIEW
 70
     0
  9
$UCSORGTOP
 10
0.0
 20
0.0
 30
0.0
  9
$UCSORGBOTTOM
 10
0.0
 20
0.0
 30
0.0
  9
$UCSORGLEFT
 10
0.0
 20
0.0
 30
0.0
  9
$UCSORGRIGHT
 10
0.0
 20
0.0
 30
0.0
  9
$UCSORGFRONT
 10
0.0
 20
0.0
 30
0.0
  9
$UCSORGBACK
 10
0.0
 20
0.0
 30
0.0
  9
$PUCSBASE
  2

  9
$PUCSNAME
  2

  9
$PUCSORG
 10
0.0
 20
0.0
 30
0.0
  9
$PUCSXDIR
 10
1.0
 20
0.0
 30
0.0
  9
$PUCSYDIR
 10
0.0
 20
1.0
 30
0.0
  9
$PUCSORTHOREF
  2

  9
$PUCSORTHOVIEW
 70
     0
  9
$PUCSORGTOP
 10
0.0
 20
0.0
 30
0.0
  9
$PUCSORGBOTTOM
 10
0.0
 20
0.0
 30
0.0
  9
$PUCSORGLEFT
 10
0.0
 20
0.0
 30
0.0
  9
$PUCSORGRIGHT
 10
0.0
 20
0.0
 30
0.0
  9
$PUCSORGFRONT
 10
0.0
 20
0.0
 30
0.0
  9
$PUCSORGBACK
 10
0.0
 20
0.0
 30
0.0
  9
$USERI1
 70
     0
  9
$USERI2
 70
     0
  9
$USERI3
 70
     0
  9
$USERI4
 70
     0
  9
$USERI5
 70
     0
  9
$USERR1
 40
0.0
  9
$USERR2
 40
0.0
  9
$USERR3
 40
0.0
  9
$USERR4
 40
0.0
  9
$USERR5
 40
0.0
  9
$WORLDVIEW
 70
     1
  9
$SHADEDGE
 70
     3
  9
$SHADEDIF
 70
    70
  9
$TILEMODE
 70
     1
  9
$MAXACTVP
 70
    64
  9
$PINSBASE
 10
0.0
 20
0.0
 30
0.0
  9
$PLIMCHECK
 70
     0
  9
$PEXTMIN
 10
1.0000000000E+20
 20
1.0000000000E+20
 30
1.0000000000E+20
  9
$PEXTMAX
 10
-1.0000000000E+20
 20
-1.0000000000E+20
 30
-1.0000000000E+20
  9
$PLIMMIN
 10
0.0
 20
0.0
  9
$PLIMMAX
 10
420.0
 20
297.0
  9
$UNITMODE
 70
     0
  9
$VISRETAIN
 70
     1
  9
$PLINEGEN
 70
     0
  9
$PSLTSCALE
 70
     1
  9
$TREEDEPTH
 70
  3020
  9
$CMLSTYLE
  2
Standard
  9
$CMLJUST
 70
     0
  9
$CMLSCALE
 40
20.0
  9
$PROXYGRAPHICS
 70
     1
  9
$MEASUREMENT
 70
     1
  9
$CELWEIGHT
370
    -1
  9
$ENDCAPS
280
     0
  9
$JOINSTYLE
280
     0
  9
$LWDISPLAY
290
     1
  9
$INSUNITS
 70
     4
  9
$HYPERLINKBASE
  1

  9
$STYLESHEET
  1

  9
$XEDIT
290
     1
  9
$CEPSNTYPE
380
     0
  9
$PSTYLEMODE
290
     1
  9
$FINGERPRINTGUID
  2
{6e1d3a6a-5875-4eb2-b64b-75cd93fb580f}
  9
$VERSIONGUID
  2
{FAEB1C32-E019-11D5-929B-00C0DF256EC4}
  9
$EXTNAMES
290
     1
  9
$PSVPSCALE
 40
0.0
  9
$OLESTARTUP
290
     0
  0
ENDSEC
  0
SECTION
  2
CLASSES
  0
CLASS
  1
ACDBDICTIONARYWDFLT
  2
AcDbDictionaryWithDefault
  3
ObjectDBX Classes
 90
        0
280
     0
281
     0
  0
CLASS
  1
VISUALSTYLE
  2
AcDbVisualStyle
  3
ObjectDBX Classes
 90
     4095
280
     0
281
     0
  0
CLASS
  1
MATERIAL
  2
AcDbMaterial
  3
ObjectDBX Classes
 90
     1153
280
     0
281
     0
  0
CLASS
  1
SCALE
  2
AcDbScale
  3
ObjectDBX Classes
 90
     1153
280
     0
281
     0
  0
CLASS
  1
TABLESTYLE
  2
AcDbTableStyle
  3
ObjectDBX Classes
 90
     4095
280
     0
281
     0
  0
CLASS
  1
MLEADERSTYLE
  2
AcDbMLeaderStyle
  3
ACDB_MLEADERSTYLE_CLASS
 90
     4095
280
     0
281
     0
  0
CLASS
  1
SUN
  2
AcDbSun
  3
SCENEOE
 90
     1153
280
     0
281
     0
  0
CLASS
  1
ACDBPLACEHOLDER
  2
AcDbPlaceHolder
  3
ObjectDBX Classes
 90
        0
280
     0
281
     0
  0
CLASS
  1
LAYOUT
  2
AcDbLayout
  3
ObjectDBX Classes
 90
        0
280
     0
281
     0
  0
ENDSEC
  0
SECTION
  2
TABLES
  0
TABLE
  2
VPORT
  5
8
330
0
100
AcDbSymbolTable
 70
     1
  0
VPORT
  5
29
330
8
100
AcDbSymbolTableRecord
100
AcDbViewportTableRecord
  2
*Active
 70
     0
 10
0.0
 20
0.0
 11
1.0
 21
1.0
 12
1423.25
 22
9.5
 13
0.0
 23
0.0
 14
10.0
 24
10.0
 15
10.0
 25
10.0
 16
0.0
 26
0.0
 36
1.0
 17
0.0
 27
0.0
 37
0.0
 40
19.38
 41
149.8157894737
 42
50.0
 43
0.0
 44
0.0
 50
0.0
 51
0.0
 71
     0
 72
   100
 73
     1
 74
     3
 75
     0
 76
     0
 77
     0
 78
     0
281
     0
 65
     1
110
0.0
120
0.0
130
0.0
111
1.0
121
0.0
131
0.0
112
0.0
122
1.0
132
0.0
 79
     0
146
0.0
  0
ENDTAB
  0
TABLE
  2
LTYPE
  5
5
330
0
100
AcDbSymbolTable
 70
     6
  0
LTYPE
  5
14
330
5
100
AcDbSymbolTableRecord
100
AcDbLinetypeTableRecord
  2
ByBlock
 70
     0
  3

 72
    65
 73
     0
 40
0.0
  0
LTYPE
  5
15
330
5
100
AcDbSymbolTableRecord
100
AcDbLinetypeTableRecord
  2
ByLayer
 70
     0
  3

 72
    65
 73
     0
 40
0.0
  0
LTYPE
  5
16
330
5
100
AcDbSymbolTableRecord
100
AcDbLinetypeTableRecord
  2
Continuous
 70
     0
  3
Solid line
 72
    65
 73
     0
 40
0.0
  0
LTYPE
  5
6E
330
5
100
AcDbSymbolTableRecord
100
AcDbLinetypeTableRecord
  2
HIDDEN
 70
     0
  3
Hidden __ __ __ __ __ __ __ __ __ __ __ __ __ __
 72
    65
 73
     2
 40
1.905
 49
1.27
 74
     0
 49
-0.635
 74
     0
  0
LTYPE
  5
6F
330
5
100
AcDbSymbolTableRecord
100
AcDbLinetypeTableRecord
  2
PHANTOM
 70
     0
  3
Phantom ______  __  __  ______  __  __  ______
 72
    65
 73
     6
 40
12.7
 49
6.35
 74
     0
 49
-1.27
 74
     0
 49
1.27
 74
     0
 49
-1.27
 74
     0
 49
1.27
 74
     0
 49
-1.27
 74
     0
  0
LTYPE
  5
70
330
5
100
AcDbSymbolTableRecord
100
AcDbLinetypeTableRecord
  2
CENTER
 70
     0
  3
Center ____ _ ____ _ ____ _ ____ _ ____ _ ____
 72
    65
 73
     4
 40
10.16
 49
6.35
 74
     0
 49
-1.27
 74
     0
 49
1.27
 74
     0
 49
-1.27
 74
     0
  0
LTYPE
  5
71
330
5
100
AcDbSymbolTableRecord
100
AcDbLinetypeTableRecord
  2
CENTERX2
 70
     0
  3
Center (2x) ________  __  ________  __  _____
 72
    65
 73
     4
 40
20.32
 49
12.7
 74
     0
 49
-2.54
 74
     0
 49
2.54
 74
     0
 49
-2.54
 74
     0
  0
LTYPE
  5
72
330
5
100
AcDbSymbolTableRecord
100
AcDbLinetypeTableRecord
  2
DOT2
 70
     0
  3
Dot (.5x) ........................................
 72
    65
 73
     2
 40
0.635
 49
0.0
 74
     0
 49
-0.635
 74
     0
  0
ENDTAB
  0
TABLE
  2
LAYER
  5
2
330
0
100
AcDbSymbolTable
 70
     1
  0
LAYER
  5
10
330
2
100
AcDbSymbolTableRecord
100
AcDbLayerTableRecord
  2
0
 70
     0
 62
     7
  6
Continuous
370
    -3
390
F
  0
ENDTAB
  0
TABLE
  2
STYLE
  5
3
330
0
100
AcDbSymbolTable
 70
     1
  0
STYLE
  5
11
330
3
100
AcDbSymbolTableRecord
100
AcDbTextStyleTableRecord
  2
Standard
 70
     0
 40
0.0
 41
1.0
 50
0.0
 71
     0
 42
3.175
  3
txt
  4

  0
ENDTAB
  0
TABLE
  2
VIEW
  5
6
330
0
100
AcDbSymbolTable
 70
     0
  0
ENDTAB
  0
TABLE
  2
UCS
  5
7
330
0
100
AcDbSymbolTable
 70
     0
  0
ENDTAB
  0
TABLE
  2
APPID
  5
9
330
0
100
AcDbSymbolTable
 70
     1
  0
APPID
  5
12
330
9
100
AcDbSymbolTableRecord
100
AcDbRegAppTableRecord
  2
ACAD
 70
     0
  0
ENDTAB
  0
TABLE
  2
DIMSTYLE
  5
A
330
0
100
AcDbSymbolTable
 70
     1
100
AcDbDimStyleTable
  0
DIMSTYLE
105
27
330
A
100
AcDbSymbolTableRecord
100
AcDbDimStyleTableRecord
  2
ISO-25
 70
     0
 41
2.5
 42
0.625
 43
3.75
 44
1.25
 73
     0
 74
     0
 77
     1
 78
     8
140
2.5
141
2.5
143
0.0393700787
147
0.625
171
     3
172
     1
178
     0
271
     2
272
     2
274
     3
278
    44
283
     0
284
     8
340
11
  0
ENDTAB
  0
TABLE
  2
BLOCK_RECORD
  5
1
330
0
100
AcDbSymbolTable
 70
     1
  0
BLOCK_RECORD
  5
1F
330
1
100
AcDbSymbolTableRecord
100
AcDbBlockTableRecord
  2
*Model_Space
340
22
  0
BLOCK_RECORD
  5
1B
330
1
100
AcDbSymbolTableRecord
100
AcDbBlockTableRecord
  2
*Paper_Space
340
1E
  0
BLOCK_RECORD
  5
23
330
1
100
AcDbSymbolTableRecord
100
AcDbBlockTableRecord
  2
*Paper_Space0
340
26
  0
ENDTAB
  0
ENDSEC
  0
SECTION
  2
BLOCKS
  0
BLOCK
  5
20
330
1F
100
AcDbEntity
  8
0
100
AcDbBlockBegin
  2
*Model_Space
 70
     0
 10
0.0
 20
0.0
 30
0.0
  3
*Model_Space
  1

  0
ENDBLK
  5
21
330
1F
100
AcDbEntity
  8
0
100
AcDbBlockEnd
  0
BLOCK
  5
1C
330
1B
100
AcDbEntity
 67
     1
  8
0
100
AcDbBlockBegin
  2
*Paper_Space
 70
     0
 10
0.0
 20
0.0
 30
0.0
  3
*Paper_Space
  1

  0
ENDBLK
  5
1D
330
1B
100
AcDbEntity
 67
     1
  8
0
100
AcDbBlockEnd
  0
BLOCK
  5
24
330
23
100
AcDbEntity
  8
0
100
AcDbBlockBegin
  2
*Paper_Space0
 70
     0
 10
0.0
 20
0.0
 30
0.0
  3
*Paper_Space0
  1

  0
ENDBLK
  5
25
330
23
100
AcDbEntity
  8
0
100
AcDbBlockEnd
  0
ENDSEC
  0
SECTION
  2
ENTITIES
  0
ARC
  5
73
330
1F
100
AcDbEntity
  8
0
  6
Continuous
 62
     7
100
AcDbCircle
 10
12.5
 20
4.3392857143
 30
0.0
 40
14.66071428571428
100
AcDbArc
 50
31.5023473269
 51
148.4976526731
  0
ARC
  5
74
330
1F
100
AcDbEntity
  8
0
  6
Continuous
 62
     7
100
AcDbCircle
 10
41.0
 20
4.3392857143
 30
0.0
 40
14.66071428571428
100
AcDbArc
 50
31.5023473269
 51
148.4976526731
  0
ARC
  5
75
330
1F
100
AcDbEntity
  8
0
  6
Continuous
 62
     7
100
AcDbCircle
 10
69.5
 20
4.3392857143
 30
0.0
 40
14.66071428571429
100
AcDbArc
 50
31.5023473269
 51
148.4976526731
  0
ARC
  5
76
330
1F
100
AcDbEntity
  8
0
  6
Continuous
 62
     7
100
AcDbCircle
 10
98.0
 20
4.3392857143
 30
0.0
 40
14.6607142857143
100
AcDbArc
 50
31.5023473269
 51
148.4976526731
  0
ARC
  5
77
330
1F
100
AcDbEntity
  8
0
  6
Continuous
 62
     7
100
AcDbCircle
 10
126.5
 20
4.3392857143
 30
0.0
 40
14.66071428571428
100
AcDbArc
 50
31.5023473269
 51
148.4976526731
  0
ARC
  5
78
330
1F
100
AcDbEntity
  8
0
  6
Continuous
 62
     7
100
AcDbCircle
 10
155.0
 20
4.3392857143
 30
0.0
 40
14.66071428571428
100
AcDbArc
 50
31.5023473269
 51
148.4976526731
  0
ARC
  5
79
330
1F
100
AcDbEntity
  8
0
  6
Continuous
 62
     7
100
AcDbCircle
 10
183.5
 20
4.3392857143
 30
0.0
 40
14.66071428571431
100
AcDbArc
 50
31.5023473269
 51
148.4976526731
  0
ARC
  5
7A
330
1F
100
AcDbEntity
  8
0
  6
Continuous
 62
     7
100
AcDbCircle
 10
212.0
 20
4.3392857143
 30
0.0
 40
14.66071428571431
100
AcDbArc
 50
31.5023473269
 51
148.4976526731
  0
ARC
  5
7B
330
1F
100
AcDbEntity
  8
0
  6
Continuous
 62
     7
100
AcDbCircle
 10
240.5
 20
4.3392857143
 30
0.0
 40
14.66071428571431
100
AcDbArc
 50
31.5023473269
 51
148.4976526731
  0
ARC
  5
7C
330
1F
100
AcDbEntity
  8
0
  6
Continuous
 62
     7
100
AcDbCircle
 10
269.0
 20
4.3392857143
 30
0.0
 40
14.66071428571428
100
AcDbArc
 50
31.5023473269
 51
148.4976526731
  0
ARC
  5
7D
330
1F
100
AcDbEntity
  8
0
  6
Continuous
 62
     7
100
AcDbCircle
 10
297.5
 20
4.3392857143
 30
0.0
 40
14.66071428571428
100
AcDbArc
 50
31.5023473269
 51
148.4976526731
  0
ARC
  5
7E
330
1F
100
AcDbEntity
  8
0
  6
Continuous
 62
     7
100
AcDbCircle
 10
326.0
 20
4.3392857143
 30
0.0
 40
14.66071428571428
100
AcDbArc
 50
31.5023473269
 51
148.4976526731
  0
ARC
  5
7F
330
1F
100
AcDbEntity
  8
0
  6
Continuous
 62
     7
100
AcDbCircle
 10
354.5
 20
4.3392857143
 30
0.0
 40
14.66071428571438
100
AcDbArc
 50
31.5023473269
 51
148.4976526731
  0
ARC
  5
80
330
1F
100
AcDbEntity
  8
0
  6
Continuous
 62
     7
100
AcDbCircle
 10
383.0
 20
4.3392857143
 30
0.0
 40
14.66071428571428
100
AcDbArc
 50
31.5023473269
 51
148.4976526731
  0
ARC
  5
81
330
1F
100
AcDbEntity
  8
0
  6
Continuous
 62
     7
100
AcDbCircle
 10
411.5
 20
4.3392857143
 30
0.0
 40
14.66071428571433
100
AcDbArc
 50
31.5023473269
 51
148.4976526731
  0
ARC
  5
82
330
1F
100
AcDbEntity
  8
0
  6
Continuous
 62
     7
100
AcDbCircle
 10
440.0
 20
4.3392857143
 30
0.0
 40
14.66071428571428
100
AcDbArc
 50
31.5023473269
 51
148.4976526731
  0
ARC
  5
83
330
1F
100
AcDbEntity
  8
0
  6
Continuous
 62
     7
100
AcDbCircle
 10
468.5
 20
4.3392857143
 30
0.0
 40
14.66071428571433
100
AcDbArc
 50
31.5023473269
 51
148.4976526731
  0
ARC
  5
84
330
1F
100
AcDbEntity
  8
0
  6
Continuous
 62
     7
100
AcDbCircle
 10
497.0
 20
4.3392857143
 30
0.0
 40
14.66071428571428
100
AcDbArc
 50
31.5023473269
 51
148.4976526731
  0
ARC
  5
85
330
1F
100
AcDbEntity
  8
0
  6
Continuous
 62
     7
100
AcDbCircle
 10
525.5
 20
4.3392857143
 30
0.0
 40
14.66071428571428
100
AcDbArc
 50
31.5023473269
 51
148.4976526731
  0
ARC
  5
86
330
1F
100
AcDbEntity
  8
0
  6
Continuous
 62
     7
100
AcDbCircle
 10
554.0
 20
4.3392857143
 30
0.0
 40
14.66071428571438
100
AcDbArc
 50
31.5023473269
 51
148.4976526731
  0
ARC
  5
87
330
1F
100
AcDbEntity
  8
0
  6
Continuous
 62
     7
100
AcDbCircle
 10
582.5
 20
4.3392857143
 30
0.0
 40
14.66071428571438
100
AcDbArc
 50
31.5023473269
 51
148.4976526731
  0
ARC
  5
88
330
1F
100
AcDbEntity
  8
0
  6
Continuous
 62
     7
100
AcDbCircle
 10
611.0
 20
4.3392857143
 30
0.0
 40
14.66071428571428
100
AcDbArc
 50
31.5023473269
 51
148.4976526731
  0
ARC
  5
89
330
1F
100
AcDbEntity
  8
0
  6
Continuous
 62
     7
100
AcDbCircle
 10
639.5
 20
4.3392857143
 30
0.0
 40
14.66071428571428
100
AcDbArc
 50
31.5023473269
 51
148.4976526731
  0
ARC
  5
8A
330
1F
100
AcDbEntity
  8
0
  6
Continuous
 62
     7
100
AcDbCircle
 10
668.0
 20
4.3392857143
 30
0.0
 40
14.66071428571438
100
AcDbArc
 50
31.5023473269
 51
148.4976526731
  0
ARC
  5
8B
330
1F
100
AcDbEntity
  8
0
  6
Continuous
 62
     7
100
AcDbCircle
 10
696.5
 20
4.3392857143
 30
0.0
 40
14.66071428571438
100
AcDbArc
 50
31.5023473269
 51
148.4976526731
  0
ARC
  5
8C
330
1F
100
AcDbEntity
  8
0
  6
Continuous
 62
     7
100
AcDbCircle
 10
725.0
 20
4.3392857143
 30
0.0
 40
14.66071428571428
100
AcDbArc
 50
31.5023473269
 51
148.4976526731
  0
ARC
  5
8D
330
1F
100
AcDbEntity
  8
0
  6
Continuous
 62
     7
100
AcDbCircle
 10
753.5
 20
4.3392857143
 30
0.0
 40
14.66071428571428
100
AcDbArc
 50
31.5023473269
 51
148.4976526731
  0
ARC
  5
8E
330
1F
100
AcDbEntity
  8
0
  6
Continuous
 62
     7
100
AcDbCircle
 10
782.0
 20
4.3392857143
 30
0.0
 40
14.66071428571438
100
AcDbArc
 50
31.5023473269
 51
148.4976526731
  0
ARC
  5
8F
330
1F
100
AcDbEntity
  8
0
  6
Continuous
 62
     7
100
AcDbCircle
 10
810.5
 20
4.3392857143
 30
0.0
 40
14.66071428571438
100
AcDbArc
 50
31.5023473269
 51
148.4976526731
  0
ARC
  5
90
330
1F
100
AcDbEntity
  8
0
  6
Continuous
 62
     7
100
AcDbCircle
 10
839.0
 20
4.3392857143
 30
0.0
 40
14.66071428571428
100
AcDbArc
 50
31.5023473269
 51
148.4976526731
  0
ARC
  5
91
330
1F
100
AcDbEntity
  8
0
  6
Continuous
 62
     7
100
AcDbCircle
 10
867.5
 20
4.3392857143
 30
0.0
 40
14.66071428571438
100
AcDbArc
 50
31.5023473269
 51
148.4976526731
  0
ARC
  5
92
330
1F
100
AcDbEntity
  8
0
  6
Continuous
 62
     7
100
AcDbCircle
 10
896.0
 20
4.3392857143
 30
0.0
 40
14.66071428571438
100
AcDbArc
 50
31.5023473269
 51
148.4976526731
  0
ARC
  5
93
330
1F
100
AcDbEntity
  8
0
  6
Continuous
 62
     7
100
AcDbCircle
 10
924.5
 20
4.3392857143
 30
0.0
 40
14.66071428571428
100
AcDbArc
 50
31.5023473269
 51
148.4976526731
  0
ARC
  5
94
330
1F
100
AcDbEntity
  8
0
  6
Continuous
 62
     7
100
AcDbCircle
 10
953.0
 20
4.3392857143
 30
0.0
 40
14.66071428571428
100
AcDbArc
 50
31.5023473269
 51
148.4976526731
  0
ARC
  5
95
330
1F
100
AcDbEntity
  8
0
  6
Continuous
 62
     7
100
AcDbCircle
 10
981.5
 20
4.3392857143
 30
0.0
 40
14.66071428571438
100
AcDbArc
 50
31.5023473269
 51
148.4976526731
  0
ARC
  5
96
330
1F
100
AcDbEntity
  8
0
  6
Continuous
 62
     7
100
AcDbCircle
 10
1010.0
 20
4.3392857143
 30
0.0
 40
14.66071428571428
100
AcDbArc
 50
31.5023473269
 51
148.4976526731
  0
ARC
  5
97
330
1F
100
AcDbEntity
  8
0
  6
Continuous
 62
     7
100
AcDbCircle
 10
1038.5
 20
4.3392857143
 30
0.0
 40
14.66071428571428
100
AcDbArc
 50
31.5023473269
 51
148.4976526731
  0
ARC
  5
98
330
1F
100
AcDbEntity
  8
0
  6
Continuous
 62
     7
100
AcDbCircle
 10
1067.0
 20
4.3392857143
 30
0.0
 40
14.66071428571428
100
AcDbArc
 50
31.5023473269
 51
148.4976526731
  0
ARC
  5
99
330
1F
100
AcDbEntity
  8
0
  6
Continuous
 62
     7
100
AcDbCircle
 10
1095.5
 20
4.3392857143
 30
0.0
 40
14.66071428571428
100
AcDbArc
 50
31.5023473269
 51
148.4976526731
  0
ARC
  5
9A
330
1F
100
AcDbEntity
  8
0
  6
Continuous
 62
     7
100
AcDbCircle
 10
1124.0
 20
4.3392857143
 30
0.0
 40
14.66071428571428
100
AcDbArc
 50
31.5023473269
 51
148.4976526731
  0
ARC
  5
9B
330
1F
100
AcDbEntity
  8
0
  6
Continuous
 62
     7
100
AcDbCircle
 10
1152.5
 20
4.3392857143
 30
0.0
 40
14.66071428571428
100
AcDbArc
 50
31.5023473269
 51
148.4976526731
  0
ARC
  5
9C
330
1F
100
AcDbEntity
  8
0
  6
Continuous
 62
     7
100
AcDbCircle
 10
1181.0
 20
4.3392857143
 30
0.0
 40
14.66071428571428
100
AcDbArc
 50
31.5023473269
 51
148.4976526731
  0
ARC
  5
9D
330
1F
100
AcDbEntity
  8
0
  6
Continuous
 62
     7
100
AcDbCircle
 10
1209.5
 20
4.3392857143
 30
0.0
 40
14.66071428571428
100
AcDbArc
 50
31.5023473269
 51
148.4976526731
  0
ARC
  5
9E
330
1F
100
AcDbEntity
  8
0
  6
Continuous
 62
     7
100
AcDbCircle
 10
1238.0
 20
4.3392857143
 30
0.0
 40
14.66071428571428
100
AcDbArc
 50
31.5023473269
 51
148.4976526731
  0
ARC
  5
9F
330
1F
100
AcDbEntity
  8
0
  6
Continuous
 62
     7
100
AcDbCircle
 10
1266.5
 20
4.3392857143
 30
0.0
 40
14.66071428571428
100
AcDbArc
 50
31.5023473269
 51
148.4976526731
  0
ARC
  5
A0
330
1F
100
AcDbEntity
  8
0
  6
Continuous
 62
     7
100
AcDbCircle
 10
1295.0
 20
4.3392857143
 30
0.0
 40
14.66071428571428
100
AcDbArc
 50
31.5023473269
 51
148.4976526731
  0
ARC
  5
A1
330
1F
100
AcDbEntity
  8
0
  6
Continuous
 62
     7
100
AcDbCircle
 10
1323.5
 20
4.3392857143
 30
0.0
 40
14.66071428571428
100
AcDbArc
 50
31.5023473269
 51
148.4976526731
  0
ARC
  5
A2
330
1F
100
AcDbEntity
  8
0
  6
Continuous
 62
     7
100
AcDbCircle
 10
1352.0
 20
4.3392857143
 30
0.0
 40
14.66071428571428
100
AcDbArc
 50
31.5023473269
 51
148.4976526731
  0
ARC
  5
A3
330
1F
100
AcDbEntity
  8
0
  6
Continuous
 62
     7
100
AcDbCircle
 10
1380.5
 20
4.3392857143
 30
0.0
 40
14.66071428571428
100
AcDbArc
 50
31.5023473269
 51
148.4976526731
  0
ARC
  5
A4
330
1F
100
AcDbEntity
  8
0
  6
Continuous
 62
     7
100
AcDbCircle
 10
1409.0
 20
4.3392857143
 30
0.0
 40
14.66071428571428
100
AcDbArc
 50
31.5023473269
 51
148.4976526731
  0
ARC
  5
A5
330
1F
100
AcDbEntity
  8
0
  6
Continuous
 62
     7
100
AcDbCircle
 10
1437.5
 20
4.3392857143
 30
0.0
 40
14.66071428571428
100
AcDbArc
 50
31.5023473269
 51
148.4976526731
  0
ARC
  5
A6
330
1F
100
AcDbEntity
  8
0
  6
Continuous
 62
     7
100
AcDbCircle
 10
1466.0
 20
4.3392857143
 30
0.0
 40
14.66071428571428
100
AcDbArc
 50
31.5023473269
 51
148.4976526731
  0
ARC
  5
A7
330
1F
100
AcDbEntity
  8
0
  6
Continuous
 62
     7
100
AcDbCircle
 10
1494.5
 20
4.3392857143
 30
0.0
 40
14.66071428571428
100
AcDbArc
 50
31.5023473269
 51
148.4976526731
  0
ARC
  5
A8
330
1F
100
AcDbEntity
  8
0
  6
Continuous
 62
     7
100
AcDbCircle
 10
1523.0
 20
4.3392857143
 30
0.0
 40
14.66071428571428
100
AcDbArc
 50
31.5023473269
 51
148.4976526731
  0
ARC
  5
A9
330
1F
100
AcDbEntity
  8
0
  6
Continuous
 62
     7
100
AcDbCircle
 10
1551.5
 20
4.3392857143
 30
0.0
 40
14.66071428571428
100
AcDbArc
 50
31.5023473269
 51
148.4976526731
  0
ARC
  5
AA
330
1F
100
AcDbEntity
  8
0
  6
Continuous
 62
     7
100
AcDbCircle
 10
1580.0
 20
4.3392857143
 30
0.0
 40
14.66071428571428
100
AcDbArc
 50
31.5023473269
 51
148.4976526731
  0
ARC
  5
AB
330
1F
100
AcDbEntity
  8
0
  6
Continuous
 62
     7
100
AcDbCircle
 10
1608.5
 20
4.3392857143
 30
0.0
 40
14.66071428571428
100
AcDbArc
 50
31.5023473269
 51
148.4976526731
  0
ARC
  5
AC
330
1F
100
AcDbEntity
  8
0
  6
Continuous
 62
     7
100
AcDbCircle
 10
1637.0
 20
4.3392857143
 30
0.0
 40
14.66071428571428
100
AcDbArc
 50
31.5023473269
 51
148.4976526731
  0
ARC
  5
AD
330
1F
100
AcDbEntity
  8
0
  6
Continuous
 62
     7
100
AcDbCircle
 10
1665.5
 20
4.3392857143
 30
0.0
 40
14.66071428571428
100
AcDbArc
 50
31.5023473269
 51
148.4976526731
  0
ARC
  5
AE
330
1F
100
AcDbEntity
  8
0
  6
Continuous
 62
     7
100
AcDbCircle
 10
1694.0
 20
4.3392857143
 30
0.0
 40
14.66071428571428
100
AcDbArc
 50
31.5023473269
 51
148.4976526731
  0
ARC
  5
AF
330
1F
100
AcDbEntity
  8
0
  6
Continuous
 62
     7
100
AcDbCircle
 10
1722.5
 20
4.3392857143
 30
0.0
 40
14.66071428571428
100
AcDbArc
 50
31.5023473269
 51
148.4976526731
  0
ARC
  5
B0
330
1F
100
AcDbEntity
  8
0
  6
Continuous
 62
     7
100
AcDbCircle
 10
1751.0
 20
4.3392857143
 30
0.0
 40
14.66071428571428
100
AcDbArc
 50
31.5023473269
 51
148.4976526731
  0
ARC
  5
B1
330
1F
100
AcDbEntity
  8
0
  6
Continuous
 62
     7
100
AcDbCircle
 10
1779.5
 20
4.3392857143
 30
0.0
 40
14.66071428571428
100
AcDbArc
 50
31.5023473269
 51
148.4976526731
  0
ARC
  5
B2
330
1F
100
AcDbEntity
  8
0
  6
Continuous
 62
     7
100
AcDbCircle
 10
1808.0
 20
4.3392857143
 30
0.0
 40
14.66071428571428
100
AcDbArc
 50
31.5023473269
 51
148.4976526731
  0
ARC
  5
B3
330
1F
100
AcDbEntity
  8
0
  6
Continuous
 62
     7
100
AcDbCircle
 10
1836.5
 20
4.3392857143
 30
0.0
 40
14.66071428571428
100
AcDbArc
 50
31.5023473269
 51
148.4976526731
  0
ARC
  5
B4
330
1F
100
AcDbEntity
  8
0
  6
Continuous
 62
     7
100
AcDbCircle
 10
1865.0
 20
4.3392857143
 30
0.0
 40
14.66071428571428
100
AcDbArc
 50
31.5023473269
 51
148.4976526731
  0
ARC
  5
B5
330
1F
100
AcDbEntity
  8
0
  6
Continuous
 62
     7
100
AcDbCircle
 10
1893.5
 20
4.3392857143
 30
0.0
 40
14.66071428571428
100
AcDbArc
 50
31.5023473269
 51
148.4976526731
  0
ARC
  5
B6
330
1F
100
AcDbEntity
  8
0
  6
Continuous
 62
     7
100
AcDbCircle
 10
1922.0
 20
4.3392857143
 30
0.0
 40
14.66071428571428
100
AcDbArc
 50
31.5023473269
 51
148.4976526731
  0
ARC
  5
B7
330
1F
100
AcDbEntity
  8
0
  6
Continuous
 62
     7
100
AcDbCircle
 10
1950.5
 20
4.3392857143
 30
0.0
 40
14.66071428571448
100
AcDbArc
 50
31.5023473269
 51
148.4976526731
  0
ARC
  5
B8
330
1F
100
AcDbEntity
  8
0
  6
Continuous
 62
     7
100
AcDbCircle
 10
1979.0
 20
4.3392857143
 30
0.0
 40
14.66071428571428
100
AcDbArc
 50
31.5023473269
 51
148.4976526731
  0
ARC
  5
B9
330
1F
100
AcDbEntity
  8
0
  6
Continuous
 62
     7
100
AcDbCircle
 10
2007.5
 20
4.3392857143
 30
0.0
 40
14.66071428571448
100
AcDbArc
 50
31.5023473269
 51
148.4976526731
  0
ARC
  5
BA
330
1F
100
AcDbEntity
  8
0
  6
Continuous
 62
     7
100
AcDbCircle
 10
2036.0
 20
4.3392857143
 30
0.0
 40
14.66071428571409
100
AcDbArc
 50
31.5023473269
 51
148.4976526731
  0
ARC
  5
BB
330
1F
100
AcDbEntity
  8
0
  6
Continuous
 62
     7
100
AcDbCircle
 10
2064.5
 20
4.3392857143
 30
0.0
 40
14.66071428571428
100
AcDbArc
 50
31.5023473269
 51
148.4976526731
  0
ARC
  5
BC
330
1F
100
AcDbEntity
  8
0
  6
Continuous
 62
     7
100
AcDbCircle
 10
2093.0
 20
4.3392857143
 30
0.0
 40
14.66071428571428
100
AcDbArc
 50
31.5023473269
 51
148.4976526731
  0
ARC
  5
BD
330
1F
100
AcDbEntity
  8
0
  6
Continuous
 62
     7
100
AcDbCircle
 10
2121.5
 20
4.3392857143
 30
0.0
 40
14.66071428571428
100
AcDbArc
 50
31.5023473269
 51
148.4976526731
  0
ARC
  5
BE
330
1F
100
AcDbEntity
  8
0
  6
Continuous
 62
     7
100
AcDbCircle
 10
2150.0
 20
4.3392857143
 30
0.0
 40
14.66071428571467
100
AcDbArc
 50
31.5023473269
 51
148.4976526731
  0
ARC
  5
BF
330
1F
100
AcDbEntity
  8
0
  6
Continuous
 62
     7
100
AcDbCircle
 10
2178.5
 20
4.3392857143
 30
0.0
 40
14.66071428571428
100
AcDbArc
 50
31.5023473269
 51
148.4976526731
  0
ARC
  5
C0
330
1F
100
AcDbEntity
  8
0
  6
Continuous
 62
     7
100
AcDbCircle
 10
2207.0
 20
4.3392857143
 30
0.0
 40
14.66071428571467
100
AcDbArc
 50
31.5023473269
 51
148.4976526731
  0
ARC
  5
C1
330
1F
100
AcDbEntity
  8
0
  6
Continuous
 62
     7
100
AcDbCircle
 10
2235.5
 20
4.3392857143
 30
0.0
 40
14.66071428571428
100
AcDbArc
 50
31.5023473269
 51
148.4976526731
  0
ARC
  5
C2
330
1F
100
AcDbEntity
  8
0
  6
Continuous
 62
     7
100
AcDbCircle
 10
2264.0
 20
4.3392857143
 30
0.0
 40
14.66071428571467
100
AcDbArc
 50
31.5023473269
 51
148.4976526731
  0
ARC
  5
C3
330
1F
100
AcDbEntity
  8
0
  6
Continuous
 62
     7
100
AcDbCircle
 10
2292.5
 20
4.3392857143
 30
0.0
 40
14.66071428571428
100
AcDbArc
 50
31.5023473269
 51
148.4976526731
  0
ARC
  5
C4
330
1F
100
AcDbEntity
  8
0
  6
Continuous
 62
     7
100
AcDbCircle
 10
2321.0
 20
4.3392857143
 30
0.0
 40
14.66071428571428
100
AcDbArc
 50
31.5023473269
 51
148.4976526731
  0
ARC
  5
C5
330
1F
100
AcDbEntity
  8
0
  6
Continuous
 62
     7
100
AcDbCircle
 10
2349.5
 20
4.3392857143
 30
0.0
 40
14.66071428571467
100
AcDbArc
 50
31.5023473269
 51
148.4976526731
  0
ARC
  5
C6
330
1F
100
AcDbEntity
  8
0
  6
Continuous
 62
     7
100
AcDbCircle
 10
2378.0
 20
4.3392857143
 30
0.0
 40
14.66071428571428
100
AcDbArc
 50
31.5023473269
 51
148.4976526731
  0
ARC
  5
C7
330
1F
100
AcDbEntity
  8
0
  6
Continuous
 62
     7
100
AcDbCircle
 10
2406.5
 20
4.3392857143
 30
0.0
 40
14.66071428571467
100
AcDbArc
 50
31.5023473269
 51
148.4976526731
  0
ARC
  5
C8
330
1F
100
AcDbEntity
  8
0
  6
Continuous
 62
     7
100
AcDbCircle
 10
2435.0
 20
4.3392857143
 30
0.0
 40
14.66071428571428
100
AcDbArc
 50
31.5023473269
 51
148.4976526731
  0
ARC
  5
C9
330
1F
100
AcDbEntity
  8
0
  6
Continuous
 62
     7
100
AcDbCircle
 10
2463.5
 20
4.3392857143
 30
0.0
 40
14.66071428571467
100
AcDbArc
 50
31.5023473269
 51
148.4976526731
  0
ARC
  5
CA
330
1F
100
AcDbEntity
  8
0
  6
Continuous
 62
     7
100
AcDbCircle
 10
2492.0
 20
4.3392857143
 30
0.0
 40
14.66071428571428
100
AcDbArc
 50
31.5023473269
 51
148.4976526731
  0
ARC
  5
CB
330
1F
100
AcDbEntity
  8
0
  6
Continuous
 62
     7
100
AcDbCircle
 10
2520.5
 20
4.3392857143
 30
0.0
 40
14.66071428571428
100
AcDbArc
 50
31.5023473269
 51
148.4976526731
  0
ARC
  5
CC
330
1F
100
AcDbEntity
  8
0
  6
Continuous
 62
     7
100
AcDbCircle
 10
2549.0
 20
4.3392857143
 30
0.0
 40
14.66071428571467
100
AcDbArc
 50
31.5023473269
 51
148.4976526731
  0
ARC
  5
CD
330
1F
100
AcDbEntity
  8
0
  6
Continuous
 62
     7
100
AcDbCircle
 10
2577.5
 20
4.3392857143
 30
0.0
 40
14.66071428571428
100
AcDbArc
 50
31.5023473269
 51
148.4976526731
  0
ARC
  5
CE
330
1F
100
AcDbEntity
  8
0
  6
Continuous
 62
     7
100
AcDbCircle
 10
2606.0
 20
4.3392857143
 30
0.0
 40
14.66071428571467
100
AcDbArc
 50
31.5023473269
 51
148.4976526731
  0
ARC
  5
CF
330
1F
100
AcDbEntity
  8
0
  6
Continuous
 62
     7
100
AcDbCircle
 10
2634.5
 20
4.3392857143
 30
0.0
 40
14.66071428571428
100
AcDbArc
 50
31.5023473269
 51
148.4976526731
  0
ARC
  5
D0
330
1F
100
AcDbEntity
  8
0
  6
Continuous
 62
     7
100
AcDbCircle
 10
2663.0
 20
4.3392857143
 30
0.0
 40
14.66071428571467
100
AcDbArc
 50
31.5023473269
 51
148.4976526731
  0
ARC
  5
D1
330
1F
100
AcDbEntity
  8
0
  6
Continuous
 62
     7
100
AcDbCircle
 10
2691.5
 20
4.3392857143
 30
0.0
 40
14.66071428571428
100
AcDbArc
 50
31.5023473269
 51
148.4976526731
  0
ARC
  5
D2
330
1F
100
AcDbEntity
  8
0
  6
Continuous
 62
     7
100
AcDbCircle
 10
2720.0
 20
4.3392857143
 30
0.0
 40
14.66071428571428
100
AcDbArc
 50
31.5023473269
 51
148.4976526731
  0
ARC
  5
D3
330
1F
100
AcDbEntity
  8
0
  6
Continuous
 62
     7
100
AcDbCircle
 10
2748.5
 20
4.3392857143
 30
0.0
 40
14.66071428571467
100
AcDbArc
 50
31.5023473269
 51
148.4976526731
  0
ARC
  5
D4
330
1F
100
AcDbEntity
  8
0
  6
Continuous
 62
     7
100
AcDbCircle
 10
2777.0
 20
4.3392857143
 30
0.0
 40
14.66071428571428
100
AcDbArc
 50
31.5023473269
 51
148.4976526731
  0
ARC
  5
D5
330
1F
100
AcDbEntity
  8
0
  6
Continuous
 62
     7
100
AcDbCircle
 10
2805.5
 20
4.3392857143
 30
0.0
 40
14.66071428571467
100
AcDbArc
 50
31.5023473269
 51
148.4976526731
  0
ARC
  5
D6
330
1F
100
AcDbEntity
  8
0
  6
Continuous
 62
     7
100
AcDbCircle
 10
2834.0
 20
4.3392857143
 30
0.0
 40
14.66071428571428
100
AcDbArc
 50
31.5023473269
 51
148.4976526731
  0
LINE
  5
D7
330
1F
100
AcDbEntity
  8
0
  6
CENTERX2
 62
     7
100
AcDbLine
 10
12.5
 20
19.0
 30
0.0
 11
12.5
 21
0.0
 31
0.0
  0
LINE
  5
D8
330
1F
100
AcDbEntity
  8
0
  6
Continuous
 62
     7
100
AcDbLine
 10
0.0
 20
0.0
 30
0.0
 11
25.0
 21
0.0
 31
0.0
  0
LINE
  5
D9
330
1F
100
AcDbEntity
  8
0
  6
CENTERX2
 62
     7
100
AcDbLine
 10
0.0
 20
0.0
 30
0.0
 11
0.0
 21
12.0
 31
0.0
  0
LINE
  5
DA
330
1F
100
AcDbEntity
  8
0
  6
CENTERX2
 62
     7
100
AcDbLine
 10
25.0
 20
0.0
 30
0.0
 11
25.0
 21
12.0
 31
0.0
  0
LINE
  5
DB
330
1F
100
AcDbEntity
  8
0
  6
CENTERX2
 62
     7
100
AcDbLine
 10
25.0
 20
12.0
 30
0.0
 11
0.0
 21
12.0
 31
0.0
  0
LINE
  5
DC
330
1F
100
AcDbEntity
  8
0
  6
Continuous
 62
     7
100
AcDbLine
 10
25.0
 20
12.0
 30
0.0
 11
28.5
 21
12.0
 31
0.0
  0
LINE
  5
DD
330
1F
100
AcDbEntity
  8
0
  6
Continuous
 62
     7
100
AcDbLine
 10
25.0
 20
0.0
 30
0.0
 11
28.5
 21
0.0
 31
0.0
  0
LINE
  5
DE
330
1F
100
AcDbEntity
  8
0
  6
CENTERX2
 62
     7
100
AcDbLine
 10
28.5
 20
0.0
 30
0.0
 11
28.5
 21
12.0
 31
0.0
  0
LINE
  5
DF
330
1F
100
AcDbEntity
  8
0
  6
Continuous
 62
     7
100
AcDbLine
 10
28.5
 20
0.0
 30
0.0
 11
53.5
 21
0.0
 31
0.0
  0
LINE
  5
E0
330
1F
100
AcDbEntity
  8
0
  6
Continuous
 62
     7
100
AcDbLine
 10
53.5
 20
12.0
 30
0.0
 11
57.0
 21
12.0
 31
0.0
  0
LINE
  5
E1
330
1F
100
AcDbEntity
  8
0
  6
Continuous
 62
     7
100
AcDbLine
 10
53.5
 20
0.0
 30
0.0
 11
57.0
 21
0.0
 31
0.0
  0
LINE
  5
E2
330
1F
100
AcDbEntity
  8
0
  6
CENTERX2
 62
     7
100
AcDbLine
 10
41.0
 20
19.0
 30
0.0
 11
41.0
 21
0.0
 31
0.0
  0
LINE
  5
E3
330
1F
100
AcDbEntity
  8
0
  6
CENTERX2
 62
     7
100
AcDbLine
 10
28.5
 20
0.0
 30
0.0
 11
28.5
 21
12.0
 31
0.0
  0
LINE
  5
E4
330
1F
100
AcDbEntity
  8
0
  6
CENTERX2
 62
     7
100
AcDbLine
 10
53.5
 20
0.0
 30
0.0
 11
53.5
 21
12.0
 31
0.0
  0
LINE
  5
E5
330
1F
100
AcDbEntity
  8
0
  6
CENTERX2
 62
     7
100
AcDbLine
 10
53.5
 20
12.0
 30
0.0
 11
28.5
 21
12.0
 31
0.0
  0
LINE
  5
E6
330
1F
100
AcDbEntity
  8
0
  6
CENTERX2
 62
     7
100
AcDbLine
 10
57.0
 20
0.0
 30
0.0
 11
57.0
 21
12.0
 31
0.0
  0
LINE
  5
E7
330
1F
100
AcDbEntity
  8
0
  6
Continuous
 62
     7
100
AcDbLine
 10
57.0
 20
0.0
 30
0.0
 11
82.0
 21
0.0
 31
0.0
  0
LINE
  5
E8
330
1F
100
AcDbEntity
  8
0
  6
Continuous
 62
     7
100
AcDbLine
 10
82.0
 20
12.0
 30
0.0
 11
85.5
 21
12.0
 31
0.0
  0
LINE
  5
E9
330
1F
100
AcDbEntity
  8
0
  6
Continuous
 62
     7
100
AcDbLine
 10
82.0
 20
0.0
 30
0.0
 11
85.5
 21
0.0
 31
0.0
  0
LINE
  5
EA
330
1F
100
AcDbEntity
  8
0
  6
CENTERX2
 62
     7
100
AcDbLine
 10
69.5
 20
19.0
 30
0.0
 11
69.5
 21
0.0
 31
0.0
  0
LINE
  5
EB
330
1F
100
AcDbEntity
  8
0
  6
CENTERX2
 62
     7
100
AcDbLine
 10
57.0
 20
0.0
 30
0.0
 11
57.0
 21
12.0
 31
0.0
  0
LINE
  5
EC
330
1F
100
AcDbEntity
  8
0
  6
CENTERX2
 62
     7
100
AcDbLine
 10
82.0
 20
0.0
 30
0.0
 11
82.0
 21
12.0
 31
0.0
  0
LINE
  5
ED
330
1F
100
AcDbEntity
  8
0
  6
CENTERX2
 62
     7
100
AcDbLine
 10
82.0
 20
12.0
 30
0.0
 11
57.0
 21
12.0
 31
0.0
  0
LINE
  5
EE
330
1F
100
AcDbEntity
  8
0
  6
CENTERX2
 62
     7
100
AcDbLine
 10
85.5
 20
0.0
 30
0.0
 11
85.5
 21
12.0
 31
0.0
  0
LINE
  5
EF
330
1F
100
AcDbEntity
  8
0
  6
Continuous
 62
     7
100
AcDbLine
 10
85.5
 20
0.0
 30
0.0
 11
110.5
 21
0.0
 31
0.0
  0
LINE
  5
F0
330
1F
100
AcDbEntity
  8
0
  6
Continuous
 62
     7
100
AcDbLine
 10
110.5
 20
12.0
 30
0.0
 11
114.0
 21
12.0
 31
0.0
  0
LINE
  5
F1
330
1F
100
AcDbEntity
  8
0
  6
Continuous
 62
     7
100
AcDbLine
 10
110.5
 20
0.0
 30
0.0
 11
114.0
 21
0.0
 31
0.0
  0
LINE
  5
F2
330
1F
100
AcDbEntity
  8
0
  6
CENTERX2
 62
     7
100
AcDbLine
 10
98.0
 20
19.0
 30
0.0
 11
98.0
 21
0.0
 31
0.0
  0
LINE
  5
F3
330
1F
100
AcDbEntity
  8
0
  6
CENTERX2
 62
     7
100
AcDbLine
 10
85.5
 20
0.0
 30
0.0
 11
85.5
 21
12.0
 31
0.0
  0
LINE
  5
F4
330
1F
100
AcDbEntity
  8
0
  6
CENTERX2
 62
     7
100
AcDbLine
 10
110.5
 20
0.0
 30
0.0
 11
110.5
 21
12.0
 31
0.0
  0
LINE
  5
F5
330
1F
100
AcDbEntity
  8
0
  6
CENTERX2
 62
     7
100
AcDbLine
 10
110.5
 20
12.0
 30
0.0
 11
85.5
 21
12.0
 31
0.0
  0
LINE
  5
F6
330
1F
100
AcDbEntity
  8
0
  6
CENTERX2
 62
     7
100
AcDbLine
 10
114.0
 20
0.0
 30
0.0
 11
114.0
 21
12.0
 31
0.0
  0
LINE
  5
F7
330
1F
100
AcDbEntity
  8
0
  6
Continuous
 62
     7
100
AcDbLine
 10
114.0
 20
0.0
 30
0.0
 11
139.0
 21
0.0
 31
0.0
  0
LINE
  5
F8
330
1F
100
AcDbEntity
  8
0
  6
Continuous
 62
     7
100
AcDbLine
 10
139.0
 20
12.0
 30
0.0
 11
142.5
 21
12.0
 31
0.0
  0
LINE
  5
F9
330
1F
100
AcDbEntity
  8
0
  6
Continuous
 62
     7
100
AcDbLine
 10
139.0
 20
0.0
 30
0.0
 11
142.5
 21
0.0
 31
0.0
  0
LINE
  5
FA
330
1F
100
AcDbEntity
  8
0
  6
CENTERX2
 62
     7
100
AcDbLine
 10
126.5
 20
19.0
 30
0.0
 11
126.5
 21
0.0
 31
0.0
  0
LINE
  5
FB
330
1F
100
AcDbEntity
  8
0
  6
CENTERX2
 62
     7
100
AcDbLine
 10
114.0
 20
0.0
 30
0.0
 11
114.0
 21
12.0
 31
0.0
  0
LINE
  5
FC
330
1F
100
AcDbEntity
  8
0
  6
CENTERX2
 62
     7
100
AcDbLine
 10
139.0
 20
0.0
 30
0.0
 11
139.0
 21
12.0
 31
0.0
  0
LINE
  5
FD
330
1F
100
AcDbEntity
  8
0
  6
CENTERX2
 62
     7
100
AcDbLine
 10
139.0
 20
12.0
 30
0.0
 11
114.0
 21
12.0
 31
0.0
  0
LINE
  5
FE
330
1F
100
AcDbEntity
  8
0
  6
CENTERX2
 62
     7
100
AcDbLine
 10
142.5
 20
0.0
 30
0.0
 11
142.5
 21
12.0
 31
0.0
  0
LINE
  5
FF
330
1F
100
AcDbEntity
  8
0
  6
Continuous
 62
     7
100
AcDbLine
 10
142.5
 20
0.0
 30
0.0
 11
167.5
 21
0.0
 31
0.0
  0
LINE
  5
100
330
1F
100
AcDbEntity
  8
0
  6
Continuous
 62
     7
100
AcDbLine
 10
167.5
 20
12.0
 30
0.0
 11
171.0
 21
12.0
 31
0.0
  0
LINE
  5
101
330
1F
100
AcDbEntity
  8
0
  6
Continuous
 62
     7
100
AcDbLine
 10
167.5
 20
0.0
 30
0.0
 11
171.0
 21
0.0
 31
0.0
  0
LINE
  5
102
330
1F
100
AcDbEntity
  8
0
  6
CENTERX2
 62
     7
100
AcDbLine
 10
155.0
 20
19.0
 30
0.0
 11
155.0
 21
0.0
 31
0.0
  0
LINE
  5
103
330
1F
100
AcDbEntity
  8
0
  6
CENTERX2
 62
     7
100
AcDbLine
 10
142.5
 20
0.0
 30
0.0
 11
142.5
 21
12.0
 31
0.0
  0
LINE
  5
104
330
1F
100
AcDbEntity
  8
0
  6
CENTERX2
 62
     7
100
AcDbLine
 10
167.5
 20
0.0
 30
0.0
 11
167.5
 21
12.0
 31
0.0
  0
LINE
  5
105
330
1F
100
AcDbEntity
  8
0
  6
CENTERX2
 62
     7
100
AcDbLine
 10
167.5
 20
12.0
 30
0.0
 11
142.5
 21
12.0
 31
0.0
  0
LINE
  5
106
330
1F
100
AcDbEntity
  8
0
  6
CENTERX2
 62
     7
100
AcDbLine
 10
171.0
 20
0.0
 30
0.0
 11
171.0
 21
12.0
 31
0.0
  0
LINE
  5
107
330
1F
100
AcDbEntity
  8
0
  6
Continuous
 62
     7
100
AcDbLine
 10
171.0
 20
0.0
 30
0.0
 11
196.0
 21
0.0
 31
0.0
  0
LINE
  5
108
330
1F
100
AcDbEntity
  8
0
  6
Continuous
 62
     7
100
AcDbLine
 10
196.0
 20
12.0
 30
0.0
 11
199.5
 21
12.0
 31
0.0
  0
LINE
  5
109
330
1F
100
AcDbEntity
  8
0
  6
Continuous
 62
     7
100
AcDbLine
 10
196.0
 20
0.0
 30
0.0
 11
199.5
 21
0.0
 31
0.0
  0
LINE
  5
10A
330
1F
100
AcDbEntity
  8
0
  6
CENTERX2
 62
     7
100
AcDbLine
 10
183.5
 20
19.0
 30
0.0
 11
183.5
 21
0.0
 31
0.0
  0
LINE
  5
10B
330
1F
100
AcDbEntity
  8
0
  6
CENTERX2
 62
     7
100
AcDbLine
 10
171.0
 20
0.0
 30
0.0
 11
171.0
 21
12.0
 31
0.0
  0
LINE
  5
10C
330
1F
100
AcDbEntity
  8
0
  6
CENTERX2
 62
     7
100
AcDbLine
 10
196.0
 20
0.0
 30
0.0
 11
196.0
 21
12.0
 31
0.0
  0
LINE
  5
10D
330
1F
100
AcDbEntity
  8
0
  6
CENTERX2
 62
     7
100
AcDbLine
 10
196.0
 20
12.0
 30
0.0
 11
171.0
 21
12.0
 31
0.0
  0
LINE
  5
10E
330
1F
100
AcDbEntity
  8
0
  6
CENTERX2
 62
     7
100
AcDbLine
 10
199.5
 20
0.0
 30
0.0
 11
199.5
 21
12.0
 31
0.0
  0
LINE
  5
10F
330
1F
100
AcDbEntity
  8
0
  6
Continuous
 62
     7
100
AcDbLine
 10
199.5
 20
0.0
 30
0.0
 11
224.5
 21
0.0
 31
0.0
  0
LINE
  5
110
330
1F
100
AcDbEntity
  8
0
  6
Continuous
 62
     7
100
AcDbLine
 10
224.5
 20
12.0
 30
0.0
 11
228.0
 21
12.0
 31
0.0
  0
LINE
  5
111
330
1F
100
AcDbEntity
  8
0
  6
Continuous
 62
     7
100
AcDbLine
 10
224.5
 20
0.0
 30
0.0
 11
228.0
 21
0.0
 31
0.0
  0
LINE
  5
112
330
1F
100
AcDbEntity
  8
0
  6
CENTERX2
 62
     7
100
AcDbLine
 10
212.0
 20
19.0
 30
0.0
 11
212.0
 21
0.0
 31
0.0
  0
LINE
  5
113
330
1F
100
AcDbEntity
  8
0
  6
CENTERX2
 62
     7
100
AcDbLine
 10
199.5
 20
0.0
 30
0.0
 11
199.5
 21
12.0
 31
0.0
  0
LINE
  5
114
330
1F
100
AcDbEntity
  8
0
  6
CENTERX2
 62
     7
100
AcDbLine
 10
224.5
 20
0.0
 30
0.0
 11
224.5
 21
12.0
 31
0.0
  0
LINE
  5
115
330
1F
100
AcDbEntity
  8
0
  6
CENTERX2
 62
     7
100
AcDbLine
 10
224.5
 20
12.0
 30
0.0
 11
199.5
 21
12.0
 31
0.0
  0
LINE
  5
116
330
1F
100
AcDbEntity
  8
0
  6
CENTERX2
 62
     7
100
AcDbLine
 10
228.0
 20
0.0
 30
0.0
 11
228.0
 21
12.0
 31
0.0
  0
LINE
  5
117
330
1F
100
AcDbEntity
  8
0
  6
Continuous
 62
     7
100
AcDbLine
 10
228.0
 20
0.0
 30
0.0
 11
253.0
 21
0.0
 31
0.0
  0
LINE
  5
118
330
1F
100
AcDbEntity
  8
0
  6
Continuous
 62
     7
100
AcDbLine
 10
253.0
 20
12.0
 30
0.0
 11
256.5
 21
12.0
 31
0.0
  0
LINE
  5
119
330
1F
100
AcDbEntity
  8
0
  6
Continuous
 62
     7
100
AcDbLine
 10
253.0
 20
0.0
 30
0.0
 11
256.5
 21
0.0
 31
0.0
  0
LINE
  5
11A
330
1F
100
AcDbEntity
  8
0
  6
CENTERX2
 62
     7
100
AcDbLine
 10
240.5
 20
19.0
 30
0.0
 11
240.5
 21
0.0
 31
0.0
  0
LINE
  5
11B
330
1F
100
AcDbEntity
  8
0
  6
CENTERX2
 62
     7
100
AcDbLine
 10
228.0
 20
0.0
 30
0.0
 11
228.0
 21
12.0
 31
0.0
  0
LINE
  5
11C
330
1F
100
AcDbEntity
  8
0
  6
CENTERX2
 62
     7
100
AcDbLine
 10
253.0
 20
0.0
 30
0.0
 11
253.0
 21
12.0
 31
0.0
  0
LINE
  5
11D
330
1F
100
AcDbEntity
  8
0
  6
CENTERX2
 62
     7
100
AcDbLine
 10
253.0
 20
12.0
 30
0.0
 11
228.0
 21
12.0
 31
0.0
  0
LINE
  5
11E
330
1F
100
AcDbEntity
  8
0
  6
CENTERX2
 62
     7
100
AcDbLine
 10
256.5
 20
0.0
 30
0.0
 11
256.5
 21
12.0
 31
0.0
  0
LINE
  5
11F
330
1F
100
AcDbEntity
  8
0
  6
Continuous
 62
     7
100
AcDbLine
 10
256.5
 20
0.0
 30
0.0
 11
281.5
 21
0.0
 31
0.0
  0
LINE
  5
120
330
1F
100
AcDbEntity
  8
0
  6
Continuous
 62
     7
100
AcDbLine
 10
281.5
 20
12.0
 30
0.0
 11
285.0
 21
12.0
 31
0.0
  0
LINE
  5
121
330
1F
100
AcDbEntity
  8
0
  6
Continuous
 62
     7
100
AcDbLine
 10
281.5
 20
0.0
 30
0.0
 11
285.0
 21
0.0
 31
0.0
  0
LINE
  5
122
330
1F
100
AcDbEntity
  8
0
  6
CENTERX2
 62
     7
100
AcDbLine
 10
269.0
 20
19.0
 30
0.0
 11
269.0
 21
0.0
 31
0.0
  0
LINE
  5
123
330
1F
100
AcDbEntity
  8
0
  6
CENTERX2
 62
     7
100
AcDbLine
 10
256.5
 20
0.0
 30
0.0
 11
256.5
 21
12.0
 31
0.0
  0
LINE
  5
124
330
1F
100
AcDbEntity
  8
0
  6
CENTERX2
 62
     7
100
AcDbLine
 10
281.5
 20
0.0
 30
0.0
 11
281.5
 21
12.0
 31
0.0
  0
LINE
  5
125
330
1F
100
AcDbEntity
  8
0
  6
CENTERX2
 62
     7
100
AcDbLine
 10
281.5
 20
12.0
 30
0.0
 11
256.5
 21
12.0
 31
0.0
  0
LINE
  5
126
330
1F
100
AcDbEntity
  8
0
  6
CENTERX2
 62
     7
100
AcDbLine
 10
285.0
 20
0.0
 30
0.0
 11
285.0
 21
12.0
 31
0.0
  0
LINE
  5
127
330
1F
100
AcDbEntity
  8
0
  6
Continuous
 62
     7
100
AcDbLine
 10
285.0
 20
0.0
 30
0.0
 11
310.0
 21
0.0
 31
0.0
  0
LINE
  5
128
330
1F
100
AcDbEntity
  8
0
  6
Continuous
 62
     7
100
AcDbLine
 10
310.0
 20
12.0
 30
0.0
 11
313.5
 21
12.0
 31
0.0
  0
LINE
  5
129
330
1F
100
AcDbEntity
  8
0
  6
Continuous
 62
     7
100
AcDbLine
 10
310.0
 20
0.0
 30
0.0
 11
313.5
 21
0.0
 31
0.0
  0
LINE
  5
12A
330
1F
100
AcDbEntity
  8
0
  6
CENTERX2
 62
     7
100
AcDbLine
 10
297.5
 20
19.0
 30
0.0
 11
297.5
 21
0.0
 31
0.0
  0
LINE
  5
12B
330
1F
100
AcDbEntity
  8
0
  6
CENTERX2
 62
     7
100
AcDbLine
 10
285.0
 20
0.0
 30
0.0
 11
285.0
 21
12.0
 31
0.0
  0
LINE
  5
12C
330
1F
100
AcDbEntity
  8
0
  6
CENTERX2
 62
     7
100
AcDbLine
 10
310.0
 20
0.0
 30
0.0
 11
310.0
 21
12.0
 31
0.0
  0
LINE
  5
12D
330
1F
100
AcDbEntity
  8
0
  6
CENTERX2
 62
     7
100
AcDbLine
 10
310.0
 20
12.0
 30
0.0
 11
285.0
 21
12.0
 31
0.0
  0
LINE
  5
12E
330
1F
100
AcDbEntity
  8
0
  6
CENTERX2
 62
     7
100
AcDbLine
 10
313.5
 20
0.0
 30
0.0
 11
313.5
 21
12.0
 31
0.0
  0
LINE
  5
12F
330
1F
100
AcDbEntity
  8
0
  6
Continuous
 62
     7
100
AcDbLine
 10
313.5
 20
0.0
 30
0.0
 11
338.5
 21
0.0
 31
0.0
  0
LINE
  5
130
330
1F
100
AcDbEntity
  8
0
  6
Continuous
 62
     7
100
AcDbLine
 10
338.5
 20
12.0
 30
0.0
 11
342.0
 21
12.0
 31
0.0
  0
LINE
  5
131
330
1F
100
AcDbEntity
  8
0
  6
Continuous
 62
     7
100
AcDbLine
 10
338.5
 20
0.0
 30
0.0
 11
342.0
 21
0.0
 31
0.0
  0
LINE
  5
132
330
1F
100
AcDbEntity
  8
0
  6
CENTERX2
 62
     7
100
AcDbLine
 10
326.0
 20
19.0
 30
0.0
 11
326.0
 21
0.0
 31
0.0
  0
LINE
  5
133
330
1F
100
AcDbEntity
  8
0
  6
CENTERX2
 62
     7
100
AcDbLine
 10
313.5
 20
0.0
 30
0.0
 11
313.5
 21
12.0
 31
0.0
  0
LINE
  5
134
330
1F
100
AcDbEntity
  8
0
  6
CENTERX2
 62
     7
100
AcDbLine
 10
338.5
 20
0.0
 30
0.0
 11
338.5
 21
12.0
 31
0.0
  0
LINE
  5
135
330
1F
100
AcDbEntity
  8
0
  6
CENTERX2
 62
     7
100
AcDbLine
 10
338.5
 20
12.0
 30
0.0
 11
313.5
 21
12.0
 31
0.0
  0
LINE
  5
136
330
1F
100
AcDbEntity
  8
0
  6
CENTERX2
 62
     7
100
AcDbLine
 10
342.0
 20
0.0
 30
0.0
 11
342.0
 21
12.0
 31
0.0
  0
LINE
  5
137
330
1F
100
AcDbEntity
  8
0
  6
Continuous
 62
     7
100
AcDbLine
 10
342.0
 20
0.0
 30
0.0
 11
367.0
 21
0.0
 31
0.0
  0
LINE
  5
138
330
1F
100
AcDbEntity
  8
0
  6
Continuous
 62
     7
100
AcDbLine
 10
367.0
 20
12.0
 30
0.0
 11
370.5
 21
12.0
 31
0.0
  0
LINE
  5
139
330
1F
100
AcDbEntity
  8
0
  6
Continuous
 62
     7
100
AcDbLine
 10
367.0
 20
0.0
 30
0.0
 11
370.5
 21
0.0
 31
0.0
  0
LINE
  5
13A
330
1F
100
AcDbEntity
  8
0
  6
CENTERX2
 62
     7
100
AcDbLine
 10
354.5
 20
19.0
 30
0.0
 11
354.5
 21
0.0
 31
0.0
  0
LINE
  5
13B
330
1F
100
AcDbEntity
  8
0
  6
CENTERX2
 62
     7
100
AcDbLine
 10
342.0
 20
0.0
 30
0.0
 11
342.0
 21
12.0
 31
0.0
  0
LINE
  5
13C
330
1F
100
AcDbEntity
  8
0
  6
CENTERX2
 62
     7
100
AcDbLine
 10
367.0
 20
0.0
 30
0.0
 11
367.0
 21
12.0
 31
0.0
  0
LINE
  5
13D
330
1F
100
AcDbEntity
  8
0
  6
CENTERX2
 62
     7
100
AcDbLine
 10
367.0
 20
12.0
 30
0.0
 11
342.0
 21
12.0
 31
0.0
  0
LINE
  5
13E
330
1F
100
AcDbEntity
  8
0
  6
CENTERX2
 62
     7
100
AcDbLine
 10
370.5
 20
0.0
 30
0.0
 11
370.5
 21
12.0
 31
0.0
  0
LINE
  5
13F
330
1F
100
AcDbEntity
  8
0
  6
Continuous
 62
     7
100
AcDbLine
 10
370.5
 20
0.0
 30
0.0
 11
395.5
 21
0.0
 31
0.0
  0
LINE
  5
140
330
1F
100
AcDbEntity
  8
0
  6
Continuous
 62
     7
100
AcDbLine
 10
395.5
 20
12.0
 30
0.0
 11
399.0
 21
12.0
 31
0.0
  0
LINE
  5
141
330
1F
100
AcDbEntity
  8
0
  6
Continuous
 62
     7
100
AcDbLine
 10
395.5
 20
0.0
 30
0.0
 11
399.0
 21
0.0
 31
0.0
  0
LINE
  5
142
330
1F
100
AcDbEntity
  8
0
  6
CENTERX2
 62
     7
100
AcDbLine
 10
383.0
 20
19.0
 30
0.0
 11
383.0
 21
0.0
 31
0.0
  0
LINE
  5
143
330
1F
100
AcDbEntity
  8
0
  6
CENTERX2
 62
     7
100
AcDbLine
 10
370.5
 20
0.0
 30
0.0
 11
370.5
 21
12.0
 31
0.0
  0
LINE
  5
144
330
1F
100
AcDbEntity
  8
0
  6
CENTERX2
 62
     7
100
AcDbLine
 10
395.5
 20
0.0
 30
0.0
 11
395.5
 21
12.0
 31
0.0
  0
LINE
  5
145
330
1F
100
AcDbEntity
  8
0
  6
CENTERX2
 62
     7
100
AcDbLine
 10
395.5
 20
12.0
 30
0.0
 11
370.5
 21
12.0
 31
0.0
  0
LINE
  5
146
330
1F
100
AcDbEntity
  8
0
  6
CENTERX2
 62
     7
100
AcDbLine
 10
399.0
 20
0.0
 30
0.0
 11
399.0
 21
12.0
 31
0.0
  0
LINE
  5
147
330
1F
100
AcDbEntity
  8
0
  6
Continuous
 62
     7
100
AcDbLine
 10
399.0
 20
0.0
 30
0.0
 11
424.0
 21
0.0
 31
0.0
  0
LINE
  5
148
330
1F
100
AcDbEntity
  8
0
  6
Continuous
 62
     7
100
AcDbLine
 10
424.0
 20
12.0
 30
0.0
 11
427.5
 21
12.0
 31
0.0
  0
LINE
  5
149
330
1F
100
AcDbEntity
  8
0
  6
Continuous
 62
     7
100
AcDbLine
 10
424.0
 20
0.0
 30
0.0
 11
427.5
 21
0.0
 31
0.0
  0
LINE
  5
14A
330
1F
100
AcDbEntity
  8
0
  6
CENTERX2
 62
     7
100
AcDbLine
 10
411.5
 20
19.0
 30
0.0
 11
411.5
 21
0.0
 31
0.0
  0
LINE
  5
14B
330
1F
100
AcDbEntity
  8
0
  6
CENTERX2
 62
     7
100
AcDbLine
 10
399.0
 20
0.0
 30
0.0
 11
399.0
 21
12.0
 31
0.0
  0
LINE
  5
14C
330
1F
100
AcDbEntity
  8
0
  6
CENTERX2
 62
     7
100
AcDbLine
 10
424.0
 20
0.0
 30
0.0
 11
424.0
 21
12.0
 31
0.0
  0
LINE
  5
14D
330
1F
100
AcDbEntity
  8
0
  6
CENTERX2
 62
     7
100
AcDbLine
 10
424.0
 20
12.0
 30
0.0
 11
399.0
 21
12.0
 31
0.0
  0
LINE
  5
14E
330
1F
100
AcDbEntity
  8
0
  6
CENTERX2
 62
     7
100
AcDbLine
 10
427.5
 20
0.0
 30
0.0
 11
427.5
 21
12.0
 31
0.0
  0
LINE
  5
14F
330
1F
100
AcDbEntity
  8
0
  6
Continuous
 62
     7
100
AcDbLine
 10
427.5
 20
0.0
 30
0.0
 11
452.5
 21
0.0
 31
0.0
  0
LINE
  5
150
330
1F
100
AcDbEntity
  8
0
  6
Continuous
 62
     7
100
AcDbLine
 10
452.5
 20
12.0
 30
0.0
 11
456.0
 21
12.0
 31
0.0
  0
LINE
  5
151
330
1F
100
AcDbEntity
  8
0
  6
Continuous
 62
     7
100
AcDbLine
 10
452.5
 20
0.0
 30
0.0
 11
456.0
 21
0.0
 31
0.0
  0
LINE
  5
152
330
1F
100
AcDbEntity
  8
0
  6
CENTERX2
 62
     7
100
AcDbLine
 10
440.0
 20
19.0
 30
0.0
 11
440.0
 21
0.0
 31
0.0
  0
LINE
  5
153
330
1F
100
AcDbEntity
  8
0
  6
CENTERX2
 62
     7
100
AcDbLine
 10
427.5
 20
0.0
 30
0.0
 11
427.5
 21
12.0
 31
0.0
  0
LINE
  5
154
330
1F
100
AcDbEntity
  8
0
  6
CENTERX2
 62
     7
100
AcDbLine
 10
452.5
 20
0.0
 30
0.0
 11
452.5
 21
12.0
 31
0.0
  0
LINE
  5
155
330
1F
100
AcDbEntity
  8
0
  6
CENTERX2
 62
     7
100
AcDbLine
 10
452.5
 20
12.0
 30
0.0
 11
427.5
 21
12.0
 31
0.0
  0
LINE
  5
156
330
1F
100
AcDbEntity
  8
0
  6
CENTERX2
 62
     7
100
AcDbLine
 10
456.0
 20
0.0
 30
0.0
 11
456.0
 21
12.0
 31
0.0
  0
LINE
  5
157
330
1F
100
AcDbEntity
  8
0
  6
Continuous
 62
     7
100
AcDbLine
 10
456.0
 20
0.0
 30
0.0
 11
481.0
 21
0.0
 31
0.0
  0
LINE
  5
158
330
1F
100
AcDbEntity
  8
0
  6
Continuous
 62
     7
100
AcDbLine
 10
481.0
 20
12.0
 30
0.0
 11
484.5
 21
12.0
 31
0.0
  0
LINE
  5
159
330
1F
100
AcDbEntity
  8
0
  6
Continuous
 62
     7
100
AcDbLine
 10
481.0
 20
0.0
 30
0.0
 11
484.5
 21
0.0
 31
0.0
  0
LINE
  5
15A
330
1F
100
AcDbEntity
  8
0
  6
CENTERX2
 62
     7
100
AcDbLine
 10
468.5
 20
19.0
 30
0.0
 11
468.5
 21
0.0
 31
0.0
  0
LINE
  5
15B
330
1F
100
AcDbEntity
  8
0
  6
CENTERX2
 62
     7
100
AcDbLine
 10
456.0
 20
0.0
 30
0.0
 11
456.0
 21
12.0
 31
0.0
  0
LINE
  5
15C
330
1F
100
AcDbEntity
  8
0
  6
CENTERX2
 62
     7
100
AcDbLine
 10
481.0
 20
0.0
 30
0.0
 11
481.0
 21
12.0
 31
0.0
  0
LINE
  5
15D
330
1F
100
AcDbEntity
  8
0
  6
CENTERX2
 62
     7
100
AcDbLine
 10
481.0
 20
12.0
 30
0.0
 11
456.0
 21
12.0
 31
0.0
  0
LINE
  5
15E
330
1F
100
AcDbEntity
  8
0
  6
CENTERX2
 62
     7
100
AcDbLine
 10
484.5
 20
0.0
 30
0.0
 11
484.5
 21
12.0
 31
0.0
  0
LINE
  5
15F
330
1F
100
AcDbEntity
  8
0
  6
Continuous
 62
     7
100
AcDbLine
 10
484.5
 20
0.0
 30
0.0
 11
509.5
 21
0.0
 31
0.0
  0
LINE
  5
160
330
1F
100
AcDbEntity
  8
0
  6
Continuous
 62
     7
100
AcDbLine
 10
509.5
 20
12.0
 30
0.0
 11
513.0
 21
12.0
 31
0.0
  0
LINE
  5
161
330
1F
100
AcDbEntity
  8
0
  6
Continuous
 62
     7
100
AcDbLine
 10
509.5
 20
0.0
 30
0.0
 11
513.0
 21
0.0
 31
0.0
  0
LINE
  5
162
330
1F
100
AcDbEntity
  8
0
  6
CENTERX2
 62
     7
100
AcDbLine
 10
497.0
 20
19.0
 30
0.0
 11
497.0
 21
0.0
 31
0.0
  0
LINE
  5
163
330
1F
100
AcDbEntity
  8
0
  6
CENTERX2
 62
     7
100
AcDbLine
 10
484.5
 20
0.0
 30
0.0
 11
484.5
 21
12.0
 31
0.0
  0
LINE
  5
164
330
1F
100
AcDbEntity
  8
0
  6
CENTERX2
 62
     7
100
AcDbLine
 10
509.5
 20
0.0
 30
0.0
 11
509.5
 21
12.0
 31
0.0
  0
LINE
  5
165
330
1F
100
AcDbEntity
  8
0
  6
CENTERX2
 62
     7
100
AcDbLine
 10
509.5
 20
12.0
 30
0.0
 11
484.5
 21
12.0
 31
0.0
  0
LINE
  5
166
330
1F
100
AcDbEntity
  8
0
  6
CENTERX2
 62
     7
100
AcDbLine
 10
513.0
 20
0.0
 30
0.0
 11
513.0
 21
12.0
 31
0.0
  0
LINE
  5
167
330
1F
100
AcDbEntity
  8
0
  6
Continuous
 62
     7
100
AcDbLine
 10
513.0
 20
0.0
 30
0.0
 11
538.0
 21
0.0
 31
0.0
  0
LINE
  5
168
330
1F
100
AcDbEntity
  8
0
  6
Continuous
 62
     7
100
AcDbLine
 10
538.0
 20
12.0
 30
0.0
 11
541.5
 21
12.0
 31
0.0
  0
LINE
  5
169
330
1F
100
AcDbEntity
  8
0
  6
Continuous
 62
     7
100
AcDbLine
 10
538.0
 20
0.0
 30
0.0
 11
541.5
 21
0.0
 31
0.0
  0
LINE
  5
16A
330
1F
100
AcDbEntity
  8
0
  6
CENTERX2
 62
     7
100
AcDbLine
 10
525.5
 20
19.0
 30
0.0
 11
525.5
 21
0.0
 31
0.0
  0
LINE
  5
16B
330
1F
100
AcDbEntity
  8
0
  6
CENTERX2
 62
     7
100
AcDbLine
 10
513.0
 20
0.0
 30
0.0
 11
513.0
 21
12.0
 31
0.0
  0
LINE
  5
16C
330
1F
100
AcDbEntity
  8
0
  6
CENTERX2
 62
     7
100
AcDbLine
 10
538.0
 20
0.0
 30
0.0
 11
538.0
 21
12.0
 31
0.0
  0
LINE
  5
16D
330
1F
100
AcDbEntity
  8
0
  6
CENTERX2
 62
     7
100
AcDbLine
 10
538.0
 20
12.0
 30
0.0
 11
513.0
 21
12.0
 31
0.0
  0
LINE
  5
16E
330
1F
100
AcDbEntity
  8
0
  6
CENTERX2
 62
     7
100
AcDbLine
 10
541.5
 20
0.0
 30
0.0
 11
541.5
 21
12.0
 31
0.0
  0
LINE
  5
16F
330
1F
100
AcDbEntity
  8
0
  6
Continuous
 62
     7
100
AcDbLine
 10
541.5
 20
0.0
 30
0.0
 11
566.5
 21
0.0
 31
0.0
  0
LINE
  5
170
330
1F
100
AcDbEntity
  8
0
  6
Continuous
 62
     7
100
AcDbLine
 10
566.5
 20
12.0
 30
0.0
 11
570.0
 21
12.0
 31
0.0
  0
LINE
  5
171
330
1F
100
AcDbEntity
  8
0
  6
Continuous
 62
     7
100
AcDbLine
 10
566.5
 20
0.0
 30
0.0
 11
570.0
 21
0.0
 31
0.0
  0
LINE
  5
172
330
1F
100
AcDbEntity
  8
0
  6
CENTERX2
 62
     7
100
AcDbLine
 10
554.0
 20
19.0
 30
0.0
 11
554.0
 21
0.0
 31
0.0
  0
LINE
  5
173
330
1F
100
AcDbEntity
  8
0
  6
CENTERX2
 62
     7
100
AcDbLine
 10
541.5
 20
0.0
 30
0.0
 11
541.5
 21
12.0
 31
0.0
  0
LINE
  5
174
330
1F
100
AcDbEntity
  8
0
  6
CENTERX2
 62
     7
100
AcDbLine
 10
566.5
 20
0.0
 30
0.0
 11
566.5
 21
12.0
 31
0.0
  0
LINE
  5
175
330
1F
100
AcDbEntity
  8
0
  6
CENTERX2
 62
     7
100
AcDbLine
 10
566.5
 20
12.0
 30
0.0
 11
541.5
 21
12.0
 31
0.0
  0
LINE
  5
176
330
1F
100
AcDbEntity
  8
0
  6
CENTERX2
 62
     7
100
AcDbLine
 10
570.0
 20
0.0
 30
0.0
 11
570.0
 21
12.0
 31
0.0
  0
LINE
  5
177
330
1F
100
AcDbEntity
  8
0
  6
Continuous
 62
     7
100
AcDbLine
 10
570.0
 20
0.0
 30
0.0
 11
595.0
 21
0.0
 31
0.0
  0
LINE
  5
178
330
1F
100
AcDbEntity
  8
0
  6
Continuous
 62
     7
100
AcDbLine
 10
595.0
 20
12.0
 30
0.0
 11
598.5
 21
12.0
 31
0.0
  0
LINE
  5
179
330
1F
100
AcDbEntity
  8
0
  6
Continuous
 62
     7
100
AcDbLine
 10
595.0
 20
0.0
 30
0.0
 11
598.5
 21
0.0
 31
0.0
  0
LINE
  5
17A
330
1F
100
AcDbEntity
  8
0
  6
CENTERX2
 62
     7
100
AcDbLine
 10
582.5
 20
19.0
 30
0.0
 11
582.5
 21
0.0
 31
0.0
  0
LINE
  5
17B
330
1F
100
AcDbEntity
  8
0
  6
CENTERX2
 62
     7
100
AcDbLine
 10
570.0
 20
0.0
 30
0.0
 11
570.0
 21
12.0
 31
0.0
  0
LINE
  5
17C
330
1F
100
AcDbEntity
  8
0
  6
CENTERX2
 62
     7
100
AcDbLine
 10
595.0
 20
0.0
 30
0.0
 11
595.0
 21
12.0
 31
0.0
  0
LINE
  5
17D
330
1F
100
AcDbEntity
  8
0
  6
CENTERX2
 62
     7
100
AcDbLine
 10
595.0
 20
12.0
 30
0.0
 11
570.0
 21
12.0
 31
0.0
  0
LINE
  5
17E
330
1F
100
AcDbEntity
  8
0
  6
CENTERX2
 62
     7
100
AcDbLine
 10
598.5
 20
0.0
 30
0.0
 11
598.5
 21
12.0
 31
0.0
  0
LINE
  5
17F
330
1F
100
AcDbEntity
  8
0
  6
Continuous
 62
     7
100
AcDbLine
 10
598.5
 20
0.0
 30
0.0
 11
623.5
 21
0.0
 31
0.0
  0
LINE
  5
180
330
1F
100
AcDbEntity
  8
0
  6
Continuous
 62
     7
100
AcDbLine
 10
623.5
 20
12.0
 30
0.0
 11
627.0
 21
12.0
 31
0.0
  0
LINE
  5
181
330
1F
100
AcDbEntity
  8
0
  6
Continuous
 62
     7
100
AcDbLine
 10
623.5
 20
0.0
 30
0.0
 11
627.0
 21
0.0
 31
0.0
  0
LINE
  5
182
330
1F
100
AcDbEntity
  8
0
  6
CENTERX2
 62
     7
100
AcDbLine
 10
611.0
 20
19.0
 30
0.0
 11
611.0
 21
0.0
 31
0.0
  0
LINE
  5
183
330
1F
100
AcDbEntity
  8
0
  6
CENTERX2
 62
     7
100
AcDbLine
 10
598.5
 20
0.0
 30
0.0
 11
598.5
 21
12.0
 31
0.0
  0
LINE
  5
184
330
1F
100
AcDbEntity
  8
0
  6
CENTERX2
 62
     7
100
AcDbLine
 10
623.5
 20
0.0
 30
0.0
 11
623.5
 21
12.0
 31
0.0
  0
LINE
  5
185
330
1F
100
AcDbEntity
  8
0
  6
CENTERX2
 62
     7
100
AcDbLine
 10
623.5
 20
12.0
 30
0.0
 11
598.5
 21
12.0
 31
0.0
  0
LINE
  5
186
330
1F
100
AcDbEntity
  8
0
  6
CENTERX2
 62
     7
100
AcDbLine
 10
627.0
 20
0.0
 30
0.0
 11
627.0
 21
12.0
 31
0.0
  0
LINE
  5
187
330
1F
100
AcDbEntity
  8
0
  6
Continuous
 62
     7
100
AcDbLine
 10
627.0
 20
0.0
 30
0.0
 11
652.0
 21
0.0
 31
0.0
  0
LINE
  5
188
330
1F
100
AcDbEntity
  8
0
  6
Continuous
 62
     7
100
AcDbLine
 10
652.0
 20
12.0
 30
0.0
 11
655.5
 21
12.0
 31
0.0
  0
LINE
  5
189
330
1F
100
AcDbEntity
  8
0
  6
Continuous
 62
     7
100
AcDbLine
 10
652.0
 20
0.0
 30
0.0
 11
655.5
 21
0.0
 31
0.0
  0
LINE
  5
18A
330
1F
100
AcDbEntity
  8
0
  6
CENTERX2
 62
     7
100
AcDbLine
 10
639.5
 20
19.0
 30
0.0
 11
639.5
 21
0.0
 31
0.0
  0
LINE
  5
18B
330
1F
100
AcDbEntity
  8
0
  6
CENTERX2
 62
     7
100
AcDbLine
 10
627.0
 20
0.0
 30
0.0
 11
627.0
 21
12.0
 31
0.0
  0
LINE
  5
18C
330
1F
100
AcDbEntity
  8
0
  6
CENTERX2
 62
     7
100
AcDbLine
 10
652.0
 20
0.0
 30
0.0
 11
652.0
 21
12.0
 31
0.0
  0
LINE
  5
18D
330
1F
100
AcDbEntity
  8
0
  6
CENTERX2
 62
     7
100
AcDbLine
 10
652.0
 20
12.0
 30
0.0
 11
627.0
 21
12.0
 31
0.0
  0
LINE
  5
18E
330
1F
100
AcDbEntity
  8
0
  6
CENTERX2
 62
     7
100
AcDbLine
 10
655.5
 20
0.0
 30
0.0
 11
655.5
 21
12.0
 31
0.0
  0
LINE
  5
18F
330
1F
100
AcDbEntity
  8
0
  6
Continuous
 62
     7
100
AcDbLine
 10
655.5
 20
0.0
 30
0.0
 11
680.5
 21
0.0
 31
0.0
  0
LINE
  5
190
330
1F
100
AcDbEntity
  8
0
  6
Continuous
 62
     7
100
AcDbLine
 10
680.5
 20
12.0
 30
0.0
 11
684.0
 21
12.0
 31
0.0
  0
LINE
  5
191
330
1F
100
AcDbEntity
  8
0
  6
Continuous
 62
     7
100
AcDbLine
 10
680.5
 20
0.0
 30
0.0
 11
684.0
 21
0.0
 31
0.0
  0
LINE
  5
192
330
1F
100
AcDbEntity
  8
0
  6
CENTERX2
 62
     7
100
AcDbLine
 10
668.0
 20
19.0
 30
0.0
 11
668.0
 21
0.0
 31
0.0
  0
LINE
  5
193
330
1F
100
AcDbEntity
  8
0
  6
CENTERX2
 62
     7
100
AcDbLine
 10
655.5
 20
0.0
 30
0.0
 11
655.5
 21
12.0
 31
0.0
  0
LINE
  5
194
330
1F
100
AcDbEntity
  8
0
  6
CENTERX2
 62
     7
100
AcDbLine
 10
680.5
 20
0.0
 30
0.0
 11
680.5
 21
12.0
 31
0.0
  0
LINE
  5
195
330
1F
100
AcDbEntity
  8
0
  6
CENTERX2
 62
     7
100
AcDbLine
 10
680.5
 20
12.0
 30
0.0
 11
655.5
 21
12.0
 31
0.0
  0
LINE
  5
196
330
1F
100
AcDbEntity
  8
0
  6
CENTERX2
 62
     7
100
AcDbLine
 10
684.0
 20
0.0
 30
0.0
 11
684.0
 21
12.0
 31
0.0
  0
LINE
  5
197
330
1F
100
AcDbEntity
  8
0
  6
Continuous
 62
     7
100
AcDbLine
 10
684.0
 20
0.0
 30
0.0
 11
709.0
 21
0.0
 31
0.0
  0
LINE
  5
198
330
1F
100
AcDbEntity
  8
0
  6
Continuous
 62
     7
100
AcDbLine
 10
709.0
 20
12.0
 30
0.0
 11
712.5
 21
12.0
 31
0.0
  0
LINE
  5
199
330
1F
100
AcDbEntity
  8
0
  6
Continuous
 62
     7
100
AcDbLine
 10
709.0
 20
0.0
 30
0.0
 11
712.5
 21
0.0
 31
0.0
  0
LINE
  5
19A
330
1F
100
AcDbEntity
  8
0
  6
CENTERX2
 62
     7
100
AcDbLine
 10
696.5
 20
19.0
 30
0.0
 11
696.5
 21
0.0
 31
0.0
  0
LINE
  5
19B
330
1F
100
AcDbEntity
  8
0
  6
CENTERX2
 62
     7
100
AcDbLine
 10
684.0
 20
0.0
 30
0.0
 11
684.0
 21
12.0
 31
0.0
  0
LINE
  5
19C
330
1F
100
AcDbEntity
  8
0
  6
CENTERX2
 62
     7
100
AcDbLine
 10
709.0
 20
0.0
 30
0.0
 11
709.0
 21
12.0
 31
0.0
  0
LINE
  5
19D
330
1F
100
AcDbEntity
  8
0
  6
CENTERX2
 62
     7
100
AcDbLine
 10
709.0
 20
12.0
 30
0.0
 11
684.0
 21
12.0
 31
0.0
  0
LINE
  5
19E
330
1F
100
AcDbEntity
  8
0
  6
CENTERX2
 62
     7
100
AcDbLine
 10
712.5
 20
0.0
 30
0.0
 11
712.5
 21
12.0
 31
0.0
  0
LINE
  5
19F
330
1F
100
AcDbEntity
  8
0
  6
Continuous
 62
     7
100
AcDbLine
 10
712.5
 20
0.0
 30
0.0
 11
737.5
 21
0.0
 31
0.0
  0
LINE
  5
1A0
330
1F
100
AcDbEntity
  8
0
  6
Continuous
 62
     7
100
AcDbLine
 10
737.5
 20
12.0
 30
0.0
 11
741.0
 21
12.0
 31
0.0
  0
LINE
  5
1A1
330
1F
100
AcDbEntity
  8
0
  6
Continuous
 62
     7
100
AcDbLine
 10
737.5
 20
0.0
 30
0.0
 11
741.0
 21
0.0
 31
0.0
  0
LINE
  5
1A2
330
1F
100
AcDbEntity
  8
0
  6
CENTERX2
 62
     7
100
AcDbLine
 10
725.0
 20
19.0
 30
0.0
 11
725.0
 21
0.0
 31
0.0
  0
LINE
  5
1A3
330
1F
100
AcDbEntity
  8
0
  6
CENTERX2
 62
     7
100
AcDbLine
 10
712.5
 20
0.0
 30
0.0
 11
712.5
 21
12.0
 31
0.0
  0
LINE
  5
1A4
330
1F
100
AcDbEntity
  8
0
  6
CENTERX2
 62
     7
100
AcDbLine
 10
737.5
 20
0.0
 30
0.0
 11
737.5
 21
12.0
 31
0.0
  0
LINE
  5
1A5
330
1F
100
AcDbEntity
  8
0
  6
CENTERX2
 62
     7
100
AcDbLine
 10
737.5
 20
12.0
 30
0.0
 11
712.5
 21
12.0
 31
0.0
  0
LINE
  5
1A6
330
1F
100
AcDbEntity
  8
0
  6
CENTERX2
 62
     7
100
AcDbLine
 10
741.0
 20
0.0
 30
0.0
 11
741.0
 21
12.0
 31
0.0
  0
LINE
  5
1A7
330
1F
100
AcDbEntity
  8
0
  6
Continuous
 62
     7
100
AcDbLine
 10
741.0
 20
0.0
 30
0.0
 11
766.0
 21
0.0
 31
0.0
  0
LINE
  5
1A8
330
1F
100
AcDbEntity
  8
0
  6
Continuous
 62
     7
100
AcDbLine
 10
766.0
 20
12.0
 30
0.0
 11
769.5
 21
12.0
 31
0.0
  0
LINE
  5
1A9
330
1F
100
AcDbEntity
  8
0
  6
Continuous
 62
     7
100
AcDbLine
 10
766.0
 20
0.0
 30
0.0
 11
769.5
 21
0.0
 31
0.0
  0
LINE
  5
1AA
330
1F
100
AcDbEntity
  8
0
  6
CENTERX2
 62
     7
100
AcDbLine
 10
753.5
 20
19.0
 30
0.0
 11
753.5
 21
0.0
 31
0.0
  0
LINE
  5
1AB
330
1F
100
AcDbEntity
  8
0
  6
CENTERX2
 62
     7
100
AcDbLine
 10
741.0
 20
0.0
 30
0.0
 11
741.0
 21
12.0
 31
0.0
  0
LINE
  5
1AC
330
1F
100
AcDbEntity
  8
0
  6
CENTERX2
 62
     7
100
AcDbLine
 10
766.0
 20
0.0
 30
0.0
 11
766.0
 21
12.0
 31
0.0
  0
LINE
  5
1AD
330
1F
100
AcDbEntity
  8
0
  6
CENTERX2
 62
     7
100
AcDbLine
 10
766.0
 20
12.0
 30
0.0
 11
741.0
 21
12.0
 31
0.0
  0
LINE
  5
1AE
330
1F
100
AcDbEntity
  8
0
  6
CENTERX2
 62
     7
100
AcDbLine
 10
769.5
 20
0.0
 30
0.0
 11
769.5
 21
12.0
 31
0.0
  0
LINE
  5
1AF
330
1F
100
AcDbEntity
  8
0
  6
Continuous
 62
     7
100
AcDbLine
 10
769.5
 20
0.0
 30
0.0
 11
794.5
 21
0.0
 31
0.0
  0
LINE
  5
1B0
330
1F
100
AcDbEntity
  8
0
  6
Continuous
 62
     7
100
AcDbLine
 10
794.5
 20
12.0
 30
0.0
 11
798.0
 21
12.0
 31
0.0
  0
LINE
  5
1B1
330
1F
100
AcDbEntity
  8
0
  6
Continuous
 62
     7
100
AcDbLine
 10
794.5
 20
0.0
 30
0.0
 11
798.0
 21
0.0
 31
0.0
  0
LINE
  5
1B2
330
1F
100
AcDbEntity
  8
0
  6
CENTERX2
 62
     7
100
AcDbLine
 10
782.0
 20
19.0
 30
0.0
 11
782.0
 21
0.0
 31
0.0
  0
LINE
  5
1B3
330
1F
100
AcDbEntity
  8
0
  6
CENTERX2
 62
     7
100
AcDbLine
 10
769.5
 20
0.0
 30
0.0
 11
769.5
 21
12.0
 31
0.0
  0
LINE
  5
1B4
330
1F
100
AcDbEntity
  8
0
  6
CENTERX2
 62
     7
100
AcDbLine
 10
794.5
 20
0.0
 30
0.0
 11
794.5
 21
12.0
 31
0.0
  0
LINE
  5
1B5
330
1F
100
AcDbEntity
  8
0
  6
CENTERX2
 62
     7
100
AcDbLine
 10
794.5
 20
12.0
 30
0.0
 11
769.5
 21
12.0
 31
0.0
  0
LINE
  5
1B6
330
1F
100
AcDbEntity
  8
0
  6
CENTERX2
 62
     7
100
AcDbLine
 10
798.0
 20
0.0
 30
0.0
 11
798.0
 21
12.0
 31
0.0
  0
LINE
  5
1B7
330
1F
100
AcDbEntity
  8
0
  6
Continuous
 62
     7
100
AcDbLine
 10
798.0
 20
0.0
 30
0.0
 11
823.0
 21
0.0
 31
0.0
  0
LINE
  5
1B8
330
1F
100
AcDbEntity
  8
0
  6
Continuous
 62
     7
100
AcDbLine
 10
823.0
 20
12.0
 30
0.0
 11
826.5
 21
12.0
 31
0.0
  0
LINE
  5
1B9
330
1F
100
AcDbEntity
  8
0
  6
Continuous
 62
     7
100
AcDbLine
 10
823.0
 20
0.0
 30
0.0
 11
826.5
 21
0.0
 31
0.0
  0
LINE
  5
1BA
330
1F
100
AcDbEntity
  8
0
  6
CENTERX2
 62
     7
100
AcDbLine
 10
810.5
 20
19.0
 30
0.0
 11
810.5
 21
0.0
 31
0.0
  0
LINE
  5
1BB
330
1F
100
AcDbEntity
  8
0
  6
CENTERX2
 62
     7
100
AcDbLine
 10
798.0
 20
0.0
 30
0.0
 11
798.0
 21
12.0
 31
0.0
  0
LINE
  5
1BC
330
1F
100
AcDbEntity
  8
0
  6
CENTERX2
 62
     7
100
AcDbLine
 10
823.0
 20
0.0
 30
0.0
 11
823.0
 21
12.0
 31
0.0
  0
LINE
  5
1BD
330
1F
100
AcDbEntity
  8
0
  6
CENTERX2
 62
     7
100
AcDbLine
 10
823.0
 20
12.0
 30
0.0
 11
798.0
 21
12.0
 31
0.0
  0
LINE
  5
1BE
330
1F
100
AcDbEntity
  8
0
  6
CENTERX2
 62
     7
100
AcDbLine
 10
826.5
 20
0.0
 30
0.0
 11
826.5
 21
12.0
 31
0.0
  0
LINE
  5
1BF
330
1F
100
AcDbEntity
  8
0
  6
Continuous
 62
     7
100
AcDbLine
 10
826.5
 20
0.0
 30
0.0
 11
851.5
 21
0.0
 31
0.0
  0
LINE
  5
1C0
330
1F
100
AcDbEntity
  8
0
  6
Continuous
 62
     7
100
AcDbLine
 10
851.5
 20
12.0
 30
0.0
 11
855.0
 21
12.0
 31
0.0
  0
LINE
  5
1C1
330
1F
100
AcDbEntity
  8
0
  6
Continuous
 62
     7
100
AcDbLine
 10
851.5
 20
0.0
 30
0.0
 11
855.0
 21
0.0
 31
0.0
  0
LINE
  5
1C2
330
1F
100
AcDbEntity
  8
0
  6
CENTERX2
 62
     7
100
AcDbLine
 10
839.0
 20
19.0
 30
0.0
 11
839.0
 21
0.0
 31
0.0
  0
LINE
  5
1C3
330
1F
100
AcDbEntity
  8
0
  6
CENTERX2
 62
     7
100
AcDbLine
 10
826.5
 20
0.0
 30
0.0
 11
826.5
 21
12.0
 31
0.0
  0
LINE
  5
1C4
330
1F
100
AcDbEntity
  8
0
  6
CENTERX2
 62
     7
100
AcDbLine
 10
851.5
 20
0.0
 30
0.0
 11
851.5
 21
12.0
 31
0.0
  0
LINE
  5
1C5
330
1F
100
AcDbEntity
  8
0
  6
CENTERX2
 62
     7
100
AcDbLine
 10
851.5
 20
12.0
 30
0.0
 11
826.5
 21
12.0
 31
0.0
  0
LINE
  5
1C6
330
1F
100
AcDbEntity
  8
0
  6
CENTERX2
 62
     7
100
AcDbLine
 10
855.0
 20
0.0
 30
0.0
 11
855.0
 21
12.0
 31
0.0
  0
LINE
  5
1C7
330
1F
100
AcDbEntity
  8
0
  6
Continuous
 62
     7
100
AcDbLine
 10
855.0
 20
0.0
 30
0.0
 11
880.0
 21
0.0
 31
0.0
  0
LINE
  5
1C8
330
1F
100
AcDbEntity
  8
0
  6
Continuous
 62
     7
100
AcDbLine
 10
880.0
 20
12.0
 30
0.0
 11
883.5
 21
12.0
 31
0.0
  0
LINE
  5
1C9
330
1F
100
AcDbEntity
  8
0
  6
Continuous
 62
     7
100
AcDbLine
 10
880.0
 20
0.0
 30
0.0
 11
883.5
 21
0.0
 31
0.0
  0
LINE
  5
1CA
330
1F
100
AcDbEntity
  8
0
  6
CENTERX2
 62
     7
100
AcDbLine
 10
867.5
 20
19.0
 30
0.0
 11
867.5
 21
0.0
 31
0.0
  0
LINE
  5
1CB
330
1F
100
AcDbEntity
  8
0
  6
CENTERX2
 62
     7
100
AcDbLine
 10
855.0
 20
0.0
 30
0.0
 11
855.0
 21
12.0
 31
0.0
  0
LINE
  5
1CC
330
1F
100
AcDbEntity
  8
0
  6
CENTERX2
 62
     7
100
AcDbLine
 10
880.0
 20
0.0
 30
0.0
 11
880.0
 21
12.0
 31
0.0
  0
LINE
  5
1CD
330
1F
100
AcDbEntity
  8
0
  6
CENTERX2
 62
     7
100
AcDbLine
 10
880.0
 20
12.0
 30
0.0
 11
855.0
 21
12.0
 31
0.0
  0
LINE
  5
1CE
330
1F
100
AcDbEntity
  8
0
  6
CENTERX2
 62
     7
100
AcDbLine
 10
883.5
 20
0.0
 30
0.0
 11
883.5
 21
12.0
 31
0.0
  0
LINE
  5
1CF
330
1F
100
AcDbEntity
  8
0
  6
Continuous
 62
     7
100
AcDbLine
 10
883.5
 20
0.0
 30
0.0
 11
908.5
 21
0.0
 31
0.0
  0
LINE
  5
1D0
330
1F
100
AcDbEntity
  8
0
  6
Continuous
 62
     7
100
AcDbLine
 10
908.5
 20
12.0
 30
0.0
 11
912.0
 21
12.0
 31
0.0
  0
LINE
  5
1D1
330
1F
100
AcDbEntity
  8
0
  6
Continuous
 62
     7
100
AcDbLine
 10
908.5
 20
0.0
 30
0.0
 11
912.0
 21
0.0
 31
0.0
  0
LINE
  5
1D2
330
1F
100
AcDbEntity
  8
0
  6
CENTERX2
 62
     7
100
AcDbLine
 10
896.0
 20
19.0
 30
0.0
 11
896.0
 21
0.0
 31
0.0
  0
LINE
  5
1D3
330
1F
100
AcDbEntity
  8
0
  6
CENTERX2
 62
     7
100
AcDbLine
 10
883.5
 20
0.0
 30
0.0
 11
883.5
 21
12.0
 31
0.0
  0
LINE
  5
1D4
330
1F
100
AcDbEntity
  8
0
  6
CENTERX2
 62
     7
100
AcDbLine
 10
908.5
 20
0.0
 30
0.0
 11
908.5
 21
12.0
 31
0.0
  0
LINE
  5
1D5
330
1F
100
AcDbEntity
  8
0
  6
CENTERX2
 62
     7
100
AcDbLine
 10
908.5
 20
12.0
 30
0.0
 11
883.5
 21
12.0
 31
0.0
  0
LINE
  5
1D6
330
1F
100
AcDbEntity
  8
0
  6
CENTERX2
 62
     7
100
AcDbLine
 10
912.0
 20
0.0
 30
0.0
 11
912.0
 21
12.0
 31
0.0
  0
LINE
  5
1D7
330
1F
100
AcDbEntity
  8
0
  6
Continuous
 62
     7
100
AcDbLine
 10
912.0
 20
0.0
 30
0.0
 11
937.0
 21
0.0
 31
0.0
  0
LINE
  5
1D8
330
1F
100
AcDbEntity
  8
0
  6
Continuous
 62
     7
100
AcDbLine
 10
937.0
 20
12.0
 30
0.0
 11
940.5
 21
12.0
 31
0.0
  0
LINE
  5
1D9
330
1F
100
AcDbEntity
  8
0
  6
Continuous
 62
     7
100
AcDbLine
 10
937.0
 20
0.0
 30
0.0
 11
940.5
 21
0.0
 31
0.0
  0
LINE
  5
1DA
330
1F
100
AcDbEntity
  8
0
  6
CENTERX2
 62
     7
100
AcDbLine
 10
924.5
 20
19.0
 30
0.0
 11
924.5
 21
0.0
 31
0.0
  0
LINE
  5
1DB
330
1F
100
AcDbEntity
  8
0
  6
CENTERX2
 62
     7
100
AcDbLine
 10
912.0
 20
0.0
 30
0.0
 11
912.0
 21
12.0
 31
0.0
  0
LINE
  5
1DC
330
1F
100
AcDbEntity
  8
0
  6
CENTERX2
 62
     7
100
AcDbLine
 10
937.0
 20
0.0
 30
0.0
 11
937.0
 21
12.0
 31
0.0
  0
LINE
  5
1DD
330
1F
100
AcDbEntity
  8
0
  6
CENTERX2
 62
     7
100
AcDbLine
 10
937.0
 20
12.0
 30
0.0
 11
912.0
 21
12.0
 31
0.0
  0
LINE
  5
1DE
330
1F
100
AcDbEntity
  8
0
  6
CENTERX2
 62
     7
100
AcDbLine
 10
940.5
 20
0.0
 30
0.0
 11
940.5
 21
12.0
 31
0.0
  0
LINE
  5
1DF
330
1F
100
AcDbEntity
  8
0
  6
Continuous
 62
     7
100
AcDbLine
 10
940.5
 20
0.0
 30
0.0
 11
965.5
 21
0.0
 31
0.0
  0
LINE
  5
1E0
330
1F
100
AcDbEntity
  8
0
  6
Continuous
 62
     7
100
AcDbLine
 10
965.5
 20
12.0
 30
0.0
 11
969.0
 21
12.0
 31
0.0
  0
LINE
  5
1E1
330
1F
100
AcDbEntity
  8
0
  6
Continuous
 62
     7
100
AcDbLine
 10
965.5
 20
0.0
 30
0.0
 11
969.0
 21
0.0
 31
0.0
  0
LINE
  5
1E2
330
1F
100
AcDbEntity
  8
0
  6
CENTERX2
 62
     7
100
AcDbLine
 10
953.0
 20
19.0
 30
0.0
 11
953.0
 21
0.0
 31
0.0
  0
LINE
  5
1E3
330
1F
100
AcDbEntity
  8
0
  6
CENTERX2
 62
     7
100
AcDbLine
 10
940.5
 20
0.0
 30
0.0
 11
940.5
 21
12.0
 31
0.0
  0
LINE
  5
1E4
330
1F
100
AcDbEntity
  8
0
  6
CENTERX2
 62
     7
100
AcDbLine
 10
965.5
 20
0.0
 30
0.0
 11
965.5
 21
12.0
 31
0.0
  0
LINE
  5
1E5
330
1F
100
AcDbEntity
  8
0
  6
CENTERX2
 62
     7
100
AcDbLine
 10
965.5
 20
12.0
 30
0.0
 11
940.5
 21
12.0
 31
0.0
  0
LINE
  5
1E6
330
1F
100
AcDbEntity
  8
0
  6
CENTERX2
 62
     7
100
AcDbLine
 10
969.0
 20
0.0
 30
0.0
 11
969.0
 21
12.0
 31
0.0
  0
LINE
  5
1E7
330
1F
100
AcDbEntity
  8
0
  6
Continuous
 62
     7
100
AcDbLine
 10
969.0
 20
0.0
 30
0.0
 11
994.0
 21
0.0
 31
0.0
  0
LINE
  5
1E8
330
1F
100
AcDbEntity
  8
0
  6
Continuous
 62
     7
100
AcDbLine
 10
994.0
 20
12.0
 30
0.0
 11
997.5
 21
12.0
 31
0.0
  0
LINE
  5
1E9
330
1F
100
AcDbEntity
  8
0
  6
Continuous
 62
     7
100
AcDbLine
 10
994.0
 20
0.0
 30
0.0
 11
997.5
 21
0.0
 31
0.0
  0
LINE
  5
1EA
330
1F
100
AcDbEntity
  8
0
  6
CENTERX2
 62
     7
100
AcDbLine
 10
981.5
 20
19.0
 30
0.0
 11
981.5
 21
0.0
 31
0.0
  0
LINE
  5
1EB
330
1F
100
AcDbEntity
  8
0
  6
CENTERX2
 62
     7
100
AcDbLine
 10
969.0
 20
0.0
 30
0.0
 11
969.0
 21
12.0
 31
0.0
  0
LINE
  5
1EC
330
1F
100
AcDbEntity
  8
0
  6
CENTERX2
 62
     7
100
AcDbLine
 10
994.0
 20
0.0
 30
0.0
 11
994.0
 21
12.0
 31
0.0
  0
LINE
  5
1ED
330
1F
100
AcDbEntity
  8
0
  6
CENTERX2
 62
     7
100
AcDbLine
 10
994.0
 20
12.0
 30
0.0
 11
969.0
 21
12.0
 31
0.0
  0
LINE
  5
1EE
330
1F
100
AcDbEntity
  8
0
  6
CENTERX2
 62
     7
100
AcDbLine
 10
997.5
 20
0.0
 30
0.0
 11
997.5
 21
12.0
 31
0.0
  0
LINE
  5
1EF
330
1F
100
AcDbEntity
  8
0
  6
Continuous
 62
     7
100
AcDbLine
 10
997.5
 20
0.0
 30
0.0
 11
1022.5
 21
0.0
 31
0.0
  0
LINE
  5
1F0
330
1F
100
AcDbEntity
  8
0
  6
Continuous
 62
     7
100
AcDbLine
 10
1022.5
 20
12.0
 30
0.0
 11
1026.0
 21
12.0
 31
0.0
  0
LINE
  5
1F1
330
1F
100
AcDbEntity
  8
0
  6
Continuous
 62
     7
100
AcDbLine
 10
1022.5
 20
0.0
 30
0.0
 11
1026.0
 21
0.0
 31
0.0
  0
LINE
  5
1F2
330
1F
100
AcDbEntity
  8
0
  6
CENTERX2
 62
     7
100
AcDbLine
 10
1010.0
 20
19.0
 30
0.0
 11
1010.0
 21
0.0
 31
0.0
  0
LINE
  5
1F3
330
1F
100
AcDbEntity
  8
0
  6
CENTERX2
 62
     7
100
AcDbLine
 10
997.5
 20
0.0
 30
0.0
 11
997.5
 21
12.0
 31
0.0
  0
LINE
  5
1F4
330
1F
100
AcDbEntity
  8
0
  6
CENTERX2
 62
     7
100
AcDbLine
 10
1022.5
 20
0.0
 30
0.0
 11
1022.5
 21
12.0
 31
0.0
  0
LINE
  5
1F5
330
1F
100
AcDbEntity
  8
0
  6
CENTERX2
 62
     7
100
AcDbLine
 10
1022.5
 20
12.0
 30
0.0
 11
997.5
 21
12.0
 31
0.0
  0
LINE
  5
1F6
330
1F
100
AcDbEntity
  8
0
  6
CENTERX2
 62
     7
100
AcDbLine
 10
1026.0
 20
0.0
 30
0.0
 11
1026.0
 21
12.0
 31
0.0
  0
LINE
  5
1F7
330
1F
100
AcDbEntity
  8
0
  6
Continuous
 62
     7
100
AcDbLine
 10
1026.0
 20
0.0
 30
0.0
 11
1051.0
 21
0.0
 31
0.0
  0
LINE
  5
1F8
330
1F
100
AcDbEntity
  8
0
  6
Continuous
 62
     7
100
AcDbLine
 10
1051.0
 20
12.0
 30
0.0
 11
1054.5
 21
12.0
 31
0.0
  0
LINE
  5
1F9
330
1F
100
AcDbEntity
  8
0
  6
Continuous
 62
     7
100
AcDbLine
 10
1051.0
 20
0.0
 30
0.0
 11
1054.5
 21
0.0
 31
0.0
  0
LINE
  5
1FA
330
1F
100
AcDbEntity
  8
0
  6
CENTERX2
 62
     7
100
AcDbLine
 10
1038.5
 20
19.0
 30
0.0
 11
1038.5
 21
0.0
 31
0.0
  0
LINE
  5
1FB
330
1F
100
AcDbEntity
  8
0
  6
CENTERX2
 62
     7
100
AcDbLine
 10
1026.0
 20
0.0
 30
0.0
 11
1026.0
 21
12.0
 31
0.0
  0
LINE
  5
1FC
330
1F
100
AcDbEntity
  8
0
  6
CENTERX2
 62
     7
100
AcDbLine
 10
1051.0
 20
0.0
 30
0.0
 11
1051.0
 21
12.0
 31
0.0
  0
LINE
  5
1FD
330
1F
100
AcDbEntity
  8
0
  6
CENTERX2
 62
     7
100
AcDbLine
 10
1051.0
 20
12.0
 30
0.0
 11
1026.0
 21
12.0
 31
0.0
  0
LINE
  5
1FE
330
1F
100
AcDbEntity
  8
0
  6
CENTERX2
 62
     7
100
AcDbLine
 10
1054.5
 20
0.0
 30
0.0
 11
1054.5
 21
12.0
 31
0.0
  0
LINE
  5
1FF
330
1F
100
AcDbEntity
  8
0
  6
Continuous
 62
     7
100
AcDbLine
 10
1054.5
 20
0.0
 30
0.0
 11
1079.5
 21
0.0
 31
0.0
  0
LINE
  5
200
330
1F
100
AcDbEntity
  8
0
  6
Continuous
 62
     7
100
AcDbLine
 10
1079.5
 20
12.0
 30
0.0
 11
1083.0
 21
12.0
 31
0.0
  0
LINE
  5
201
330
1F
100
AcDbEntity
  8
0
  6
Continuous
 62
     7
100
AcDbLine
 10
1079.5
 20
0.0
 30
0.0
 11
1083.0
 21
0.0
 31
0.0
  0
LINE
  5
202
330
1F
100
AcDbEntity
  8
0
  6
CENTERX2
 62
     7
100
AcDbLine
 10
1067.0
 20
19.0
 30
0.0
 11
1067.0
 21
0.0
 31
0.0
  0
LINE
  5
203
330
1F
100
AcDbEntity
  8
0
  6
CENTERX2
 62
     7
100
AcDbLine
 10
1054.5
 20
0.0
 30
0.0
 11
1054.5
 21
12.0
 31
0.0
  0
LINE
  5
204
330
1F
100
AcDbEntity
  8
0
  6
CENTERX2
 62
     7
100
AcDbLine
 10
1079.5
 20
0.0
 30
0.0
 11
1079.5
 21
12.0
 31
0.0
  0
LINE
  5
205
330
1F
100
AcDbEntity
  8
0
  6
CENTERX2
 62
     7
100
AcDbLine
 10
1079.5
 20
12.0
 30
0.0
 11
1054.5
 21
12.0
 31
0.0
  0
LINE
  5
206
330
1F
100
AcDbEntity
  8
0
  6
CENTERX2
 62
     7
100
AcDbLine
 10
1083.0
 20
0.0
 30
0.0
 11
1083.0
 21
12.0
 31
0.0
  0
LINE
  5
207
330
1F
100
AcDbEntity
  8
0
  6
Continuous
 62
     7
100
AcDbLine
 10
1083.0
 20
0.0
 30
0.0
 11
1108.0
 21
0.0
 31
0.0
  0
LINE
  5
208
330
1F
100
AcDbEntity
  8
0
  6
Continuous
 62
     7
100
AcDbLine
 10
1108.0
 20
12.0
 30
0.0
 11
1111.5
 21
12.0
 31
0.0
  0
LINE
  5
209
330
1F
100
AcDbEntity
  8
0
  6
Continuous
 62
     7
100
AcDbLine
 10
1108.0
 20
0.0
 30
0.0
 11
1111.5
 21
0.0
 31
0.0
  0
LINE
  5
20A
330
1F
100
AcDbEntity
  8
0
  6
CENTERX2
 62
     7
100
AcDbLine
 10
1095.5
 20
19.0
 30
0.0
 11
1095.5
 21
0.0
 31
0.0
  0
LINE
  5
20B
330
1F
100
AcDbEntity
  8
0
  6
CENTERX2
 62
     7
100
AcDbLine
 10
1083.0
 20
0.0
 30
0.0
 11
1083.0
 21
12.0
 31
0.0
  0
LINE
  5
20C
330
1F
100
AcDbEntity
  8
0
  6
CENTERX2
 62
     7
100
AcDbLine
 10
1108.0
 20
0.0
 30
0.0
 11
1108.0
 21
12.0
 31
0.0
  0
LINE
  5
20D
330
1F
100
AcDbEntity
  8
0
  6
CENTERX2
 62
     7
100
AcDbLine
 10
1108.0
 20
12.0
 30
0.0
 11
1083.0
 21
12.0
 31
0.0
  0
LINE
  5
20E
330
1F
100
AcDbEntity
  8
0
  6
CENTERX2
 62
     7
100
AcDbLine
 10
1111.5
 20
0.0
 30
0.0
 11
1111.5
 21
12.0
 31
0.0
  0
LINE
  5
20F
330
1F
100
AcDbEntity
  8
0
  6
Continuous
 62
     7
100
AcDbLine
 10
1111.5
 20
0.0
 30
0.0
 11
1136.5
 21
0.0
 31
0.0
  0
LINE
  5
210
330
1F
100
AcDbEntity
  8
0
  6
Continuous
 62
     7
100
AcDbLine
 10
1136.5
 20
12.0
 30
0.0
 11
1140.0
 21
12.0
 31
0.0
  0
LINE
  5
211
330
1F
100
AcDbEntity
  8
0
  6
Continuous
 62
     7
100
AcDbLine
 10
1136.5
 20
0.0
 30
0.0
 11
1140.0
 21
0.0
 31
0.0
  0
LINE
  5
212
330
1F
100
AcDbEntity
  8
0
  6
CENTERX2
 62
     7
100
AcDbLine
 10
1124.0
 20
19.0
 30
0.0
 11
1124.0
 21
0.0
 31
0.0
  0
LINE
  5
213
330
1F
100
AcDbEntity
  8
0
  6
CENTERX2
 62
     7
100
AcDbLine
 10
1111.5
 20
0.0
 30
0.0
 11
1111.5
 21
12.0
 31
0.0
  0
LINE
  5
214
330
1F
100
AcDbEntity
  8
0
  6
CENTERX2
 62
     7
100
AcDbLine
 10
1136.5
 20
0.0
 30
0.0
 11
1136.5
 21
12.0
 31
0.0
  0
LINE
  5
215
330
1F
100
AcDbEntity
  8
0
  6
CENTERX2
 62
     7
100
AcDbLine
 10
1136.5
 20
12.0
 30
0.0
 11
1111.5
 21
12.0
 31
0.0
  0
LINE
  5
216
330
1F
100
AcDbEntity
  8
0
  6
CENTERX2
 62
     7
100
AcDbLine
 10
1140.0
 20
0.0
 30
0.0
 11
1140.0
 21
12.0
 31
0.0
  0
LINE
  5
217
330
1F
100
AcDbEntity
  8
0
  6
Continuous
 62
     7
100
AcDbLine
 10
1140.0
 20
0.0
 30
0.0
 11
1165.0
 21
0.0
 31
0.0
  0
LINE
  5
218
330
1F
100
AcDbEntity
  8
0
  6
Continuous
 62
     7
100
AcDbLine
 10
1165.0
 20
12.0
 30
0.0
 11
1168.5
 21
12.0
 31
0.0
  0
LINE
  5
219
330
1F
100
AcDbEntity
  8
0
  6
Continuous
 62
     7
100
AcDbLine
 10
1165.0
 20
0.0
 30
0.0
 11
1168.5
 21
0.0
 31
0.0
  0
LINE
  5
21A
330
1F
100
AcDbEntity
  8
0
  6
CENTERX2
 62
     7
100
AcDbLine
 10
1152.5
 20
19.0
 30
0.0
 11
1152.5
 21
0.0
 31
0.0
  0
LINE
  5
21B
330
1F
100
AcDbEntity
  8
0
  6
CENTERX2
 62
     7
100
AcDbLine
 10
1140.0
 20
0.0
 30
0.0
 11
1140.0
 21
12.0
 31
0.0
  0
LINE
  5
21C
330
1F
100
AcDbEntity
  8
0
  6
CENTERX2
 62
     7
100
AcDbLine
 10
1165.0
 20
0.0
 30
0.0
 11
1165.0
 21
12.0
 31
0.0
  0
LINE
  5
21D
330
1F
100
AcDbEntity
  8
0
  6
CENTERX2
 62
     7
100
AcDbLine
 10
1165.0
 20
12.0
 30
0.0
 11
1140.0
 21
12.0
 31
0.0
  0
LINE
  5
21E
330
1F
100
AcDbEntity
  8
0
  6
CENTERX2
 62
     7
100
AcDbLine
 10
1168.5
 20
0.0
 30
0.0
 11
1168.5
 21
12.0
 31
0.0
  0
LINE
  5
21F
330
1F
100
AcDbEntity
  8
0
  6
Continuous
 62
     7
100
AcDbLine
 10
1168.5
 20
0.0
 30
0.0
 11
1193.5
 21
0.0
 31
0.0
  0
LINE
  5
220
330
1F
100
AcDbEntity
  8
0
  6
Continuous
 62
     7
100
AcDbLine
 10
1193.5
 20
12.0
 30
0.0
 11
1197.0
 21
12.0
 31
0.0
  0
LINE
  5
221
330
1F
100
AcDbEntity
  8
0
  6
Continuous
 62
     7
100
AcDbLine
 10
1193.5
 20
0.0
 30
0.0
 11
1197.0
 21
0.0
 31
0.0
  0
LINE
  5
222
330
1F
100
AcDbEntity
  8
0
  6
CENTERX2
 62
     7
100
AcDbLine
 10
1181.0
 20
19.0
 30
0.0
 11
1181.0
 21
0.0
 31
0.0
  0
LINE
  5
223
330
1F
100
AcDbEntity
  8
0
  6
CENTERX2
 62
     7
100
AcDbLine
 10
1168.5
 20
0.0
 30
0.0
 11
1168.5
 21
12.0
 31
0.0
  0
LINE
  5
224
330
1F
100
AcDbEntity
  8
0
  6
CENTERX2
 62
     7
100
AcDbLine
 10
1193.5
 20
0.0
 30
0.0
 11
1193.5
 21
12.0
 31
0.0
  0
LINE
  5
225
330
1F
100
AcDbEntity
  8
0
  6
CENTERX2
 62
     7
100
AcDbLine
 10
1193.5
 20
12.0
 30
0.0
 11
1168.5
 21
12.0
 31
0.0
  0
LINE
  5
226
330
1F
100
AcDbEntity
  8
0
  6
CENTERX2
 62
     7
100
AcDbLine
 10
1197.0
 20
0.0
 30
0.0
 11
1197.0
 21
12.0
 31
0.0
  0
LINE
  5
227
330
1F
100
AcDbEntity
  8
0
  6
Continuous
 62
     7
100
AcDbLine
 10
1197.0
 20
0.0
 30
0.0
 11
1222.0
 21
0.0
 31
0.0
  0
LINE
  5
228
330
1F
100
AcDbEntity
  8
0
  6
Continuous
 62
     7
100
AcDbLine
 10
1222.0
 20
12.0
 30
0.0
 11
1225.5
 21
12.0
 31
0.0
  0
LINE
  5
229
330
1F
100
AcDbEntity
  8
0
  6
Continuous
 62
     7
100
AcDbLine
 10
1222.0
 20
0.0
 30
0.0
 11
1225.5
 21
0.0
 31
0.0
  0
LINE
  5
22A
330
1F
100
AcDbEntity
  8
0
  6
CENTERX2
 62
     7
100
AcDbLine
 10
1209.5
 20
19.0
 30
0.0
 11
1209.5
 21
0.0
 31
0.0
  0
LINE
  5
22B
330
1F
100
AcDbEntity
  8
0
  6
CENTERX2
 62
     7
100
AcDbLine
 10
1197.0
 20
0.0
 30
0.0
 11
1197.0
 21
12.0
 31
0.0
  0
LINE
  5
22C
330
1F
100
AcDbEntity
  8
0
  6
CENTERX2
 62
     7
100
AcDbLine
 10
1222.0
 20
0.0
 30
0.0
 11
1222.0
 21
12.0
 31
0.0
  0
LINE
  5
22D
330
1F
100
AcDbEntity
  8
0
  6
CENTERX2
 62
     7
100
AcDbLine
 10
1222.0
 20
12.0
 30
0.0
 11
1197.0
 21
12.0
 31
0.0
  0
LINE
  5
22E
330
1F
100
AcDbEntity
  8
0
  6
CENTERX2
 62
     7
100
AcDbLine
 10
1225.5
 20
0.0
 30
0.0
 11
1225.5
 21
12.0
 31
0.0
  0
LINE
  5
22F
330
1F
100
AcDbEntity
  8
0
  6
Continuous
 62
     7
100
AcDbLine
 10
1225.5
 20
0.0
 30
0.0
 11
1250.5
 21
0.0
 31
0.0
  0
LINE
  5
230
330
1F
100
AcDbEntity
  8
0
  6
Continuous
 62
     7
100
AcDbLine
 10
1250.5
 20
12.0
 30
0.0
 11
1254.0
 21
12.0
 31
0.0
  0
LINE
  5
231
330
1F
100
AcDbEntity
  8
0
  6
Continuous
 62
     7
100
AcDbLine
 10
1250.5
 20
0.0
 30
0.0
 11
1254.0
 21
0.0
 31
0.0
  0
LINE
  5
232
330
1F
100
AcDbEntity
  8
0
  6
CENTERX2
 62
     7
100
AcDbLine
 10
1238.0
 20
19.0
 30
0.0
 11
1238.0
 21
0.0
 31
0.0
  0
LINE
  5
233
330
1F
100
AcDbEntity
  8
0
  6
CENTERX2
 62
     7
100
AcDbLine
 10
1225.5
 20
0.0
 30
0.0
 11
1225.5
 21
12.0
 31
0.0
  0
LINE
  5
234
330
1F
100
AcDbEntity
  8
0
  6
CENTERX2
 62
     7
100
AcDbLine
 10
1250.5
 20
0.0
 30
0.0
 11
1250.5
 21
12.0
 31
0.0
  0
LINE
  5
235
330
1F
100
AcDbEntity
  8
0
  6
CENTERX2
 62
     7
100
AcDbLine
 10
1250.5
 20
12.0
 30
0.0
 11
1225.5
 21
12.0
 31
0.0
  0
LINE
  5
236
330
1F
100
AcDbEntity
  8
0
  6
CENTERX2
 62
     7
100
AcDbLine
 10
1254.0
 20
0.0
 30
0.0
 11
1254.0
 21
12.0
 31
0.0
  0
LINE
  5
237
330
1F
100
AcDbEntity
  8
0
  6
Continuous
 62
     7
100
AcDbLine
 10
1254.0
 20
0.0
 30
0.0
 11
1279.0
 21
0.0
 31
0.0
  0
LINE
  5
238
330
1F
100
AcDbEntity
  8
0
  6
Continuous
 62
     7
100
AcDbLine
 10
1279.0
 20
12.0
 30
0.0
 11
1282.5
 21
12.0
 31
0.0
  0
LINE
  5
239
330
1F
100
AcDbEntity
  8
0
  6
Continuous
 62
     7
100
AcDbLine
 10
1279.0
 20
0.0
 30
0.0
 11
1282.5
 21
0.0
 31
0.0
  0
LINE
  5
23A
330
1F
100
AcDbEntity
  8
0
  6
CENTERX2
 62
     7
100
AcDbLine
 10
1266.5
 20
19.0
 30
0.0
 11
1266.5
 21
0.0
 31
0.0
  0
LINE
  5
23B
330
1F
100
AcDbEntity
  8
0
  6
CENTERX2
 62
     7
100
AcDbLine
 10
1254.0
 20
0.0
 30
0.0
 11
1254.0
 21
12.0
 31
0.0
  0
LINE
  5
23C
330
1F
100
AcDbEntity
  8
0
  6
CENTERX2
 62
     7
100
AcDbLine
 10
1279.0
 20
0.0
 30
0.0
 11
1279.0
 21
12.0
 31
0.0
  0
LINE
  5
23D
330
1F
100
AcDbEntity
  8
0
  6
CENTERX2
 62
     7
100
AcDbLine
 10
1279.0
 20
12.0
 30
0.0
 11
1254.0
 21
12.0
 31
0.0
  0
LINE
  5
23E
330
1F
100
AcDbEntity
  8
0
  6
CENTERX2
 62
     7
100
AcDbLine
 10
1282.5
 20
0.0
 30
0.0
 11
1282.5
 21
12.0
 31
0.0
  0
LINE
  5
23F
330
1F
100
AcDbEntity
  8
0
  6
Continuous
 62
     7
100
AcDbLine
 10
1282.5
 20
0.0
 30
0.0
 11
1307.5
 21
0.0
 31
0.0
  0
LINE
  5
240
330
1F
100
AcDbEntity
  8
0
  6
Continuous
 62
     7
100
AcDbLine
 10
1307.5
 20
12.0
 30
0.0
 11
1311.0
 21
12.0
 31
0.0
  0
LINE
  5
241
330
1F
100
AcDbEntity
  8
0
  6
Continuous
 62
     7
100
AcDbLine
 10
1307.5
 20
0.0
 30
0.0
 11
1311.0
 21
0.0
 31
0.0
  0
LINE
  5
242
330
1F
100
AcDbEntity
  8
0
  6
CENTERX2
 62
     7
100
AcDbLine
 10
1295.0
 20
19.0
 30
0.0
 11
1295.0
 21
0.0
 31
0.0
  0
LINE
  5
243
330
1F
100
AcDbEntity
  8
0
  6
CENTERX2
 62
     7
100
AcDbLine
 10
1282.5
 20
0.0
 30
0.0
 11
1282.5
 21
12.0
 31
0.0
  0
LINE
  5
244
330
1F
100
AcDbEntity
  8
0
  6
CENTERX2
 62
     7
100
AcDbLine
 10
1307.5
 20
0.0
 30
0.0
 11
1307.5
 21
12.0
 31
0.0
  0
LINE
  5
245
330
1F
100
AcDbEntity
  8
0
  6
CENTERX2
 62
     7
100
AcDbLine
 10
1307.5
 20
12.0
 30
0.0
 11
1282.5
 21
12.0
 31
0.0
  0
LINE
  5
246
330
1F
100
AcDbEntity
  8
0
  6
CENTERX2
 62
     7
100
AcDbLine
 10
1311.0
 20
0.0
 30
0.0
 11
1311.0
 21
12.0
 31
0.0
  0
LINE
  5
247
330
1F
100
AcDbEntity
  8
0
  6
Continuous
 62
     7
100
AcDbLine
 10
1311.0
 20
0.0
 30
0.0
 11
1336.0
 21
0.0
 31
0.0
  0
LINE
  5
248
330
1F
100
AcDbEntity
  8
0
  6
Continuous
 62
     7
100
AcDbLine
 10
1336.0
 20
12.0
 30
0.0
 11
1339.5
 21
12.0
 31
0.0
  0
LINE
  5
249
330
1F
100
AcDbEntity
  8
0
  6
Continuous
 62
     7
100
AcDbLine
 10
1336.0
 20
0.0
 30
0.0
 11
1339.5
 21
0.0
 31
0.0
  0
LINE
  5
24A
330
1F
100
AcDbEntity
  8
0
  6
CENTERX2
 62
     7
100
AcDbLine
 10
1323.5
 20
19.0
 30
0.0
 11
1323.5
 21
0.0
 31
0.0
  0
LINE
  5
24B
330
1F
100
AcDbEntity
  8
0
  6
CENTERX2
 62
     7
100
AcDbLine
 10
1311.0
 20
0.0
 30
0.0
 11
1311.0
 21
12.0
 31
0.0
  0
LINE
  5
24C
330
1F
100
AcDbEntity
  8
0
  6
CENTERX2
 62
     7
100
AcDbLine
 10
1336.0
 20
0.0
 30
0.0
 11
1336.0
 21
12.0
 31
0.0
  0
LINE
  5
24D
330
1F
100
AcDbEntity
  8
0
  6
CENTERX2
 62
     7
100
AcDbLine
 10
1336.0
 20
12.0
 30
0.0
 11
1311.0
 21
12.0
 31
0.0
  0
LINE
  5
24E
330
1F
100
AcDbEntity
  8
0
  6
CENTERX2
 62
     7
100
AcDbLine
 10
1339.5
 20
0.0
 30
0.0
 11
1339.5
 21
12.0
 31
0.0
  0
LINE
  5
24F
330
1F
100
AcDbEntity
  8
0
  6
Continuous
 62
     7
100
AcDbLine
 10
1339.5
 20
0.0
 30
0.0
 11
1364.5
 21
0.0
 31
0.0
  0
LINE
  5
250
330
1F
100
AcDbEntity
  8
0
  6
Continuous
 62
     7
100
AcDbLine
 10
1364.5
 20
12.0
 30
0.0
 11
1368.0
 21
12.0
 31
0.0
  0
LINE
  5
251
330
1F
100
AcDbEntity
  8
0
  6
Continuous
 62
     7
100
AcDbLine
 10
1364.5
 20
0.0
 30
0.0
 11
1368.0
 21
0.0
 31
0.0
  0
LINE
  5
252
330
1F
100
AcDbEntity
  8
0
  6
CENTERX2
 62
     7
100
AcDbLine
 10
1352.0
 20
19.0
 30
0.0
 11
1352.0
 21
0.0
 31
0.0
  0
LINE
  5
253
330
1F
100
AcDbEntity
  8
0
  6
CENTERX2
 62
     7
100
AcDbLine
 10
1339.5
 20
0.0
 30
0.0
 11
1339.5
 21
12.0
 31
0.0
  0
LINE
  5
254
330
1F
100
AcDbEntity
  8
0
  6
CENTERX2
 62
     7
100
AcDbLine
 10
1364.5
 20
0.0
 30
0.0
 11
1364.5
 21
12.0
 31
0.0
  0
LINE
  5
255
330
1F
100
AcDbEntity
  8
0
  6
CENTERX2
 62
     7
100
AcDbLine
 10
1364.5
 20
12.0
 30
0.0
 11
1339.5
 21
12.0
 31
0.0
  0
LINE
  5
256
330
1F
100
AcDbEntity
  8
0
  6
CENTERX2
 62
     7
100
AcDbLine
 10
1368.0
 20
0.0
 30
0.0
 11
1368.0
 21
12.0
 31
0.0
  0
LINE
  5
257
330
1F
100
AcDbEntity
  8
0
  6
Continuous
 62
     7
100
AcDbLine
 10
1368.0
 20
0.0
 30
0.0
 11
1393.0
 21
0.0
 31
0.0
  0
LINE
  5
258
330
1F
100
AcDbEntity
  8
0
  6
Continuous
 62
     7
100
AcDbLine
 10
1393.0
 20
12.0
 30
0.0
 11
1396.5
 21
12.0
 31
0.0
  0
LINE
  5
259
330
1F
100
AcDbEntity
  8
0
  6
Continuous
 62
     7
100
AcDbLine
 10
1393.0
 20
0.0
 30
0.0
 11
1396.5
 21
0.0
 31
0.0
  0
LINE
  5
25A
330
1F
100
AcDbEntity
  8
0
  6
CENTERX2
 62
     7
100
AcDbLine
 10
1380.5
 20
19.0
 30
0.0
 11
1380.5
 21
0.0
 31
0.0
  0
LINE
  5
25B
330
1F
100
AcDbEntity
  8
0
  6
CENTERX2
 62
     7
100
AcDbLine
 10
1368.0
 20
0.0
 30
0.0
 11
1368.0
 21
12.0
 31
0.0
  0
LINE
  5
25C
330
1F
100
AcDbEntity
  8
0
  6
CENTERX2
 62
     7
100
AcDbLine
 10
1393.0
 20
0.0
 30
0.0
 11
1393.0
 21
12.0
 31
0.0
  0
LINE
  5
25D
330
1F
100
AcDbEntity
  8
0
  6
CENTERX2
 62
     7
100
AcDbLine
 10
1393.0
 20
12.0
 30
0.0
 11
1368.0
 21
12.0
 31
0.0
  0
LINE
  5
25E
330
1F
100
AcDbEntity
  8
0
  6
CENTERX2
 62
     7
100
AcDbLine
 10
1396.5
 20
0.0
 30
0.0
 11
1396.5
 21
12.0
 31
0.0
  0
LINE
  5
25F
330
1F
100
AcDbEntity
  8
0
  6
Continuous
 62
     7
100
AcDbLine
 10
1396.5
 20
0.0
 30
0.0
 11
1421.5
 21
0.0
 31
0.0
  0
LINE
  5
260
330
1F
100
AcDbEntity
  8
0
  6
Continuous
 62
     7
100
AcDbLine
 10
1421.5
 20
12.0
 30
0.0
 11
1425.0
 21
12.0
 31
0.0
  0
LINE
  5
261
330
1F
100
AcDbEntity
  8
0
  6
Continuous
 62
     7
100
AcDbLine
 10
1421.5
 20
0.0
 30
0.0
 11
1425.0
 21
0.0
 31
0.0
  0
LINE
  5
262
330
1F
100
AcDbEntity
  8
0
  6
CENTERX2
 62
     7
100
AcDbLine
 10
1409.0
 20
19.0
 30
0.0
 11
1409.0
 21
0.0
 31
0.0
  0
LINE
  5
263
330
1F
100
AcDbEntity
  8
0
  6
CENTERX2
 62
     7
100
AcDbLine
 10
1396.5
 20
0.0
 30
0.0
 11
1396.5
 21
12.0
 31
0.0
  0
LINE
  5
264
330
1F
100
AcDbEntity
  8
0
  6
CENTERX2
 62
     7
100
AcDbLine
 10
1421.5
 20
0.0
 30
0.0
 11
1421.5
 21
12.0
 31
0.0
  0
LINE
  5
265
330
1F
100
AcDbEntity
  8
0
  6
CENTERX2
 62
     7
100
AcDbLine
 10
1421.5
 20
12.0
 30
0.0
 11
1396.5
 21
12.0
 31
0.0
  0
LINE
  5
266
330
1F
100
AcDbEntity
  8
0
  6
CENTERX2
 62
     7
100
AcDbLine
 10
1425.0
 20
0.0
 30
0.0
 11
1425.0
 21
12.0
 31
0.0
  0
LINE
  5
267
330
1F
100
AcDbEntity
  8
0
  6
Continuous
 62
     7
100
AcDbLine
 10
1425.0
 20
0.0
 30
0.0
 11
1450.0
 21
0.0
 31
0.0
  0
LINE
  5
268
330
1F
100
AcDbEntity
  8
0
  6
Continuous
 62
     7
100
AcDbLine
 10
1450.0
 20
12.0
 30
0.0
 11
1453.5
 21
12.0
 31
0.0
  0
LINE
  5
269
330
1F
100
AcDbEntity
  8
0
  6
Continuous
 62
     7
100
AcDbLine
 10
1450.0
 20
0.0
 30
0.0
 11
1453.5
 21
0.0
 31
0.0
  0
LINE
  5
26A
330
1F
100
AcDbEntity
  8
0
  6
CENTERX2
 62
     7
100
AcDbLine
 10
1437.5
 20
19.0
 30
0.0
 11
1437.5
 21
0.0
 31
0.0
  0
LINE
  5
26B
330
1F
100
AcDbEntity
  8
0
  6
CENTERX2
 62
     7
100
AcDbLine
 10
1425.0
 20
0.0
 30
0.0
 11
1425.0
 21
12.0
 31
0.0
  0
LINE
  5
26C
330
1F
100
AcDbEntity
  8
0
  6
CENTERX2
 62
     7
100
AcDbLine
 10
1450.0
 20
0.0
 30
0.0
 11
1450.0
 21
12.0
 31
0.0
  0
LINE
  5
26D
330
1F
100
AcDbEntity
  8
0
  6
CENTERX2
 62
     7
100
AcDbLine
 10
1450.0
 20
12.0
 30
0.0
 11
1425.0
 21
12.0
 31
0.0
  0
LINE
  5
26E
330
1F
100
AcDbEntity
  8
0
  6
CENTERX2
 62
     7
100
AcDbLine
 10
1453.5
 20
0.0
 30
0.0
 11
1453.5
 21
12.0
 31
0.0
  0
LINE
  5
26F
330
1F
100
AcDbEntity
  8
0
  6
Continuous
 62
     7
100
AcDbLine
 10
1453.5
 20
0.0
 30
0.0
 11
1478.5
 21
0.0
 31
0.0
  0
LINE
  5
270
330
1F
100
AcDbEntity
  8
0
  6
Continuous
 62
     7
100
AcDbLine
 10
1478.5
 20
12.0
 30
0.0
 11
1482.0
 21
12.0
 31
0.0
  0
LINE
  5
271
330
1F
100
AcDbEntity
  8
0
  6
Continuous
 62
     7
100
AcDbLine
 10
1478.5
 20
0.0
 30
0.0
 11
1482.0
 21
0.0
 31
0.0
  0
LINE
  5
272
330
1F
100
AcDbEntity
  8
0
  6
CENTERX2
 62
     7
100
AcDbLine
 10
1466.0
 20
19.0
 30
0.0
 11
1466.0
 21
0.0
 31
0.0
  0
LINE
  5
273
330
1F
100
AcDbEntity
  8
0
  6
CENTERX2
 62
     7
100
AcDbLine
 10
1453.5
 20
0.0
 30
0.0
 11
1453.5
 21
12.0
 31
0.0
  0
LINE
  5
274
330
1F
100
AcDbEntity
  8
0
  6
CENTERX2
 62
     7
100
AcDbLine
 10
1478.5
 20
0.0
 30
0.0
 11
1478.5
 21
12.0
 31
0.0
  0
LINE
  5
275
330
1F
100
AcDbEntity
  8
0
  6
CENTERX2
 62
     7
100
AcDbLine
 10
1478.5
 20
12.0
 30
0.0
 11
1453.5
 21
12.0
 31
0.0
  0
LINE
  5
276
330
1F
100
AcDbEntity
  8
0
  6
CENTERX2
 62
     7
100
AcDbLine
 10
1482.0
 20
0.0
 30
0.0
 11
1482.0
 21
12.0
 31
0.0
  0
LINE
  5
277
330
1F
100
AcDbEntity
  8
0
  6
Continuous
 62
     7
100
AcDbLine
 10
1482.0
 20
0.0
 30
0.0
 11
1507.0
 21
0.0
 31
0.0
  0
LINE
  5
278
330
1F
100
AcDbEntity
  8
0
  6
Continuous
 62
     7
100
AcDbLine
 10
1507.0
 20
12.0
 30
0.0
 11
1510.5
 21
12.0
 31
0.0
  0
LINE
  5
279
330
1F
100
AcDbEntity
  8
0
  6
Continuous
 62
     7
100
AcDbLine
 10
1507.0
 20
0.0
 30
0.0
 11
1510.5
 21
0.0
 31
0.0
  0
LINE
  5
27A
330
1F
100
AcDbEntity
  8
0
  6
CENTERX2
 62
     7
100
AcDbLine
 10
1494.5
 20
19.0
 30
0.0
 11
1494.5
 21
0.0
 31
0.0
  0
LINE
  5
27B
330
1F
100
AcDbEntity
  8
0
  6
CENTERX2
 62
     7
100
AcDbLine
 10
1482.0
 20
0.0
 30
0.0
 11
1482.0
 21
12.0
 31
0.0
  0
LINE
  5
27C
330
1F
100
AcDbEntity
  8
0
  6
CENTERX2
 62
     7
100
AcDbLine
 10
1507.0
 20
0.0
 30
0.0
 11
1507.0
 21
12.0
 31
0.0
  0
LINE
  5
27D
330
1F
100
AcDbEntity
  8
0
  6
CENTERX2
 62
     7
100
AcDbLine
 10
1507.0
 20
12.0
 30
0.0
 11
1482.0
 21
12.0
 31
0.0
  0
LINE
  5
27E
330
1F
100
AcDbEntity
  8
0
  6
CENTERX2
 62
     7
100
AcDbLine
 10
1510.5
 20
0.0
 30
0.0
 11
1510.5
 21
12.0
 31
0.0
  0
LINE
  5
27F
330
1F
100
AcDbEntity
  8
0
  6
Continuous
 62
     7
100
AcDbLine
 10
1510.5
 20
0.0
 30
0.0
 11
1535.5
 21
0.0
 31
0.0
  0
LINE
  5
280
330
1F
100
AcDbEntity
  8
0
  6
Continuous
 62
     7
100
AcDbLine
 10
1535.5
 20
12.0
 30
0.0
 11
1539.0
 21
12.0
 31
0.0
  0
LINE
  5
281
330
1F
100
AcDbEntity
  8
0
  6
Continuous
 62
     7
100
AcDbLine
 10
1535.5
 20
0.0
 30
0.0
 11
1539.0
 21
0.0
 31
0.0
  0
LINE
  5
282
330
1F
100
AcDbEntity
  8
0
  6
CENTERX2
 62
     7
100
AcDbLine
 10
1523.0
 20
19.0
 30
0.0
 11
1523.0
 21
0.0
 31
0.0
  0
LINE
  5
283
330
1F
100
AcDbEntity
  8
0
  6
CENTERX2
 62
     7
100
AcDbLine
 10
1510.5
 20
0.0
 30
0.0
 11
1510.5
 21
12.0
 31
0.0
  0
LINE
  5
284
330
1F
100
AcDbEntity
  8
0
  6
CENTERX2
 62
     7
100
AcDbLine
 10
1535.5
 20
0.0
 30
0.0
 11
1535.5
 21
12.0
 31
0.0
  0
LINE
  5
285
330
1F
100
AcDbEntity
  8
0
  6
CENTERX2
 62
     7
100
AcDbLine
 10
1535.5
 20
12.0
 30
0.0
 11
1510.5
 21
12.0
 31
0.0
  0
LINE
  5
286
330
1F
100
AcDbEntity
  8
0
  6
CENTERX2
 62
     7
100
AcDbLine
 10
1539.0
 20
0.0
 30
0.0
 11
1539.0
 21
12.0
 31
0.0
  0
LINE
  5
287
330
1F
100
AcDbEntity
  8
0
  6
Continuous
 62
     7
100
AcDbLine
 10
1539.0
 20
0.0
 30
0.0
 11
1564.0
 21
0.0
 31
0.0
  0
LINE
  5
288
330
1F
100
AcDbEntity
  8
0
  6
Continuous
 62
     7
100
AcDbLine
 10
1564.0
 20
12.0
 30
0.0
 11
1567.5
 21
12.0
 31
0.0
  0
LINE
  5
289
330
1F
100
AcDbEntity
  8
0
  6
Continuous
 62
     7
100
AcDbLine
 10
1564.0
 20
0.0
 30
0.0
 11
1567.5
 21
0.0
 31
0.0
  0
LINE
  5
28A
330
1F
100
AcDbEntity
  8
0
  6
CENTERX2
 62
     7
100
AcDbLine
 10
1551.5
 20
19.0
 30
0.0
 11
1551.5
 21
0.0
 31
0.0
  0
LINE
  5
28B
330
1F
100
AcDbEntity
  8
0
  6
CENTERX2
 62
     7
100
AcDbLine
 10
1539.0
 20
0.0
 30
0.0
 11
1539.0
 21
12.0
 31
0.0
  0
LINE
  5
28C
330
1F
100
AcDbEntity
  8
0
  6
CENTERX2
 62
     7
100
AcDbLine
 10
1564.0
 20
0.0
 30
0.0
 11
1564.0
 21
12.0
 31
0.0
  0
LINE
  5
28D
330
1F
100
AcDbEntity
  8
0
  6
CENTERX2
 62
     7
100
AcDbLine
 10
1564.0
 20
12.0
 30
0.0
 11
1539.0
 21
12.0
 31
0.0
  0
LINE
  5
28E
330
1F
100
AcDbEntity
  8
0
  6
CENTERX2
 62
     7
100
AcDbLine
 10
1567.5
 20
0.0
 30
0.0
 11
1567.5
 21
12.0
 31
0.0
  0
LINE
  5
28F
330
1F
100
AcDbEntity
  8
0
  6
Continuous
 62
     7
100
AcDbLine
 10
1567.5
 20
0.0
 30
0.0
 11
1592.5
 21
0.0
 31
0.0
  0
LINE
  5
290
330
1F
100
AcDbEntity
  8
0
  6
Continuous
 62
     7
100
AcDbLine
 10
1592.5
 20
12.0
 30
0.0
 11
1596.0
 21
12.0
 31
0.0
  0
LINE
  5
291
330
1F
100
AcDbEntity
  8
0
  6
Continuous
 62
     7
100
AcDbLine
 10
1592.5
 20
0.0
 30
0.0
 11
1596.0
 21
0.0
 31
0.0
  0
LINE
  5
292
330
1F
100
AcDbEntity
  8
0
  6
CENTERX2
 62
     7
100
AcDbLine
 10
1580.0
 20
19.0
 30
0.0
 11
1580.0
 21
0.0
 31
0.0
  0
LINE
  5
293
330
1F
100
AcDbEntity
  8
0
  6
CENTERX2
 62
     7
100
AcDbLine
 10
1567.5
 20
0.0
 30
0.0
 11
1567.5
 21
12.0
 31
0.0
  0
LINE
  5
294
330
1F
100
AcDbEntity
  8
0
  6
CENTERX2
 62
     7
100
AcDbLine
 10
1592.5
 20
0.0
 30
0.0
 11
1592.5
 21
12.0
 31
0.0
  0
LINE
  5
295
330
1F
100
AcDbEntity
  8
0
  6
CENTERX2
 62
     7
100
AcDbLine
 10
1592.5
 20
12.0
 30
0.0
 11
1567.5
 21
12.0
 31
0.0
  0
LINE
  5
296
330
1F
100
AcDbEntity
  8
0
  6
CENTERX2
 62
     7
100
AcDbLine
 10
1596.0
 20
0.0
 30
0.0
 11
1596.0
 21
12.0
 31
0.0
  0
LINE
  5
297
330
1F
100
AcDbEntity
  8
0
  6
Continuous
 62
     7
100
AcDbLine
 10
1596.0
 20
0.0
 30
0.0
 11
1621.0
 21
0.0
 31
0.0
  0
LINE
  5
298
330
1F
100
AcDbEntity
  8
0
  6
Continuous
 62
     7
100
AcDbLine
 10
1621.0
 20
12.0
 30
0.0
 11
1624.5
 21
12.0
 31
0.0
  0
LINE
  5
299
330
1F
100
AcDbEntity
  8
0
  6
Continuous
 62
     7
100
AcDbLine
 10
1621.0
 20
0.0
 30
0.0
 11
1624.5
 21
0.0
 31
0.0
  0
LINE
  5
29A
330
1F
100
AcDbEntity
  8
0
  6
CENTERX2
 62
     7
100
AcDbLine
 10
1608.5
 20
19.0
 30
0.0
 11
1608.5
 21
0.0
 31
0.0
  0
LINE
  5
29B
330
1F
100
AcDbEntity
  8
0
  6
CENTERX2
 62
     7
100
AcDbLine
 10
1596.0
 20
0.0
 30
0.0
 11
1596.0
 21
12.0
 31
0.0
  0
LINE
  5
29C
330
1F
100
AcDbEntity
  8
0
  6
CENTERX2
 62
     7
100
AcDbLine
 10
1621.0
 20
0.0
 30
0.0
 11
1621.0
 21
12.0
 31
0.0
  0
LINE
  5
29D
330
1F
100
AcDbEntity
  8
0
  6
CENTERX2
 62
     7
100
AcDbLine
 10
1621.0
 20
12.0
 30
0.0
 11
1596.0
 21
12.0
 31
0.0
  0
LINE
  5
29E
330
1F
100
AcDbEntity
  8
0
  6
CENTERX2
 62
     7
100
AcDbLine
 10
1624.5
 20
0.0
 30
0.0
 11
1624.5
 21
12.0
 31
0.0
  0
LINE
  5
29F
330
1F
100
AcDbEntity
  8
0
  6
Continuous
 62
     7
100
AcDbLine
 10
1624.5
 20
0.0
 30
0.0
 11
1649.5
 21
0.0
 31
0.0
  0
LINE
  5
2A0
330
1F
100
AcDbEntity
  8
0
  6
Continuous
 62
     7
100
AcDbLine
 10
1649.5
 20
12.0
 30
0.0
 11
1653.0
 21
12.0
 31
0.0
  0
LINE
  5
2A1
330
1F
100
AcDbEntity
  8
0
  6
Continuous
 62
     7
100
AcDbLine
 10
1649.5
 20
0.0
 30
0.0
 11
1653.0
 21
0.0
 31
0.0
  0
LINE
  5
2A2
330
1F
100
AcDbEntity
  8
0
  6
CENTERX2
 62
     7
100
AcDbLine
 10
1637.0
 20
19.0
 30
0.0
 11
1637.0
 21
0.0
 31
0.0
  0
LINE
  5
2A3
330
1F
100
AcDbEntity
  8
0
  6
CENTERX2
 62
     7
100
AcDbLine
 10
1624.5
 20
0.0
 30
0.0
 11
1624.5
 21
12.0
 31
0.0
  0
LINE
  5
2A4
330
1F
100
AcDbEntity
  8
0
  6
CENTERX2
 62
     7
100
AcDbLine
 10
1649.5
 20
0.0
 30
0.0
 11
1649.5
 21
12.0
 31
0.0
  0
LINE
  5
2A5
330
1F
100
AcDbEntity
  8
0
  6
CENTERX2
 62
     7
100
AcDbLine
 10
1649.5
 20
12.0
 30
0.0
 11
1624.5
 21
12.0
 31
0.0
  0
LINE
  5
2A6
330
1F
100
AcDbEntity
  8
0
  6
CENTERX2
 62
     7
100
AcDbLine
 10
1653.0
 20
0.0
 30
0.0
 11
1653.0
 21
12.0
 31
0.0
  0
LINE
  5
2A7
330
1F
100
AcDbEntity
  8
0
  6
Continuous
 62
     7
100
AcDbLine
 10
1653.0
 20
0.0
 30
0.0
 11
1678.0
 21
0.0
 31
0.0
  0
LINE
  5
2A8
330
1F
100
AcDbEntity
  8
0
  6
Continuous
 62
     7
100
AcDbLine
 10
1678.0
 20
12.0
 30
0.0
 11
1681.5
 21
12.0
 31
0.0
  0
LINE
  5
2A9
330
1F
100
AcDbEntity
  8
0
  6
Continuous
 62
     7
100
AcDbLine
 10
1678.0
 20
0.0
 30
0.0
 11
1681.5
 21
0.0
 31
0.0
  0
LINE
  5
2AA
330
1F
100
AcDbEntity
  8
0
  6
CENTERX2
 62
     7
100
AcDbLine
 10
1665.5
 20
19.0
 30
0.0
 11
1665.5
 21
0.0
 31
0.0
  0
LINE
  5
2AB
330
1F
100
AcDbEntity
  8
0
  6
CENTERX2
 62
     7
100
AcDbLine
 10
1653.0
 20
0.0
 30
0.0
 11
1653.0
 21
12.0
 31
0.0
  0
LINE
  5
2AC
330
1F
100
AcDbEntity
  8
0
  6
CENTERX2
 62
     7
100
AcDbLine
 10
1678.0
 20
0.0
 30
0.0
 11
1678.0
 21
12.0
 31
0.0
  0
LINE
  5
2AD
330
1F
100
AcDbEntity
  8
0
  6
CENTERX2
 62
     7
100
AcDbLine
 10
1678.0
 20
12.0
 30
0.0
 11
1653.0
 21
12.0
 31
0.0
  0
LINE
  5
2AE
330
1F
100
AcDbEntity
  8
0
  6
CENTERX2
 62
     7
100
AcDbLine
 10
1681.5
 20
0.0
 30
0.0
 11
1681.5
 21
12.0
 31
0.0
  0
LINE
  5
2AF
330
1F
100
AcDbEntity
  8
0
  6
Continuous
 62
     7
100
AcDbLine
 10
1681.5
 20
0.0
 30
0.0
 11
1706.5
 21
0.0
 31
0.0
  0
LINE
  5
2B0
330
1F
100
AcDbEntity
  8
0
  6
Continuous
 62
     7
100
AcDbLine
 10
1706.5
 20
12.0
 30
0.0
 11
1710.0
 21
12.0
 31
0.0
  0
LINE
  5
2B1
330
1F
100
AcDbEntity
  8
0
  6
Continuous
 62
     7
100
AcDbLine
 10
1706.5
 20
0.0
 30
0.0
 11
1710.0
 21
0.0
 31
0.0
  0
LINE
  5
2B2
330
1F
100
AcDbEntity
  8
0
  6
CENTERX2
 62
     7
100
AcDbLine
 10
1694.0
 20
19.0
 30
0.0
 11
1694.0
 21
0.0
 31
0.0
  0
LINE
  5
2B3
330
1F
100
AcDbEntity
  8
0
  6
CENTERX2
 62
     7
100
AcDbLine
 10
1681.5
 20
0.0
 30
0.0
 11
1681.5
 21
12.0
 31
0.0
  0
LINE
  5
2B4
330
1F
100
AcDbEntity
  8
0
  6
CENTERX2
 62
     7
100
AcDbLine
 10
1706.5
 20
0.0
 30
0.0
 11
1706.5
 21
12.0
 31
0.0
  0
LINE
  5
2B5
330
1F
100
AcDbEntity
  8
0
  6
CENTERX2
 62
     7
100
AcDbLine
 10
1706.5
 20
12.0
 30
0.0
 11
1681.5
 21
12.0
 31
0.0
  0
LINE
  5
2B6
330
1F
100
AcDbEntity
  8
0
  6
CENTERX2
 62
     7
100
AcDbLine
 10
1710.0
 20
0.0
 30
0.0
 11
1710.0
 21
12.0
 31
0.0
  0
LINE
  5
2B7
330
1F
100
AcDbEntity
  8
0
  6
Continuous
 62
     7
100
AcDbLine
 10
1710.0
 20
0.0
 30
0.0
 11
1735.0
 21
0.0
 31
0.0
  0
LINE
  5
2B8
330
1F
100
AcDbEntity
  8
0
  6
Continuous
 62
     7
100
AcDbLine
 10
1735.0
 20
12.0
 30
0.0
 11
1738.5
 21
12.0
 31
0.0
  0
LINE
  5
2B9
330
1F
100
AcDbEntity
  8
0
  6
Continuous
 62
     7
100
AcDbLine
 10
1735.0
 20
0.0
 30
0.0
 11
1738.5
 21
0.0
 31
0.0
  0
LINE
  5
2BA
330
1F
100
AcDbEntity
  8
0
  6
CENTERX2
 62
     7
100
AcDbLine
 10
1722.5
 20
19.0
 30
0.0
 11
1722.5
 21
0.0
 31
0.0
  0
LINE
  5
2BB
330
1F
100
AcDbEntity
  8
0
  6
CENTERX2
 62
     7
100
AcDbLine
 10
1710.0
 20
0.0
 30
0.0
 11
1710.0
 21
12.0
 31
0.0
  0
LINE
  5
2BC
330
1F
100
AcDbEntity
  8
0
  6
CENTERX2
 62
     7
100
AcDbLine
 10
1735.0
 20
0.0
 30
0.0
 11
1735.0
 21
12.0
 31
0.0
  0
LINE
  5
2BD
330
1F
100
AcDbEntity
  8
0
  6
CENTERX2
 62
     7
100
AcDbLine
 10
1735.0
 20
12.0
 30
0.0
 11
1710.0
 21
12.0
 31
0.0
  0
LINE
  5
2BE
330
1F
100
AcDbEntity
  8
0
  6
CENTERX2
 62
     7
100
AcDbLine
 10
1738.5
 20
0.0
 30
0.0
 11
1738.5
 21
12.0
 31
0.0
  0
LINE
  5
2BF
330
1F
100
AcDbEntity
  8
0
  6
Continuous
 62
     7
100
AcDbLine
 10
1738.5
 20
0.0
 30
0.0
 11
1763.5
 21
0.0
 31
0.0
  0
LINE
  5
2C0
330
1F
100
AcDbEntity
  8
0
  6
Continuous
 62
     7
100
AcDbLine
 10
1763.5
 20
12.0
 30
0.0
 11
1767.0
 21
12.0
 31
0.0
  0
LINE
  5
2C1
330
1F
100
AcDbEntity
  8
0
  6
Continuous
 62
     7
100
AcDbLine
 10
1763.5
 20
0.0
 30
0.0
 11
1767.0
 21
0.0
 31
0.0
  0
LINE
  5
2C2
330
1F
100
AcDbEntity
  8
0
  6
CENTERX2
 62
     7
100
AcDbLine
 10
1751.0
 20
19.0
 30
0.0
 11
1751.0
 21
0.0
 31
0.0
  0
LINE
  5
2C3
330
1F
100
AcDbEntity
  8
0
  6
CENTERX2
 62
     7
100
AcDbLine
 10
1738.5
 20
0.0
 30
0.0
 11
1738.5
 21
12.0
 31
0.0
  0
LINE
  5
2C4
330
1F
100
AcDbEntity
  8
0
  6
CENTERX2
 62
     7
100
AcDbLine
 10
1763.5
 20
0.0
 30
0.0
 11
1763.5
 21
12.0
 31
0.0
  0
LINE
  5
2C5
330
1F
100
AcDbEntity
  8
0
  6
CENTERX2
 62
     7
100
AcDbLine
 10
1763.5
 20
12.0
 30
0.0
 11
1738.5
 21
12.0
 31
0.0
  0
LINE
  5
2C6
330
1F
100
AcDbEntity
  8
0
  6
CENTERX2
 62
     7
100
AcDbLine
 10
1767.0
 20
0.0
 30
0.0
 11
1767.0
 21
12.0
 31
0.0
  0
LINE
  5
2C7
330
1F
100
AcDbEntity
  8
0
  6
Continuous
 62
     7
100
AcDbLine
 10
1767.0
 20
0.0
 30
0.0
 11
1792.0
 21
0.0
 31
0.0
  0
LINE
  5
2C8
330
1F
100
AcDbEntity
  8
0
  6
Continuous
 62
     7
100
AcDbLine
 10
1792.0
 20
12.0
 30
0.0
 11
1795.5
 21
12.0
 31
0.0
  0
LINE
  5
2C9
330
1F
100
AcDbEntity
  8
0
  6
Continuous
 62
     7
100
AcDbLine
 10
1792.0
 20
0.0
 30
0.0
 11
1795.5
 21
0.0
 31
0.0
  0
LINE
  5
2CA
330
1F
100
AcDbEntity
  8
0
  6
CENTERX2
 62
     7
100
AcDbLine
 10
1779.5
 20
19.0
 30
0.0
 11
1779.5
 21
0.0
 31
0.0
  0
LINE
  5
2CB
330
1F
100
AcDbEntity
  8
0
  6
CENTERX2
 62
     7
100
AcDbLine
 10
1767.0
 20
0.0
 30
0.0
 11
1767.0
 21
12.0
 31
0.0
  0
LINE
  5
2CC
330
1F
100
AcDbEntity
  8
0
  6
CENTERX2
 62
     7
100
AcDbLine
 10
1792.0
 20
0.0
 30
0.0
 11
1792.0
 21
12.0
 31
0.0
  0
LINE
  5
2CD
330
1F
100
AcDbEntity
  8
0
  6
CENTERX2
 62
     7
100
AcDbLine
 10
1792.0
 20
12.0
 30
0.0
 11
1767.0
 21
12.0
 31
0.0
  0
LINE
  5
2CE
330
1F
100
AcDbEntity
  8
0
  6
CENTERX2
 62
     7
100
AcDbLine
 10
1795.5
 20
0.0
 30
0.0
 11
1795.5
 21
12.0
 31
0.0
  0
LINE
  5
2CF
330
1F
100
AcDbEntity
  8
0
  6
Continuous
 62
     7
100
AcDbLine
 10
1795.5
 20
0.0
 30
0.0
 11
1820.5
 21
0.0
 31
0.0
  0
LINE
  5
2D0
330
1F
100
AcDbEntity
  8
0
  6
Continuous
 62
     7
100
AcDbLine
 10
1820.5
 20
12.0
 30
0.0
 11
1824.0
 21
12.0
 31
0.0
  0
LINE
  5
2D1
330
1F
100
AcDbEntity
  8
0
  6
Continuous
 62
     7
100
AcDbLine
 10
1820.5
 20
0.0
 30
0.0
 11
1824.0
 21
0.0
 31
0.0
  0
LINE
  5
2D2
330
1F
100
AcDbEntity
  8
0
  6
CENTERX2
 62
     7
100
AcDbLine
 10
1808.0
 20
19.0
 30
0.0
 11
1808.0
 21
0.0
 31
0.0
  0
LINE
  5
2D3
330
1F
100
AcDbEntity
  8
0
  6
CENTERX2
 62
     7
100
AcDbLine
 10
1795.5
 20
0.0
 30
0.0
 11
1795.5
 21
12.0
 31
0.0
  0
LINE
  5
2D4
330
1F
100
AcDbEntity
  8
0
  6
CENTERX2
 62
     7
100
AcDbLine
 10
1820.5
 20
0.0
 30
0.0
 11
1820.5
 21
12.0
 31
0.0
  0
LINE
  5
2D5
330
1F
100
AcDbEntity
  8
0
  6
CENTERX2
 62
     7
100
AcDbLine
 10
1820.5
 20
12.0
 30
0.0
 11
1795.5
 21
12.0
 31
0.0
  0
LINE
  5
2D6
330
1F
100
AcDbEntity
  8
0
  6
CENTERX2
 62
     7
100
AcDbLine
 10
1824.0
 20
0.0
 30
0.0
 11
1824.0
 21
12.0
 31
0.0
  0
LINE
  5
2D7
330
1F
100
AcDbEntity
  8
0
  6
Continuous
 62
     7
100
AcDbLine
 10
1824.0
 20
0.0
 30
0.0
 11
1849.0
 21
0.0
 31
0.0
  0
LINE
  5
2D8
330
1F
100
AcDbEntity
  8
0
  6
Continuous
 62
     7
100
AcDbLine
 10
1849.0
 20
12.0
 30
0.0
 11
1852.5
 21
12.0
 31
0.0
  0
LINE
  5
2D9
330
1F
100
AcDbEntity
  8
0
  6
Continuous
 62
     7
100
AcDbLine
 10
1849.0
 20
0.0
 30
0.0
 11
1852.5
 21
0.0
 31
0.0
  0
LINE
  5
2DA
330
1F
100
AcDbEntity
  8
0
  6
CENTERX2
 62
     7
100
AcDbLine
 10
1836.5
 20
19.0
 30
0.0
 11
1836.5
 21
0.0
 31
0.0
  0
LINE
  5
2DB
330
1F
100
AcDbEntity
  8
0
  6
CENTERX2
 62
     7
100
AcDbLine
 10
1824.0
 20
0.0
 30
0.0
 11
1824.0
 21
12.0
 31
0.0
  0
LINE
  5
2DC
330
1F
100
AcDbEntity
  8
0
  6
CENTERX2
 62
     7
100
AcDbLine
 10
1849.0
 20
0.0
 30
0.0
 11
1849.0
 21
12.0
 31
0.0
  0
LINE
  5
2DD
330
1F
100
AcDbEntity
  8
0
  6
CENTERX2
 62
     7
100
AcDbLine
 10
1849.0
 20
12.0
 30
0.0
 11
1824.0
 21
12.0
 31
0.0
  0
LINE
  5
2DE
330
1F
100
AcDbEntity
  8
0
  6
CENTERX2
 62
     7
100
AcDbLine
 10
1852.5
 20
0.0
 30
0.0
 11
1852.5
 21
12.0
 31
0.0
  0
LINE
  5
2DF
330
1F
100
AcDbEntity
  8
0
  6
Continuous
 62
     7
100
AcDbLine
 10
1852.5
 20
0.0
 30
0.0
 11
1877.5
 21
0.0
 31
0.0
  0
LINE
  5
2E0
330
1F
100
AcDbEntity
  8
0
  6
Continuous
 62
     7
100
AcDbLine
 10
1877.5
 20
12.0
 30
0.0
 11
1881.0
 21
12.0
 31
0.0
  0
LINE
  5
2E1
330
1F
100
AcDbEntity
  8
0
  6
Continuous
 62
     7
100
AcDbLine
 10
1877.5
 20
0.0
 30
0.0
 11
1881.0
 21
0.0
 31
0.0
  0
LINE
  5
2E2
330
1F
100
AcDbEntity
  8
0
  6
CENTERX2
 62
     7
100
AcDbLine
 10
1865.0
 20
19.0
 30
0.0
 11
1865.0
 21
0.0
 31
0.0
  0
LINE
  5
2E3
330
1F
100
AcDbEntity
  8
0
  6
CENTERX2
 62
     7
100
AcDbLine
 10
1852.5
 20
0.0
 30
0.0
 11
1852.5
 21
12.0
 31
0.0
  0
LINE
  5
2E4
330
1F
100
AcDbEntity
  8
0
  6
CENTERX2
 62
     7
100
AcDbLine
 10
1877.5
 20
0.0
 30
0.0
 11
1877.5
 21
12.0
 31
0.0
  0
LINE
  5
2E5
330
1F
100
AcDbEntity
  8
0
  6
CENTERX2
 62
     7
100
AcDbLine
 10
1877.5
 20
12.0
 30
0.0
 11
1852.5
 21
12.0
 31
0.0
  0
LINE
  5
2E6
330
1F
100
AcDbEntity
  8
0
  6
CENTERX2
 62
     7
100
AcDbLine
 10
1881.0
 20
0.0
 30
0.0
 11
1881.0
 21
12.0
 31
0.0
  0
LINE
  5
2E7
330
1F
100
AcDbEntity
  8
0
  6
Continuous
 62
     7
100
AcDbLine
 10
1881.0
 20
0.0
 30
0.0
 11
1906.0
 21
0.0
 31
0.0
  0
LINE
  5
2E8
330
1F
100
AcDbEntity
  8
0
  6
Continuous
 62
     7
100
AcDbLine
 10
1906.0
 20
12.0
 30
0.0
 11
1909.5
 21
12.0
 31
0.0
  0
LINE
  5
2E9
330
1F
100
AcDbEntity
  8
0
  6
Continuous
 62
     7
100
AcDbLine
 10
1906.0
 20
0.0
 30
0.0
 11
1909.5
 21
0.0
 31
0.0
  0
LINE
  5
2EA
330
1F
100
AcDbEntity
  8
0
  6
CENTERX2
 62
     7
100
AcDbLine
 10
1893.5
 20
19.0
 30
0.0
 11
1893.5
 21
0.0
 31
0.0
  0
LINE
  5
2EB
330
1F
100
AcDbEntity
  8
0
  6
CENTERX2
 62
     7
100
AcDbLine
 10
1881.0
 20
0.0
 30
0.0
 11
1881.0
 21
12.0
 31
0.0
  0
LINE
  5
2EC
330
1F
100
AcDbEntity
  8
0
  6
CENTERX2
 62
     7
100
AcDbLine
 10
1906.0
 20
0.0
 30
0.0
 11
1906.0
 21
12.0
 31
0.0
  0
LINE
  5
2ED
330
1F
100
AcDbEntity
  8
0
  6
CENTERX2
 62
     7
100
AcDbLine
 10
1906.0
 20
12.0
 30
0.0
 11
1881.0
 21
12.0
 31
0.0
  0
LINE
  5
2EE
330
1F
100
AcDbEntity
  8
0
  6
CENTERX2
 62
     7
100
AcDbLine
 10
1909.5
 20
0.0
 30
0.0
 11
1909.5
 21
12.0
 31
0.0
  0
LINE
  5
2EF
330
1F
100
AcDbEntity
  8
0
  6
Continuous
 62
     7
100
AcDbLine
 10
1909.5
 20
0.0
 30
0.0
 11
1934.5
 21
0.0
 31
0.0
  0
LINE
  5
2F0
330
1F
100
AcDbEntity
  8
0
  6
Continuous
 62
     7
100
AcDbLine
 10
1934.5
 20
12.0
 30
0.0
 11
1938.0
 21
12.0
 31
0.0
  0
LINE
  5
2F1
330
1F
100
AcDbEntity
  8
0
  6
Continuous
 62
     7
100
AcDbLine
 10
1934.5
 20
0.0
 30
0.0
 11
1938.0
 21
0.0
 31
0.0
  0
LINE
  5
2F2
330
1F
100
AcDbEntity
  8
0
  6
CENTERX2
 62
     7
100
AcDbLine
 10
1922.0
 20
19.0
 30
0.0
 11
1922.0
 21
0.0
 31
0.0
  0
LINE
  5
2F3
330
1F
100
AcDbEntity
  8
0
  6
CENTERX2
 62
     7
100
AcDbLine
 10
1909.5
 20
0.0
 30
0.0
 11
1909.5
 21
12.0
 31
0.0
  0
LINE
  5
2F4
330
1F
100
AcDbEntity
  8
0
  6
CENTERX2
 62
     7
100
AcDbLine
 10
1934.5
 20
0.0
 30
0.0
 11
1934.5
 21
12.0
 31
0.0
  0
LINE
  5
2F5
330
1F
100
AcDbEntity
  8
0
  6
CENTERX2
 62
     7
100
AcDbLine
 10
1934.5
 20
12.0
 30
0.0
 11
1909.5
 21
12.0
 31
0.0
  0
LINE
  5
2F6
330
1F
100
AcDbEntity
  8
0
  6
CENTERX2
 62
     7
100
AcDbLine
 10
1938.0
 20
0.0
 30
0.0
 11
1938.0
 21
12.0
 31
0.0
  0
LINE
  5
2F7
330
1F
100
AcDbEntity
  8
0
  6
Continuous
 62
     7
100
AcDbLine
 10
1938.0
 20
0.0
 30
0.0
 11
1963.0
 21
0.0
 31
0.0
  0
LINE
  5
2F8
330
1F
100
AcDbEntity
  8
0
  6
Continuous
 62
     7
100
AcDbLine
 10
1963.0
 20
12.0
 30
0.0
 11
1966.5
 21
12.0
 31
0.0
  0
LINE
  5
2F9
330
1F
100
AcDbEntity
  8
0
  6
Continuous
 62
     7
100
AcDbLine
 10
1963.0
 20
0.0
 30
0.0
 11
1966.5
 21
0.0
 31
0.0
  0
LINE
  5
2FA
330
1F
100
AcDbEntity
  8
0
  6
CENTERX2
 62
     7
100
AcDbLine
 10
1950.5
 20
19.0
 30
0.0
 11
1950.5
 21
0.0
 31
0.0
  0
LINE
  5
2FB
330
1F
100
AcDbEntity
  8
0
  6
CENTERX2
 62
     7
100
AcDbLine
 10
1938.0
 20
0.0
 30
0.0
 11
1938.0
 21
12.0
 31
0.0
  0
LINE
  5
2FC
330
1F
100
AcDbEntity
  8
0
  6
CENTERX2
 62
     7
100
AcDbLine
 10
1963.0
 20
0.0
 30
0.0
 11
1963.0
 21
12.0
 31
0.0
  0
LINE
  5
2FD
330
1F
100
AcDbEntity
  8
0
  6
CENTERX2
 62
     7
100
AcDbLine
 10
1963.0
 20
12.0
 30
0.0
 11
1938.0
 21
12.0
 31
0.0
  0
LINE
  5
2FE
330
1F
100
AcDbEntity
  8
0
  6
CENTERX2
 62
     7
100
AcDbLine
 10
1966.5
 20
0.0
 30
0.0
 11
1966.5
 21
12.0
 31
0.0
  0
LINE
  5
2FF
330
1F
100
AcDbEntity
  8
0
  6
Continuous
 62
     7
100
AcDbLine
 10
1966.5
 20
0.0
 30
0.0
 11
1991.5
 21
0.0
 31
0.0
  0
LINE
  5
300
330
1F
100
AcDbEntity
  8
0
  6
Continuous
 62
     7
100
AcDbLine
 10
1991.5
 20
12.0
 30
0.0
 11
1995.0
 21
12.0
 31
0.0
  0
LINE
  5
301
330
1F
100
AcDbEntity
  8
0
  6
Continuous
 62
     7
100
AcDbLine
 10
1991.5
 20
0.0
 30
0.0
 11
1995.0
 21
0.0
 31
0.0
  0
LINE
  5
302
330
1F
100
AcDbEntity
  8
0
  6
CENTERX2
 62
     7
100
AcDbLine
 10
1979.0
 20
19.0
 30
0.0
 11
1979.0
 21
0.0
 31
0.0
  0
LINE
  5
303
330
1F
100
AcDbEntity
  8
0
  6
CENTERX2
 62
     7
100
AcDbLine
 10
1966.5
 20
0.0
 30
0.0
 11
1966.5
 21
12.0
 31
0.0
  0
LINE
  5
304
330
1F
100
AcDbEntity
  8
0
  6
CENTERX2
 62
     7
100
AcDbLine
 10
1991.5
 20
0.0
 30
0.0
 11
1991.5
 21
12.0
 31
0.0
  0
LINE
  5
305
330
1F
100
AcDbEntity
  8
0
  6
CENTERX2
 62
     7
100
AcDbLine
 10
1991.5
 20
12.0
 30
0.0
 11
1966.5
 21
12.0
 31
0.0
  0
LINE
  5
306
330
1F
100
AcDbEntity
  8
0
  6
CENTERX2
 62
     7
100
AcDbLine
 10
1995.0
 20
0.0
 30
0.0
 11
1995.0
 21
12.0
 31
0.0
  0
LINE
  5
307
330
1F
100
AcDbEntity
  8
0
  6
Continuous
 62
     7
100
AcDbLine
 10
1995.0
 20
0.0
 30
0.0
 11
2020.0
 21
0.0
 31
0.0
  0
LINE
  5
308
330
1F
100
AcDbEntity
  8
0
  6
Continuous
 62
     7
100
AcDbLine
 10
2020.0
 20
12.0
 30
0.0
 11
2023.5
 21
12.0
 31
0.0
  0
LINE
  5
309
330
1F
100
AcDbEntity
  8
0
  6
Continuous
 62
     7
100
AcDbLine
 10
2020.0
 20
0.0
 30
0.0
 11
2023.5
 21
0.0
 31
0.0
  0
LINE
  5
30A
330
1F
100
AcDbEntity
  8
0
  6
CENTERX2
 62
     7
100
AcDbLine
 10
2007.5
 20
19.0
 30
0.0
 11
2007.5
 21
0.0
 31
0.0
  0
LINE
  5
30B
330
1F
100
AcDbEntity
  8
0
  6
CENTERX2
 62
     7
100
AcDbLine
 10
1995.0
 20
0.0
 30
0.0
 11
1995.0
 21
12.0
 31
0.0
  0
LINE
  5
30C
330
1F
100
AcDbEntity
  8
0
  6
CENTERX2
 62
     7
100
AcDbLine
 10
2020.0
 20
0.0
 30
0.0
 11
2020.0
 21
12.0
 31
0.0
  0
LINE
  5
30D
330
1F
100
AcDbEntity
  8
0
  6
CENTERX2
 62
     7
100
AcDbLine
 10
2020.0
 20
12.0
 30
0.0
 11
1995.0
 21
12.0
 31
0.0
  0
LINE
  5
30E
330
1F
100
AcDbEntity
  8
0
  6
CENTERX2
 62
     7
100
AcDbLine
 10
2023.5
 20
0.0
 30
0.0
 11
2023.5
 21
12.0
 31
0.0
  0
LINE
  5
30F
330
1F
100
AcDbEntity
  8
0
  6
Continuous
 62
     7
100
AcDbLine
 10
2023.5
 20
0.0
 30
0.0
 11
2048.5
 21
0.0
 31
0.0
  0
LINE
  5
310
330
1F
100
AcDbEntity
  8
0
  6
Continuous
 62
     7
100
AcDbLine
 10
2048.5
 20
12.0
 30
0.0
 11
2052.0
 21
12.0
 31
0.0
  0
LINE
  5
311
330
1F
100
AcDbEntity
  8
0
  6
Continuous
 62
     7
100
AcDbLine
 10
2048.5
 20
0.0
 30
0.0
 11
2052.0
 21
0.0
 31
0.0
  0
LINE
  5
312
330
1F
100
AcDbEntity
  8
0
  6
CENTERX2
 62
     7
100
AcDbLine
 10
2036.0
 20
19.0
 30
0.0
 11
2036.0
 21
0.0
 31
0.0
  0
LINE
  5
313
330
1F
100
AcDbEntity
  8
0
  6
CENTERX2
 62
     7
100
AcDbLine
 10
2023.5
 20
0.0
 30
0.0
 11
2023.5
 21
12.0
 31
0.0
  0
LINE
  5
314
330
1F
100
AcDbEntity
  8
0
  6
CENTERX2
 62
     7
100
AcDbLine
 10
2048.5
 20
0.0
 30
0.0
 11
2048.5
 21
12.0
 31
0.0
  0
LINE
  5
315
330
1F
100
AcDbEntity
  8
0
  6
CENTERX2
 62
     7
100
AcDbLine
 10
2048.5
 20
12.0
 30
0.0
 11
2023.5
 21
12.0
 31
0.0
  0
LINE
  5
316
330
1F
100
AcDbEntity
  8
0
  6
CENTERX2
 62
     7
100
AcDbLine
 10
2052.0
 20
0.0
 30
0.0
 11
2052.0
 21
12.0
 31
0.0
  0
LINE
  5
317
330
1F
100
AcDbEntity
  8
0
  6
Continuous
 62
     7
100
AcDbLine
 10
2052.0
 20
0.0
 30
0.0
 11
2077.0
 21
0.0
 31
0.0
  0
LINE
  5
318
330
1F
100
AcDbEntity
  8
0
  6
Continuous
 62
     7
100
AcDbLine
 10
2077.0
 20
12.0
 30
0.0
 11
2080.5
 21
12.0
 31
0.0
  0
LINE
  5
319
330
1F
100
AcDbEntity
  8
0
  6
Continuous
 62
     7
100
AcDbLine
 10
2077.0
 20
0.0
 30
0.0
 11
2080.5
 21
0.0
 31
0.0
  0
LINE
  5
31A
330
1F
100
AcDbEntity
  8
0
  6
CENTERX2
 62
     7
100
AcDbLine
 10
2064.5
 20
19.0
 30
0.0
 11
2064.5
 21
0.0
 31
0.0
  0
LINE
  5
31B
330
1F
100
AcDbEntity
  8
0
  6
CENTERX2
 62
     7
100
AcDbLine
 10
2052.0
 20
0.0
 30
0.0
 11
2052.0
 21
12.0
 31
0.0
  0
LINE
  5
31C
330
1F
100
AcDbEntity
  8
0
  6
CENTERX2
 62
     7
100
AcDbLine
 10
2077.0
 20
0.0
 30
0.0
 11
2077.0
 21
12.0
 31
0.0
  0
LINE
  5
31D
330
1F
100
AcDbEntity
  8
0
  6
CENTERX2
 62
     7
100
AcDbLine
 10
2077.0
 20
12.0
 30
0.0
 11
2052.0
 21
12.0
 31
0.0
  0
LINE
  5
31E
330
1F
100
AcDbEntity
  8
0
  6
CENTERX2
 62
     7
100
AcDbLine
 10
2080.5
 20
0.0
 30
0.0
 11
2080.5
 21
12.0
 31
0.0
  0
LINE
  5
31F
330
1F
100
AcDbEntity
  8
0
  6
Continuous
 62
     7
100
AcDbLine
 10
2080.5
 20
0.0
 30
0.0
 11
2105.5
 21
0.0
 31
0.0
  0
LINE
  5
320
330
1F
100
AcDbEntity
  8
0
  6
Continuous
 62
     7
100
AcDbLine
 10
2105.5
 20
12.0
 30
0.0
 11
2109.0
 21
12.0
 31
0.0
  0
LINE
  5
321
330
1F
100
AcDbEntity
  8
0
  6
Continuous
 62
     7
100
AcDbLine
 10
2105.5
 20
0.0
 30
0.0
 11
2109.0
 21
0.0
 31
0.0
  0
LINE
  5
322
330
1F
100
AcDbEntity
  8
0
  6
CENTERX2
 62
     7
100
AcDbLine
 10
2093.0
 20
19.0
 30
0.0
 11
2093.0
 21
0.0
 31
0.0
  0
LINE
  5
323
330
1F
100
AcDbEntity
  8
0
  6
CENTERX2
 62
     7
100
AcDbLine
 10
2080.5
 20
0.0
 30
0.0
 11
2080.5
 21
12.0
 31
0.0
  0
LINE
  5
324
330
1F
100
AcDbEntity
  8
0
  6
CENTERX2
 62
     7
100
AcDbLine
 10
2105.5
 20
0.0
 30
0.0
 11
2105.5
 21
12.0
 31
0.0
  0
LINE
  5
325
330
1F
100
AcDbEntity
  8
0
  6
CENTERX2
 62
     7
100
AcDbLine
 10
2105.5
 20
12.0
 30
0.0
 11
2080.5
 21
12.0
 31
0.0
  0
LINE
  5
326
330
1F
100
AcDbEntity
  8
0
  6
CENTERX2
 62
     7
100
AcDbLine
 10
2109.0
 20
0.0
 30
0.0
 11
2109.0
 21
12.0
 31
0.0
  0
LINE
  5
327
330
1F
100
AcDbEntity
  8
0
  6
Continuous
 62
     7
100
AcDbLine
 10
2109.0
 20
0.0
 30
0.0
 11
2134.0
 21
0.0
 31
0.0
  0
LINE
  5
328
330
1F
100
AcDbEntity
  8
0
  6
Continuous
 62
     7
100
AcDbLine
 10
2134.0
 20
12.0
 30
0.0
 11
2137.5
 21
12.0
 31
0.0
  0
LINE
  5
329
330
1F
100
AcDbEntity
  8
0
  6
Continuous
 62
     7
100
AcDbLine
 10
2134.0
 20
0.0
 30
0.0
 11
2137.5
 21
0.0
 31
0.0
  0
LINE
  5
32A
330
1F
100
AcDbEntity
  8
0
  6
CENTERX2
 62
     7
100
AcDbLine
 10
2121.5
 20
19.0
 30
0.0
 11
2121.5
 21
0.0
 31
0.0
  0
LINE
  5
32B
330
1F
100
AcDbEntity
  8
0
  6
CENTERX2
 62
     7
100
AcDbLine
 10
2109.0
 20
0.0
 30
0.0
 11
2109.0
 21
12.0
 31
0.0
  0
LINE
  5
32C
330
1F
100
AcDbEntity
  8
0
  6
CENTERX2
 62
     7
100
AcDbLine
 10
2134.0
 20
0.0
 30
0.0
 11
2134.0
 21
12.0
 31
0.0
  0
LINE
  5
32D
330
1F
100
AcDbEntity
  8
0
  6
CENTERX2
 62
     7
100
AcDbLine
 10
2134.0
 20
12.0
 30
0.0
 11
2109.0
 21
12.0
 31
0.0
  0
LINE
  5
32E
330
1F
100
AcDbEntity
  8
0
  6
CENTERX2
 62
     7
100
AcDbLine
 10
2137.5
 20
0.0
 30
0.0
 11
2137.5
 21
12.0
 31
0.0
  0
LINE
  5
32F
330
1F
100
AcDbEntity
  8
0
  6
Continuous
 62
     7
100
AcDbLine
 10
2137.5
 20
0.0
 30
0.0
 11
2162.5
 21
0.0
 31
0.0
  0
LINE
  5
330
330
1F
100
AcDbEntity
  8
0
  6
Continuous
 62
     7
100
AcDbLine
 10
2162.5
 20
12.0
 30
0.0
 11
2166.0
 21
12.0
 31
0.0
  0
LINE
  5
331
330
1F
100
AcDbEntity
  8
0
  6
Continuous
 62
     7
100
AcDbLine
 10
2162.5
 20
0.0
 30
0.0
 11
2166.0
 21
0.0
 31
0.0
  0
LINE
  5
332
330
1F
100
AcDbEntity
  8
0
  6
CENTERX2
 62
     7
100
AcDbLine
 10
2150.0
 20
19.0
 30
0.0
 11
2150.0
 21
0.0
 31
0.0
  0
LINE
  5
333
330
1F
100
AcDbEntity
  8
0
  6
CENTERX2
 62
     7
100
AcDbLine
 10
2137.5
 20
0.0
 30
0.0
 11
2137.5
 21
12.0
 31
0.0
  0
LINE
  5
334
330
1F
100
AcDbEntity
  8
0
  6
CENTERX2
 62
     7
100
AcDbLine
 10
2162.5
 20
0.0
 30
0.0
 11
2162.5
 21
12.0
 31
0.0
  0
LINE
  5
335
330
1F
100
AcDbEntity
  8
0
  6
CENTERX2
 62
     7
100
AcDbLine
 10
2162.5
 20
12.0
 30
0.0
 11
2137.5
 21
12.0
 31
0.0
  0
LINE
  5
336
330
1F
100
AcDbEntity
  8
0
  6
CENTERX2
 62
     7
100
AcDbLine
 10
2166.0
 20
0.0
 30
0.0
 11
2166.0
 21
12.0
 31
0.0
  0
LINE
  5
337
330
1F
100
AcDbEntity
  8
0
  6
Continuous
 62
     7
100
AcDbLine
 10
2166.0
 20
0.0
 30
0.0
 11
2191.0
 21
0.0
 31
0.0
  0
LINE
  5
338
330
1F
100
AcDbEntity
  8
0
  6
Continuous
 62
     7
100
AcDbLine
 10
2191.0
 20
12.0
 30
0.0
 11
2194.5
 21
12.0
 31
0.0
  0
LINE
  5
339
330
1F
100
AcDbEntity
  8
0
  6
Continuous
 62
     7
100
AcDbLine
 10
2191.0
 20
0.0
 30
0.0
 11
2194.5
 21
0.0
 31
0.0
  0
LINE
  5
33A
330
1F
100
AcDbEntity
  8
0
  6
CENTERX2
 62
     7
100
AcDbLine
 10
2178.5
 20
19.0
 30
0.0
 11
2178.5
 21
0.0
 31
0.0
  0
LINE
  5
33B
330
1F
100
AcDbEntity
  8
0
  6
CENTERX2
 62
     7
100
AcDbLine
 10
2166.0
 20
0.0
 30
0.0
 11
2166.0
 21
12.0
 31
0.0
  0
LINE
  5
33C
330
1F
100
AcDbEntity
  8
0
  6
CENTERX2
 62
     7
100
AcDbLine
 10
2191.0
 20
0.0
 30
0.0
 11
2191.0
 21
12.0
 31
0.0
  0
LINE
  5
33D
330
1F
100
AcDbEntity
  8
0
  6
CENTERX2
 62
     7
100
AcDbLine
 10
2191.0
 20
12.0
 30
0.0
 11
2166.0
 21
12.0
 31
0.0
  0
LINE
  5
33E
330
1F
100
AcDbEntity
  8
0
  6
CENTERX2
 62
     7
100
AcDbLine
 10
2194.5
 20
0.0
 30
0.0
 11
2194.5
 21
12.0
 31
0.0
  0
LINE
  5
33F
330
1F
100
AcDbEntity
  8
0
  6
Continuous
 62
     7
100
AcDbLine
 10
2194.5
 20
0.0
 30
0.0
 11
2219.5
 21
0.0
 31
0.0
  0
LINE
  5
340
330
1F
100
AcDbEntity
  8
0
  6
Continuous
 62
     7
100
AcDbLine
 10
2219.5
 20
12.0
 30
0.0
 11
2223.0
 21
12.0
 31
0.0
  0
LINE
  5
341
330
1F
100
AcDbEntity
  8
0
  6
Continuous
 62
     7
100
AcDbLine
 10
2219.5
 20
0.0
 30
0.0
 11
2223.0
 21
0.0
 31
0.0
  0
LINE
  5
342
330
1F
100
AcDbEntity
  8
0
  6
CENTERX2
 62
     7
100
AcDbLine
 10
2207.0
 20
19.0
 30
0.0
 11
2207.0
 21
0.0
 31
0.0
  0
LINE
  5
343
330
1F
100
AcDbEntity
  8
0
  6
CENTERX2
 62
     7
100
AcDbLine
 10
2194.5
 20
0.0
 30
0.0
 11
2194.5
 21
12.0
 31
0.0
  0
LINE
  5
344
330
1F
100
AcDbEntity
  8
0
  6
CENTERX2
 62
     7
100
AcDbLine
 10
2219.5
 20
0.0
 30
0.0
 11
2219.5
 21
12.0
 31
0.0
  0
LINE
  5
345
330
1F
100
AcDbEntity
  8
0
  6
CENTERX2
 62
     7
100
AcDbLine
 10
2219.5
 20
12.0
 30
0.0
 11
2194.5
 21
12.0
 31
0.0
  0
LINE
  5
346
330
1F
100
AcDbEntity
  8
0
  6
CENTERX2
 62
     7
100
AcDbLine
 10
2223.0
 20
0.0
 30
0.0
 11
2223.0
 21
12.0
 31
0.0
  0
LINE
  5
347
330
1F
100
AcDbEntity
  8
0
  6
Continuous
 62
     7
100
AcDbLine
 10
2223.0
 20
0.0
 30
0.0
 11
2248.0
 21
0.0
 31
0.0
  0
LINE
  5
348
330
1F
100
AcDbEntity
  8
0
  6
Continuous
 62
     7
100
AcDbLine
 10
2248.0
 20
12.0
 30
0.0
 11
2251.5
 21
12.0
 31
0.0
  0
LINE
  5
349
330
1F
100
AcDbEntity
  8
0
  6
Continuous
 62
     7
100
AcDbLine
 10
2248.0
 20
0.0
 30
0.0
 11
2251.5
 21
0.0
 31
0.0
  0
LINE
  5
34A
330
1F
100
AcDbEntity
  8
0
  6
CENTERX2
 62
     7
100
AcDbLine
 10
2235.5
 20
19.0
 30
0.0
 11
2235.5
 21
0.0
 31
0.0
  0
LINE
  5
34B
330
1F
100
AcDbEntity
  8
0
  6
CENTERX2
 62
     7
100
AcDbLine
 10
2223.0
 20
0.0
 30
0.0
 11
2223.0
 21
12.0
 31
0.0
  0
LINE
  5
34C
330
1F
100
AcDbEntity
  8
0
  6
CENTERX2
 62
     7
100
AcDbLine
 10
2248.0
 20
0.0
 30
0.0
 11
2248.0
 21
12.0
 31
0.0
  0
LINE
  5
34D
330
1F
100
AcDbEntity
  8
0
  6
CENTERX2
 62
     7
100
AcDbLine
 10
2248.0
 20
12.0
 30
0.0
 11
2223.0
 21
12.0
 31
0.0
  0
LINE
  5
34E
330
1F
100
AcDbEntity
  8
0
  6
CENTERX2
 62
     7
100
AcDbLine
 10
2251.5
 20
0.0
 30
0.0
 11
2251.5
 21
12.0
 31
0.0
  0
LINE
  5
34F
330
1F
100
AcDbEntity
  8
0
  6
Continuous
 62
     7
100
AcDbLine
 10
2251.5
 20
0.0
 30
0.0
 11
2276.5
 21
0.0
 31
0.0
  0
LINE
  5
350
330
1F
100
AcDbEntity
  8
0
  6
Continuous
 62
     7
100
AcDbLine
 10
2276.5
 20
12.0
 30
0.0
 11
2280.0
 21
12.0
 31
0.0
  0
LINE
  5
351
330
1F
100
AcDbEntity
  8
0
  6
Continuous
 62
     7
100
AcDbLine
 10
2276.5
 20
0.0
 30
0.0
 11
2280.0
 21
0.0
 31
0.0
  0
LINE
  5
352
330
1F
100
AcDbEntity
  8
0
  6
CENTERX2
 62
     7
100
AcDbLine
 10
2264.0
 20
19.0
 30
0.0
 11
2264.0
 21
0.0
 31
0.0
  0
LINE
  5
353
330
1F
100
AcDbEntity
  8
0
  6
CENTERX2
 62
     7
100
AcDbLine
 10
2251.5
 20
0.0
 30
0.0
 11
2251.5
 21
12.0
 31
0.0
  0
LINE
  5
354
330
1F
100
AcDbEntity
  8
0
  6
CENTERX2
 62
     7
100
AcDbLine
 10
2276.5
 20
0.0
 30
0.0
 11
2276.5
 21
12.0
 31
0.0
  0
LINE
  5
355
330
1F
100
AcDbEntity
  8
0
  6
CENTERX2
 62
     7
100
AcDbLine
 10
2276.5
 20
12.0
 30
0.0
 11
2251.5
 21
12.0
 31
0.0
  0
LINE
  5
356
330
1F
100
AcDbEntity
  8
0
  6
CENTERX2
 62
     7
100
AcDbLine
 10
2280.0
 20
0.0
 30
0.0
 11
2280.0
 21
12.0
 31
0.0
  0
LINE
  5
357
330
1F
100
AcDbEntity
  8
0
  6
Continuous
 62
     7
100
AcDbLine
 10
2280.0
 20
0.0
 30
0.0
 11
2305.0
 21
0.0
 31
0.0
  0
LINE
  5
358
330
1F
100
AcDbEntity
  8
0
  6
Continuous
 62
     7
100
AcDbLine
 10
2305.0
 20
12.0
 30
0.0
 11
2308.5
 21
12.0
 31
0.0
  0
LINE
  5
359
330
1F
100
AcDbEntity
  8
0
  6
Continuous
 62
     7
100
AcDbLine
 10
2305.0
 20
0.0
 30
0.0
 11
2308.5
 21
0.0
 31
0.0
  0
LINE
  5
35A
330
1F
100
AcDbEntity
  8
0
  6
CENTERX2
 62
     7
100
AcDbLine
 10
2292.5
 20
19.0
 30
0.0
 11
2292.5
 21
0.0
 31
0.0
  0
LINE
  5
35B
330
1F
100
AcDbEntity
  8
0
  6
CENTERX2
 62
     7
100
AcDbLine
 10
2280.0
 20
0.0
 30
0.0
 11
2280.0
 21
12.0
 31
0.0
  0
LINE
  5
35C
330
1F
100
AcDbEntity
  8
0
  6
CENTERX2
 62
     7
100
AcDbLine
 10
2305.0
 20
0.0
 30
0.0
 11
2305.0
 21
12.0
 31
0.0
  0
LINE
  5
35D
330
1F
100
AcDbEntity
  8
0
  6
CENTERX2
 62
     7
100
AcDbLine
 10
2305.0
 20
12.0
 30
0.0
 11
2280.0
 21
12.0
 31
0.0
  0
LINE
  5
35E
330
1F
100
AcDbEntity
  8
0
  6
CENTERX2
 62
     7
100
AcDbLine
 10
2308.5
 20
0.0
 30
0.0
 11
2308.5
 21
12.0
 31
0.0
  0
LINE
  5
35F
330
1F
100
AcDbEntity
  8
0
  6
Continuous
 62
     7
100
AcDbLine
 10
2308.5
 20
0.0
 30
0.0
 11
2333.5
 21
0.0
 31
0.0
  0
LINE
  5
360
330
1F
100
AcDbEntity
  8
0
  6
Continuous
 62
     7
100
AcDbLine
 10
2333.5
 20
12.0
 30
0.0
 11
2337.0
 21
12.0
 31
0.0
  0
LINE
  5
361
330
1F
100
AcDbEntity
  8
0
  6
Continuous
 62
     7
100
AcDbLine
 10
2333.5
 20
0.0
 30
0.0
 11
2337.0
 21
0.0
 31
0.0
  0
LINE
  5
362
330
1F
100
AcDbEntity
  8
0
  6
CENTERX2
 62
     7
100
AcDbLine
 10
2321.0
 20
19.0
 30
0.0
 11
2321.0
 21
0.0
 31
0.0
  0
LINE
  5
363
330
1F
100
AcDbEntity
  8
0
  6
CENTERX2
 62
     7
100
AcDbLine
 10
2308.5
 20
0.0
 30
0.0
 11
2308.5
 21
12.0
 31
0.0
  0
LINE
  5
364
330
1F
100
AcDbEntity
  8
0
  6
CENTERX2
 62
     7
100
AcDbLine
 10
2333.5
 20
0.0
 30
0.0
 11
2333.5
 21
12.0
 31
0.0
  0
LINE
  5
365
330
1F
100
AcDbEntity
  8
0
  6
CENTERX2
 62
     7
100
AcDbLine
 10
2333.5
 20
12.0
 30
0.0
 11
2308.5
 21
12.0
 31
0.0
  0
LINE
  5
366
330
1F
100
AcDbEntity
  8
0
  6
CENTERX2
 62
     7
100
AcDbLine
 10
2337.0
 20
0.0
 30
0.0
 11
2337.0
 21
12.0
 31
0.0
  0
LINE
  5
367
330
1F
100
AcDbEntity
  8
0
  6
Continuous
 62
     7
100
AcDbLine
 10
2337.0
 20
0.0
 30
0.0
 11
2362.0
 21
0.0
 31
0.0
  0
LINE
  5
368
330
1F
100
AcDbEntity
  8
0
  6
Continuous
 62
     7
100
AcDbLine
 10
2362.0
 20
12.0
 30
0.0
 11
2365.5
 21
12.0
 31
0.0
  0
LINE
  5
369
330
1F
100
AcDbEntity
  8
0
  6
Continuous
 62
     7
100
AcDbLine
 10
2362.0
 20
0.0
 30
0.0
 11
2365.5
 21
0.0
 31
0.0
  0
LINE
  5
36A
330
1F
100
AcDbEntity
  8
0
  6
CENTERX2
 62
     7
100
AcDbLine
 10
2349.5
 20
19.0
 30
0.0
 11
2349.5
 21
0.0
 31
0.0
  0
LINE
  5
36B
330
1F
100
AcDbEntity
  8
0
  6
CENTERX2
 62
     7
100
AcDbLine
 10
2337.0
 20
0.0
 30
0.0
 11
2337.0
 21
12.0
 31
0.0
  0
LINE
  5
36C
330
1F
100
AcDbEntity
  8
0
  6
CENTERX2
 62
     7
100
AcDbLine
 10
2362.0
 20
0.0
 30
0.0
 11
2362.0
 21
12.0
 31
0.0
  0
LINE
  5
36D
330
1F
100
AcDbEntity
  8
0
  6
CENTERX2
 62
     7
100
AcDbLine
 10
2362.0
 20
12.0
 30
0.0
 11
2337.0
 21
12.0
 31
0.0
  0
LINE
  5
36E
330
1F
100
AcDbEntity
  8
0
  6
CENTERX2
 62
     7
100
AcDbLine
 10
2365.5
 20
0.0
 30
0.0
 11
2365.5
 21
12.0
 31
0.0
  0
LINE
  5
36F
330
1F
100
AcDbEntity
  8
0
  6
Continuous
 62
     7
100
AcDbLine
 10
2365.5
 20
0.0
 30
0.0
 11
2390.5
 21
0.0
 31
0.0
  0
LINE
  5
370
330
1F
100
AcDbEntity
  8
0
  6
Continuous
 62
     7
100
AcDbLine
 10
2390.5
 20
12.0
 30
0.0
 11
2394.0
 21
12.0
 31
0.0
  0
LINE
  5
371
330
1F
100
AcDbEntity
  8
0
  6
Continuous
 62
     7
100
AcDbLine
 10
2390.5
 20
0.0
 30
0.0
 11
2394.0
 21
0.0
 31
0.0
  0
LINE
  5
372
330
1F
100
AcDbEntity
  8
0
  6
CENTERX2
 62
     7
100
AcDbLine
 10
2378.0
 20
19.0
 30
0.0
 11
2378.0
 21
0.0
 31
0.0
  0
LINE
  5
373
330
1F
100
AcDbEntity
  8
0
  6
CENTERX2
 62
     7
100
AcDbLine
 10
2365.5
 20
0.0
 30
0.0
 11
2365.5
 21
12.0
 31
0.0
  0
LINE
  5
374
330
1F
100
AcDbEntity
  8
0
  6
CENTERX2
 62
     7
100
AcDbLine
 10
2390.5
 20
0.0
 30
0.0
 11
2390.5
 21
12.0
 31
0.0
  0
LINE
  5
375
330
1F
100
AcDbEntity
  8
0
  6
CENTERX2
 62
     7
100
AcDbLine
 10
2390.5
 20
12.0
 30
0.0
 11
2365.5
 21
12.0
 31
0.0
  0
LINE
  5
376
330
1F
100
AcDbEntity
  8
0
  6
CENTERX2
 62
     7
100
AcDbLine
 10
2394.0
 20
0.0
 30
0.0
 11
2394.0
 21
12.0
 31
0.0
  0
LINE
  5
377
330
1F
100
AcDbEntity
  8
0
  6
Continuous
 62
     7
100
AcDbLine
 10
2394.0
 20
0.0
 30
0.0
 11
2419.0
 21
0.0
 31
0.0
  0
LINE
  5
378
330
1F
100
AcDbEntity
  8
0
  6
Continuous
 62
     7
100
AcDbLine
 10
2419.0
 20
12.0
 30
0.0
 11
2422.5
 21
12.0
 31
0.0
  0
LINE
  5
379
330
1F
100
AcDbEntity
  8
0
  6
Continuous
 62
     7
100
AcDbLine
 10
2419.0
 20
0.0
 30
0.0
 11
2422.5
 21
0.0
 31
0.0
  0
LINE
  5
37A
330
1F
100
AcDbEntity
  8
0
  6
CENTERX2
 62
     7
100
AcDbLine
 10
2406.5
 20
19.0
 30
0.0
 11
2406.5
 21
0.0
 31
0.0
  0
LINE
  5
37B
330
1F
100
AcDbEntity
  8
0
  6
CENTERX2
 62
     7
100
AcDbLine
 10
2394.0
 20
0.0
 30
0.0
 11
2394.0
 21
12.0
 31
0.0
  0
LINE
  5
37C
330
1F
100
AcDbEntity
  8
0
  6
CENTERX2
 62
     7
100
AcDbLine
 10
2419.0
 20
0.0
 30
0.0
 11
2419.0
 21
12.0
 31
0.0
  0
LINE
  5
37D
330
1F
100
AcDbEntity
  8
0
  6
CENTERX2
 62
     7
100
AcDbLine
 10
2419.0
 20
12.0
 30
0.0
 11
2394.0
 21
12.0
 31
0.0
  0
LINE
  5
37E
330
1F
100
AcDbEntity
  8
0
  6
CENTERX2
 62
     7
100
AcDbLine
 10
2422.5
 20
0.0
 30
0.0
 11
2422.5
 21
12.0
 31
0.0
  0
LINE
  5
37F
330
1F
100
AcDbEntity
  8
0
  6
Continuous
 62
     7
100
AcDbLine
 10
2422.5
 20
0.0
 30
0.0
 11
2447.5
 21
0.0
 31
0.0
  0
LINE
  5
380
330
1F
100
AcDbEntity
  8
0
  6
Continuous
 62
     7
100
AcDbLine
 10
2447.5
 20
12.0
 30
0.0
 11
2451.0
 21
12.0
 31
0.0
  0
LINE
  5
381
330
1F
100
AcDbEntity
  8
0
  6
Continuous
 62
     7
100
AcDbLine
 10
2447.5
 20
0.0
 30
0.0
 11
2451.0
 21
0.0
 31
0.0
  0
LINE
  5
382
330
1F
100
AcDbEntity
  8
0
  6
CENTERX2
 62
     7
100
AcDbLine
 10
2435.0
 20
19.0
 30
0.0
 11
2435.0
 21
0.0
 31
0.0
  0
LINE
  5
383
330
1F
100
AcDbEntity
  8
0
  6
CENTERX2
 62
     7
100
AcDbLine
 10
2422.5
 20
0.0
 30
0.0
 11
2422.5
 21
12.0
 31
0.0
  0
LINE
  5
384
330
1F
100
AcDbEntity
  8
0
  6
CENTERX2
 62
     7
100
AcDbLine
 10
2447.5
 20
0.0
 30
0.0
 11
2447.5
 21
12.0
 31
0.0
  0
LINE
  5
385
330
1F
100
AcDbEntity
  8
0
  6
CENTERX2
 62
     7
100
AcDbLine
 10
2447.5
 20
12.0
 30
0.0
 11
2422.5
 21
12.0
 31
0.0
  0
LINE
  5
386
330
1F
100
AcDbEntity
  8
0
  6
CENTERX2
 62
     7
100
AcDbLine
 10
2451.0
 20
0.0
 30
0.0
 11
2451.0
 21
12.0
 31
0.0
  0
LINE
  5
387
330
1F
100
AcDbEntity
  8
0
  6
Continuous
 62
     7
100
AcDbLine
 10
2451.0
 20
0.0
 30
0.0
 11
2476.0
 21
0.0
 31
0.0
  0
LINE
  5
388
330
1F
100
AcDbEntity
  8
0
  6
Continuous
 62
     7
100
AcDbLine
 10
2476.0
 20
12.0
 30
0.0
 11
2479.5
 21
12.0
 31
0.0
  0
LINE
  5
389
330
1F
100
AcDbEntity
  8
0
  6
Continuous
 62
     7
100
AcDbLine
 10
2476.0
 20
0.0
 30
0.0
 11
2479.5
 21
0.0
 31
0.0
  0
LINE
  5
38A
330
1F
100
AcDbEntity
  8
0
  6
CENTERX2
 62
     7
100
AcDbLine
 10
2463.5
 20
19.0
 30
0.0
 11
2463.5
 21
0.0
 31
0.0
  0
LINE
  5
38B
330
1F
100
AcDbEntity
  8
0
  6
CENTERX2
 62
     7
100
AcDbLine
 10
2451.0
 20
0.0
 30
0.0
 11
2451.0
 21
12.0
 31
0.0
  0
LINE
  5
38C
330
1F
100
AcDbEntity
  8
0
  6
CENTERX2
 62
     7
100
AcDbLine
 10
2476.0
 20
0.0
 30
0.0
 11
2476.0
 21
12.0
 31
0.0
  0
LINE
  5
38D
330
1F
100
AcDbEntity
  8
0
  6
CENTERX2
 62
     7
100
AcDbLine
 10
2476.0
 20
12.0
 30
0.0
 11
2451.0
 21
12.0
 31
0.0
  0
LINE
  5
38E
330
1F
100
AcDbEntity
  8
0
  6
CENTERX2
 62
     7
100
AcDbLine
 10
2479.5
 20
0.0
 30
0.0
 11
2479.5
 21
12.0
 31
0.0
  0
LINE
  5
38F
330
1F
100
AcDbEntity
  8
0
  6
Continuous
 62
     7
100
AcDbLine
 10
2479.5
 20
0.0
 30
0.0
 11
2504.5
 21
0.0
 31
0.0
  0
LINE
  5
390
330
1F
100
AcDbEntity
  8
0
  6
Continuous
 62
     7
100
AcDbLine
 10
2504.5
 20
12.0
 30
0.0
 11
2508.0
 21
12.0
 31
0.0
  0
LINE
  5
391
330
1F
100
AcDbEntity
  8
0
  6
Continuous
 62
     7
100
AcDbLine
 10
2504.5
 20
0.0
 30
0.0
 11
2508.0
 21
0.0
 31
0.0
  0
LINE
  5
392
330
1F
100
AcDbEntity
  8
0
  6
CENTERX2
 62
     7
100
AcDbLine
 10
2492.0
 20
19.0
 30
0.0
 11
2492.0
 21
0.0
 31
0.0
  0
LINE
  5
393
330
1F
100
AcDbEntity
  8
0
  6
CENTERX2
 62
     7
100
AcDbLine
 10
2479.5
 20
0.0
 30
0.0
 11
2479.5
 21
12.0
 31
0.0
  0
LINE
  5
394
330
1F
100
AcDbEntity
  8
0
  6
CENTERX2
 62
     7
100
AcDbLine
 10
2504.5
 20
0.0
 30
0.0
 11
2504.5
 21
12.0
 31
0.0
  0
LINE
  5
395
330
1F
100
AcDbEntity
  8
0
  6
CENTERX2
 62
     7
100
AcDbLine
 10
2504.5
 20
12.0
 30
0.0
 11
2479.5
 21
12.0
 31
0.0
  0
LINE
  5
396
330
1F
100
AcDbEntity
  8
0
  6
CENTERX2
 62
     7
100
AcDbLine
 10
2508.0
 20
0.0
 30
0.0
 11
2508.0
 21
12.0
 31
0.0
  0
LINE
  5
397
330
1F
100
AcDbEntity
  8
0
  6
Continuous
 62
     7
100
AcDbLine
 10
2508.0
 20
0.0
 30
0.0
 11
2533.0
 21
0.0
 31
0.0
  0
LINE
  5
398
330
1F
100
AcDbEntity
  8
0
  6
Continuous
 62
     7
100
AcDbLine
 10
2533.0
 20
12.0
 30
0.0
 11
2536.5
 21
12.0
 31
0.0
  0
LINE
  5
399
330
1F
100
AcDbEntity
  8
0
  6
Continuous
 62
     7
100
AcDbLine
 10
2533.0
 20
0.0
 30
0.0
 11
2536.5
 21
0.0
 31
0.0
  0
LINE
  5
39A
330
1F
100
AcDbEntity
  8
0
  6
CENTERX2
 62
     7
100
AcDbLine
 10
2520.5
 20
19.0
 30
0.0
 11
2520.5
 21
0.0
 31
0.0
  0
LINE
  5
39B
330
1F
100
AcDbEntity
  8
0
  6
CENTERX2
 62
     7
100
AcDbLine
 10
2508.0
 20
0.0
 30
0.0
 11
2508.0
 21
12.0
 31
0.0
  0
LINE
  5
39C
330
1F
100
AcDbEntity
  8
0
  6
CENTERX2
 62
     7
100
AcDbLine
 10
2533.0
 20
0.0
 30
0.0
 11
2533.0
 21
12.0
 31
0.0
  0
LINE
  5
39D
330
1F
100
AcDbEntity
  8
0
  6
CENTERX2
 62
     7
100
AcDbLine
 10
2533.0
 20
12.0
 30
0.0
 11
2508.0
 21
12.0
 31
0.0
  0
LINE
  5
39E
330
1F
100
AcDbEntity
  8
0
  6
CENTERX2
 62
     7
100
AcDbLine
 10
2536.5
 20
0.0
 30
0.0
 11
2536.5
 21
12.0
 31
0.0
  0
LINE
  5
39F
330
1F
100
AcDbEntity
  8
0
  6
Continuous
 62
     7
100
AcDbLine
 10
2536.5
 20
0.0
 30
0.0
 11
2561.5
 21
0.0
 31
0.0
  0
LINE
  5
3A0
330
1F
100
AcDbEntity
  8
0
  6
Continuous
 62
     7
100
AcDbLine
 10
2561.5
 20
12.0
 30
0.0
 11
2565.0
 21
12.0
 31
0.0
  0
LINE
  5
3A1
330
1F
100
AcDbEntity
  8
0
  6
Continuous
 62
     7
100
AcDbLine
 10
2561.5
 20
0.0
 30
0.0
 11
2565.0
 21
0.0
 31
0.0
  0
LINE
  5
3A2
330
1F
100
AcDbEntity
  8
0
  6
CENTERX2
 62
     7
100
AcDbLine
 10
2549.0
 20
19.0
 30
0.0
 11
2549.0
 21
0.0
 31
0.0
  0
LINE
  5
3A3
330
1F
100
AcDbEntity
  8
0
  6
CENTERX2
 62
     7
100
AcDbLine
 10
2536.5
 20
0.0
 30
0.0
 11
2536.5
 21
12.0
 31
0.0
  0
LINE
  5
3A4
330
1F
100
AcDbEntity
  8
0
  6
CENTERX2
 62
     7
100
AcDbLine
 10
2561.5
 20
0.0
 30
0.0
 11
2561.5
 21
12.0
 31
0.0
  0
LINE
  5
3A5
330
1F
100
AcDbEntity
  8
0
  6
CENTERX2
 62
     7
100
AcDbLine
 10
2561.5
 20
12.0
 30
0.0
 11
2536.5
 21
12.0
 31
0.0
  0
LINE
  5
3A6
330
1F
100
AcDbEntity
  8
0
  6
CENTERX2
 62
     7
100
AcDbLine
 10
2565.0
 20
0.0
 30
0.0
 11
2565.0
 21
12.0
 31
0.0
  0
LINE
  5
3A7
330
1F
100
AcDbEntity
  8
0
  6
Continuous
 62
     7
100
AcDbLine
 10
2565.0
 20
0.0
 30
0.0
 11
2590.0
 21
0.0
 31
0.0
  0
LINE
  5
3A8
330
1F
100
AcDbEntity
  8
0
  6
Continuous
 62
     7
100
AcDbLine
 10
2590.0
 20
12.0
 30
0.0
 11
2593.5
 21
12.0
 31
0.0
  0
LINE
  5
3A9
330
1F
100
AcDbEntity
  8
0
  6
Continuous
 62
     7
100
AcDbLine
 10
2590.0
 20
0.0
 30
0.0
 11
2593.5
 21
0.0
 31
0.0
  0
LINE
  5
3AA
330
1F
100
AcDbEntity
  8
0
  6
CENTERX2
 62
     7
100
AcDbLine
 10
2577.5
 20
19.0
 30
0.0
 11
2577.5
 21
0.0
 31
0.0
  0
LINE
  5
3AB
330
1F
100
AcDbEntity
  8
0
  6
CENTERX2
 62
     7
100
AcDbLine
 10
2565.0
 20
0.0
 30
0.0
 11
2565.0
 21
12.0
 31
0.0
  0
LINE
  5
3AC
330
1F
100
AcDbEntity
  8
0
  6
CENTERX2
 62
     7
100
AcDbLine
 10
2590.0
 20
0.0
 30
0.0
 11
2590.0
 21
12.0
 31
0.0
  0
LINE
  5
3AD
330
1F
100
AcDbEntity
  8
0
  6
CENTERX2
 62
     7
100
AcDbLine
 10
2590.0
 20
12.0
 30
0.0
 11
2565.0
 21
12.0
 31
0.0
  0
LINE
  5
3AE
330
1F
100
AcDbEntity
  8
0
  6
CENTERX2
 62
     7
100
AcDbLine
 10
2593.5
 20
0.0
 30
0.0
 11
2593.5
 21
12.0
 31
0.0
  0
LINE
  5
3AF
330
1F
100
AcDbEntity
  8
0
  6
Continuous
 62
     7
100
AcDbLine
 10
2593.5
 20
0.0
 30
0.0
 11
2618.5
 21
0.0
 31
0.0
  0
LINE
  5
3B0
330
1F
100
AcDbEntity
  8
0
  6
Continuous
 62
     7
100
AcDbLine
 10
2618.5
 20
12.0
 30
0.0
 11
2622.0
 21
12.0
 31
0.0
  0
LINE
  5
3B1
330
1F
100
AcDbEntity
  8
0
  6
Continuous
 62
     7
100
AcDbLine
 10
2618.5
 20
0.0
 30
0.0
 11
2622.0
 21
0.0
 31
0.0
  0
LINE
  5
3B2
330
1F
100
AcDbEntity
  8
0
  6
CENTERX2
 62
     7
100
AcDbLine
 10
2606.0
 20
19.0
 30
0.0
 11
2606.0
 21
0.0
 31
0.0
  0
LINE
  5
3B3
330
1F
100
AcDbEntity
  8
0
  6
CENTERX2
 62
     7
100
AcDbLine
 10
2593.5
 20
0.0
 30
0.0
 11
2593.5
 21
12.0
 31
0.0
  0
LINE
  5
3B4
330
1F
100
AcDbEntity
  8
0
  6
CENTERX2
 62
     7
100
AcDbLine
 10
2618.5
 20
0.0
 30
0.0
 11
2618.5
 21
12.0
 31
0.0
  0
LINE
  5
3B5
330
1F
100
AcDbEntity
  8
0
  6
CENTERX2
 62
     7
100
AcDbLine
 10
2618.5
 20
12.0
 30
0.0
 11
2593.5
 21
12.0
 31
0.0
  0
LINE
  5
3B6
330
1F
100
AcDbEntity
  8
0
  6
CENTERX2
 62
     7
100
AcDbLine
 10
2622.0
 20
0.0
 30
0.0
 11
2622.0
 21
12.0
 31
0.0
  0
LINE
  5
3B7
330
1F
100
AcDbEntity
  8
0
  6
Continuous
 62
     7
100
AcDbLine
 10
2622.0
 20
0.0
 30
0.0
 11
2647.0
 21
0.0
 31
0.0
  0
LINE
  5
3B8
330
1F
100
AcDbEntity
  8
0
  6
Continuous
 62
     7
100
AcDbLine
 10
2647.0
 20
12.0
 30
0.0
 11
2650.5
 21
12.0
 31
0.0
  0
LINE
  5
3B9
330
1F
100
AcDbEntity
  8
0
  6
Continuous
 62
     7
100
AcDbLine
 10
2647.0
 20
0.0
 30
0.0
 11
2650.5
 21
0.0
 31
0.0
  0
LINE
  5
3BA
330
1F
100
AcDbEntity
  8
0
  6
CENTERX2
 62
     7
100
AcDbLine
 10
2634.5
 20
19.0
 30
0.0
 11
2634.5
 21
0.0
 31
0.0
  0
LINE
  5
3BB
330
1F
100
AcDbEntity
  8
0
  6
CENTERX2
 62
     7
100
AcDbLine
 10
2622.0
 20
0.0
 30
0.0
 11
2622.0
 21
12.0
 31
0.0
  0
LINE
  5
3BC
330
1F
100
AcDbEntity
  8
0
  6
CENTERX2
 62
     7
100
AcDbLine
 10
2647.0
 20
0.0
 30
0.0
 11
2647.0
 21
12.0
 31
0.0
  0
LINE
  5
3BD
330
1F
100
AcDbEntity
  8
0
  6
CENTERX2
 62
     7
100
AcDbLine
 10
2647.0
 20
12.0
 30
0.0
 11
2622.0
 21
12.0
 31
0.0
  0
LINE
  5
3BE
330
1F
100
AcDbEntity
  8
0
  6
CENTERX2
 62
     7
100
AcDbLine
 10
2650.5
 20
0.0
 30
0.0
 11
2650.5
 21
12.0
 31
0.0
  0
LINE
  5
3BF
330
1F
100
AcDbEntity
  8
0
  6
Continuous
 62
     7
100
AcDbLine
 10
2650.5
 20
0.0
 30
0.0
 11
2675.5
 21
0.0
 31
0.0
  0
LINE
  5
3C0
330
1F
100
AcDbEntity
  8
0
  6
Continuous
 62
     7
100
AcDbLine
 10
2675.5
 20
12.0
 30
0.0
 11
2679.0
 21
12.0
 31
0.0
  0
LINE
  5
3C1
330
1F
100
AcDbEntity
  8
0
  6
Continuous
 62
     7
100
AcDbLine
 10
2675.5
 20
0.0
 30
0.0
 11
2679.0
 21
0.0
 31
0.0
  0
LINE
  5
3C2
330
1F
100
AcDbEntity
  8
0
  6
CENTERX2
 62
     7
100
AcDbLine
 10
2663.0
 20
19.0
 30
0.0
 11
2663.0
 21
0.0
 31
0.0
  0
LINE
  5
3C3
330
1F
100
AcDbEntity
  8
0
  6
CENTERX2
 62
     7
100
AcDbLine
 10
2650.5
 20
0.0
 30
0.0
 11
2650.5
 21
12.0
 31
0.0
  0
LINE
  5
3C4
330
1F
100
AcDbEntity
  8
0
  6
CENTERX2
 62
     7
100
AcDbLine
 10
2675.5
 20
0.0
 30
0.0
 11
2675.5
 21
12.0
 31
0.0
  0
LINE
  5
3C5
330
1F
100
AcDbEntity
  8
0
  6
CENTERX2
 62
     7
100
AcDbLine
 10
2675.5
 20
12.0
 30
0.0
 11
2650.5
 21
12.0
 31
0.0
  0
LINE
  5
3C6
330
1F
100
AcDbEntity
  8
0
  6
CENTERX2
 62
     7
100
AcDbLine
 10
2679.0
 20
0.0
 30
0.0
 11
2679.0
 21
12.0
 31
0.0
  0
LINE
  5
3C7
330
1F
100
AcDbEntity
  8
0
  6
Continuous
 62
     7
100
AcDbLine
 10
2679.0
 20
0.0
 30
0.0
 11
2704.0
 21
0.0
 31
0.0
  0
LINE
  5
3C8
330
1F
100
AcDbEntity
  8
0
  6
Continuous
 62
     7
100
AcDbLine
 10
2704.0
 20
12.0
 30
0.0
 11
2707.5
 21
12.0
 31
0.0
  0
LINE
  5
3C9
330
1F
100
AcDbEntity
  8
0
  6
Continuous
 62
     7
100
AcDbLine
 10
2704.0
 20
0.0
 30
0.0
 11
2707.5
 21
0.0
 31
0.0
  0
LINE
  5
3CA
330
1F
100
AcDbEntity
  8
0
  6
CENTERX2
 62
     7
100
AcDbLine
 10
2691.5
 20
19.0
 30
0.0
 11
2691.5
 21
0.0
 31
0.0
  0
LINE
  5
3CB
330
1F
100
AcDbEntity
  8
0
  6
CENTERX2
 62
     7
100
AcDbLine
 10
2679.0
 20
0.0
 30
0.0
 11
2679.0
 21
12.0
 31
0.0
  0
LINE
  5
3CC
330
1F
100
AcDbEntity
  8
0
  6
CENTERX2
 62
     7
100
AcDbLine
 10
2704.0
 20
0.0
 30
0.0
 11
2704.0
 21
12.0
 31
0.0
  0
LINE
  5
3CD
330
1F
100
AcDbEntity
  8
0
  6
CENTERX2
 62
     7
100
AcDbLine
 10
2704.0
 20
12.0
 30
0.0
 11
2679.0
 21
12.0
 31
0.0
  0
LINE
  5
3CE
330
1F
100
AcDbEntity
  8
0
  6
CENTERX2
 62
     7
100
AcDbLine
 10
2707.5
 20
0.0
 30
0.0
 11
2707.5
 21
12.0
 31
0.0
  0
LINE
  5
3CF
330
1F
100
AcDbEntity
  8
0
  6
Continuous
 62
     7
100
AcDbLine
 10
2707.5
 20
0.0
 30
0.0
 11
2732.5
 21
0.0
 31
0.0
  0
LINE
  5
3D0
330
1F
100
AcDbEntity
  8
0
  6
Continuous
 62
     7
100
AcDbLine
 10
2732.5
 20
12.0
 30
0.0
 11
2736.0
 21
12.0
 31
0.0
  0
LINE
  5
3D1
330
1F
100
AcDbEntity
  8
0
  6
Continuous
 62
     7
100
AcDbLine
 10
2732.5
 20
0.0
 30
0.0
 11
2736.0
 21
0.0
 31
0.0
  0
LINE
  5
3D2
330
1F
100
AcDbEntity
  8
0
  6
CENTERX2
 62
     7
100
AcDbLine
 10
2720.0
 20
19.0
 30
0.0
 11
2720.0
 21
0.0
 31
0.0
  0
LINE
  5
3D3
330
1F
100
AcDbEntity
  8
0
  6
CENTERX2
 62
     7
100
AcDbLine
 10
2707.5
 20
0.0
 30
0.0
 11
2707.5
 21
12.0
 31
0.0
  0
LINE
  5
3D4
330
1F
100
AcDbEntity
  8
0
  6
CENTERX2
 62
     7
100
AcDbLine
 10
2732.5
 20
0.0
 30
0.0
 11
2732.5
 21
12.0
 31
0.0
  0
LINE
  5
3D5
330
1F
100
AcDbEntity
  8
0
  6
CENTERX2
 62
     7
100
AcDbLine
 10
2732.5
 20
12.0
 30
0.0
 11
2707.5
 21
12.0
 31
0.0
  0
LINE
  5
3D6
330
1F
100
AcDbEntity
  8
0
  6
CENTERX2
 62
     7
100
AcDbLine
 10
2736.0
 20
0.0
 30
0.0
 11
2736.0
 21
12.0
 31
0.0
  0
LINE
  5
3D7
330
1F
100
AcDbEntity
  8
0
  6
Continuous
 62
     7
100
AcDbLine
 10
2736.0
 20
0.0
 30
0.0
 11
2761.0
 21
0.0
 31
0.0
  0
LINE
  5
3D8
330
1F
100
AcDbEntity
  8
0
  6
Continuous
 62
     7
100
AcDbLine
 10
2761.0
 20
12.0
 30
0.0
 11
2764.5
 21
12.0
 31
0.0
  0
LINE
  5
3D9
330
1F
100
AcDbEntity
  8
0
  6
Continuous
 62
     7
100
AcDbLine
 10
2761.0
 20
0.0
 30
0.0
 11
2764.5
 21
0.0
 31
0.0
  0
LINE
  5
3DA
330
1F
100
AcDbEntity
  8
0
  6
CENTERX2
 62
     7
100
AcDbLine
 10
2748.5
 20
19.0
 30
0.0
 11
2748.5
 21
0.0
 31
0.0
  0
LINE
  5
3DB
330
1F
100
AcDbEntity
  8
0
  6
CENTERX2
 62
     7
100
AcDbLine
 10
2736.0
 20
0.0
 30
0.0
 11
2736.0
 21
12.0
 31
0.0
  0
LINE
  5
3DC
330
1F
100
AcDbEntity
  8
0
  6
CENTERX2
 62
     7
100
AcDbLine
 10
2761.0
 20
0.0
 30
0.0
 11
2761.0
 21
12.0
 31
0.0
  0
LINE
  5
3DD
330
1F
100
AcDbEntity
  8
0
  6
CENTERX2
 62
     7
100
AcDbLine
 10
2761.0
 20
12.0
 30
0.0
 11
2736.0
 21
12.0
 31
0.0
  0
LINE
  5
3DE
330
1F
100
AcDbEntity
  8
0
  6
CENTERX2
 62
     7
100
AcDbLine
 10
2764.5
 20
0.0
 30
0.0
 11
2764.5
 21
12.0
 31
0.0
  0
LINE
  5
3DF
330
1F
100
AcDbEntity
  8
0
  6
Continuous
 62
     7
100
AcDbLine
 10
2764.5
 20
0.0
 30
0.0
 11
2789.5
 21
0.0
 31
0.0
  0
LINE
  5
3E0
330
1F
100
AcDbEntity
  8
0
  6
Continuous
 62
     7
100
AcDbLine
 10
2789.5
 20
12.0
 30
0.0
 11
2793.0
 21
12.0
 31
0.0
  0
LINE
  5
3E1
330
1F
100
AcDbEntity
  8
0
  6
Continuous
 62
     7
100
AcDbLine
 10
2789.5
 20
0.0
 30
0.0
 11
2793.0
 21
0.0
 31
0.0
  0
LINE
  5
3E2
330
1F
100
AcDbEntity
  8
0
  6
CENTERX2
 62
     7
100
AcDbLine
 10
2777.0
 20
19.0
 30
0.0
 11
2777.0
 21
0.0
 31
0.0
  0
LINE
  5
3E3
330
1F
100
AcDbEntity
  8
0
  6
CENTERX2
 62
     7
100
AcDbLine
 10
2764.5
 20
0.0
 30
0.0
 11
2764.5
 21
12.0
 31
0.0
  0
LINE
  5
3E4
330
1F
100
AcDbEntity
  8
0
  6
CENTERX2
 62
     7
100
AcDbLine
 10
2789.5
 20
0.0
 30
0.0
 11
2789.5
 21
12.0
 31
0.0
  0
LINE
  5
3E5
330
1F
100
AcDbEntity
  8
0
  6
CENTERX2
 62
     7
100
AcDbLine
 10
2789.5
 20
12.0
 30
0.0
 11
2764.5
 21
12.0
 31
0.0
  0
LINE
  5
3E6
330
1F
100
AcDbEntity
  8
0
  6
CENTERX2
 62
     7
100
AcDbLine
 10
2793.0
 20
0.0
 30
0.0
 11
2793.0
 21
12.0
 31
0.0
  0
LINE
  5
3E7
330
1F
100
AcDbEntity
  8
0
  6
Continuous
 62
     7
100
AcDbLine
 10
2793.0
 20
0.0
 30
0.0
 11
2818.0
 21
0.0
 31
0.0
  0
LINE
  5
3E8
330
1F
100
AcDbEntity
  8
0
  6
Continuous
 62
     7
100
AcDbLine
 10
2818.0
 20
12.0
 30
0.0
 11
2821.5
 21
12.0
 31
0.0
  0
LINE
  5
3E9
330
1F
100
AcDbEntity
  8
0
  6
Continuous
 62
     7
100
AcDbLine
 10
2818.0
 20
0.0
 30
0.0
 11
2821.5
 21
0.0
 31
0.0
  0
LINE
  5
3EA
330
1F
100
AcDbEntity
  8
0
  6
CENTERX2
 62
     7
100
AcDbLine
 10
2805.5
 20
19.0
 30
0.0
 11
2805.5
 21
0.0
 31
0.0
  0
LINE
  5
3EB
330
1F
100
AcDbEntity
  8
0
  6
CENTERX2
 62
     7
100
AcDbLine
 10
2793.0
 20
0.0
 30
0.0
 11
2793.0
 21
12.0
 31
0.0
  0
LINE
  5
3EC
330
1F
100
AcDbEntity
  8
0
  6
CENTERX2
 62
     7
100
AcDbLine
 10
2818.0
 20
0.0
 30
0.0
 11
2818.0
 21
12.0
 31
0.0
  0
LINE
  5
3ED
330
1F
100
AcDbEntity
  8
0
  6
CENTERX2
 62
     7
100
AcDbLine
 10
2818.0
 20
12.0
 30
0.0
 11
2793.0
 21
12.0
 31
0.0
  0
LINE
  5
3EE
330
1F
100
AcDbEntity
  8
0
  6
CENTERX2
 62
     7
100
AcDbLine
 10
2821.5
 20
0.0
 30
0.0
 11
2821.5
 21
12.0
 31
0.0
  0
LINE
  5
3EF
330
1F
100
AcDbEntity
  8
0
  6
Continuous
 62
     7
100
AcDbLine
 10
2821.5
 20
0.0
 30
0.0
 11
2846.5
 21
0.0
 31
0.0
  0
LINE
  5
3F0
330
1F
100
AcDbEntity
  8
0
  6
Continuous
 62
     7
100
AcDbLine
 10
2846.5
 20
0.0
 30
0.0
 11
2846.5
 21
12.0
 31
0.0
  0
LINE
  5
3F1
330
1F
100
AcDbEntity
  8
0
  6
CENTERX2
 62
     7
100
AcDbLine
 10
2834.0
 20
19.0
 30
0.0
 11
2834.0
 21
0.0
 31
0.0
  0
LINE
  5
3F2
330
1F
100
AcDbEntity
  8
0
  6
CENTERX2
 62
     7
100
AcDbLine
 10
2821.5
 20
0.0
 30
0.0
 11
2821.5
 21
12.0
 31
0.0
  0
LINE
  5
3F3
330
1F
100
AcDbEntity
  8
0
  6
CENTERX2
 62
     7
100
AcDbLine
 10
2846.5
 20
0.0
 30
0.0
 11
2846.5
 21
12.0
 31
0.0
  0
LINE
  5
3F4
330
1F
100
AcDbEntity
  8
0
  6
CENTERX2
 62
     7
100
AcDbLine
 10
2846.5
 20
12.0
 30
0.0
 11
2821.5
 21
12.0
 31
0.0
  0
LINE
  5
3F5
330
1F
100
AcDbEntity
  8
0
  6
Continuous
 62
     7
100
AcDbLine
 10
0.0
 20
12.0
 30
0.0
 11
0.0
 21
0.0
 31
0.0
  0
ENDSEC
  0
SECTION
  2
OBJECTS
  0
DICTIONARY
  5
C
330
0
100
AcDbDictionary
281
     1
  3
ACAD_GROUP
350
D
  3
ACAD_LAYOUT
350
1A
  3
ACAD_MLINESTYLE
350
17
  3
ACAD_PLOTSETTINGS
350
19
  3
ACAD_PLOTSTYLENAME
350
E
  3
ACAD_SCALELIST
350
47
  3
DWGPROPS
350
3F6
  0
DICTIONARY
  5
D
102
{ACAD_REACTORS
330
C
102
}
330
C
100
AcDbDictionary
281
     1
  0
DICTIONARY
  5
1A
102
{ACAD_REACTORS
330
C
102
}
330
C
100
AcDbDictionary
281
     1
  3
Layout1
350
1E
  3
Layout2
350
26
  3
Model
350
22
  0
DICTIONARY
  5
17
102
{ACAD_REACTORS
330
C
102
}
330
C
100
AcDbDictionary
281
     1
  3
Standard
350
18
  0
DICTIONARY
  5
19
102
{ACAD_REACTORS
330
C
102
}
330
C
100
AcDbDictionary
281
     1
  0
ACDBDICTIONARYWDFLT
  5
E
102
{ACAD_REACTORS
330
C
102
}
330
C
100
AcDbDictionary
281
     1
  3
Normal
350
F
100
AcDbDictionaryWithDefault
340
F
  0
DICTIONARY
  5
47
102
{ACAD_REACTORS
330
C
102
}
330
C
100
AcDbDictionary
281
     1
  3
A0
350
48
  3
A1
350
49
  3
A2
350
4A
  3
A3
350
4B
  3
A4
350
4C
  3
A5
350
4D
  3
A6
350
4E
  3
A7
350
4F
  3
A8
350
50
  3
A9
350
51
  3
B0
350
52
  3
B1
350
53
  3
B2
350
54
  3
B3
350
55
  3
B4
350
56
  3
B5
350
57
  3
B6
350
58
  3
B7
350
59
  3
B8
350
5A
  3
B9
350
5B
  3
C0
350
5C
  3
C1
350
5D
  3
C2
350
5E
  3
C3
350
5F
  3
C4
350
60
  3
C5
350
61
  3
C6
350
62
  3
C7
350
63
  3
C8
350
64
  3
C9
350
65
  3
D0
350
66
  3
D1
350
67
  3
D2
350
68
  0
XRECORD
  5
3F6
102
{ACAD_REACTORS
330
C
102
}
330
C
100
AcDbXrecord
280
     1
  1
DWGPROPS COOKIE
  2

  3

  4

  6

  7

  8
t_gia
  9

300
=
301
=
302
=
303
=
304
=
305
=
306
=
307
=
308
=
309
=
 40
0.0
 41
2460868.984063576
 42
2460868.984095729
  1

 90
        0
  0
LAYOUT
  5
1E
102
{ACAD_REACTORS
330
1A
102
}
330
1A
100
AcDbPlotSettings
  1

  2
none_device
  4

  6

 40
0.0
 41
0.0
 42
0.0
 43
0.0
 44
0.0
 45
0.0
 46
0.0
 47
0.0
 48
0.0
 49
0.0
140
0.0
141
0.0
142
1.0
143
1.0
 70
   688
 72
     1
 73
     0
 74
     5
  7

 75
    16
147
1.0
148
0.0
149
0.0
100
AcDbLayout
  1
Layout1
 70
     1
 71
     1
 10
0.0
 20
0.0
 11
420.0
 21
297.0
 12
0.0
 22
0.0
 32
0.0
 14
1.0000000000E+20
 24
1.0000000000E+20
 34
1.0000000000E+20
 15
-1.0000000000E+20
 25
-1.0000000000E+20
 35
-1.0000000000E+20
146
0.0
 13
0.0
 23
0.0
 33
0.0
 16
1.0
 26
0.0
 36
0.0
 17
0.0
 27
1.0
 37
0.0
 76
     0
330
1B
  0
LAYOUT
  5
26
102
{ACAD_REACTORS
330
1A
102
}
330
1A
100
AcDbPlotSettings
  1

  2
none_device
  4

  6

 40
0.0
 41
0.0
 42
0.0
 43
0.0
 44
0.0
 45
0.0
 46
0.0
 47
0.0
 48
0.0
 49
0.0
140
0.0
141
0.0
142
1.0
143
1.0
 70
   688
 72
     1
 73
     0
 74
     5
  7

 75
    16
147
1.0
148
0.0
149
0.0
100
AcDbLayout
  1
Layout2
 70
     1
 71
     2
 10
0.0
 20
0.0
 11
0.0
 21
0.0
 12
0.0
 22
0.0
 32
0.0
 14
0.0
 24
0.0
 34
0.0
 15
0.0
 25
0.0
 35
0.0
146
0.0
 13
0.0
 23
0.0
 33
0.0
 16
1.0
 26
0.0
 36
0.0
 17
0.0
 27
1.0
 37
0.0
 76
     0
330
23
  0
LAYOUT
  5
22
102
{ACAD_REACTORS
330
1A
102
}
330
1A
100
AcDbPlotSettings
  1

  2
none_device
  4
ANSI_A_(11.00_x_8.50_Inches)
  6

 40
6.35
 41
19.05
 42
6.35000508
 43
19.05000254
 44
279.4
 45
215.9
 46
-4.95300254
 47
87.9768450325
 48
0.0
 49
0.0
140
0.0
141
0.0
142
0.0038257509
143
1.0
 70
  1696
 72
     0
 73
     0
 74
     0
  7

 75
     0
147
0.0179189148
148
-1300.4909072572
149
0.0
100
AcDbLayout
  1
Model
 70
     1
 71
     0
 10
0.0
 20
0.0
 11
420.0
 21
297.0
 12
0.0
 22
0.0
 32
0.0
 14
0.0
 24
0.0
 34
0.0
 15
2846.5
 25
19.0
 35
0.0
146
0.0
 13
0.0
 23
0.0
 33
0.0
 16
1.0
 26
0.0
 36
0.0
 17
0.0
 27
1.0
 37
0.0
 76
     0
330
1F
331
29
  0
MLINESTYLE
  5
18
102
{ACAD_REACTORS
330
17
102
}
330
17
100
AcDbMlineStyle
  2
Standard
 70
     0
  3

 62
   256
 51
90.0
 52
90.0
 71
     2
 49
0.5
 62
   256
  6
BYLAYER
 49
-0.5
 62
   256
  6
BYLAYER
  0
ACDBPLACEHOLDER
  5
F
102
{ACAD_REACTORS
330
E
102
}
330
E
  0
SCALE
  5
48
102
{ACAD_REACTORS
330
47
102
}
330
47
100
AcDbScale
 70
     0
300
1:1
140
1.0
141
1.0
290
     1
  0
SCALE
  5
49
102
{ACAD_REACTORS
330
47
102
}
330
47
100
AcDbScale
 70
     0
300
1:2
140
1.0
141
2.0
290
     0
  0
SCALE
  5
4A
102
{ACAD_REACTORS
330
47
102
}
330
47
100
AcDbScale
 70
     0
300
1:4
140
1.0
141
4.0
290
     0
  0
SCALE
  5
4B
102
{ACAD_REACTORS
330
47
102
}
330
47
100
AcDbScale
 70
     0
300
1:5
140
1.0
141
5.0
290
     0
  0
SCALE
  5
4C
102
{ACAD_REACTORS
330
47
102
}
330
47
100
AcDbScale
 70
     0
300
1:8
140
1.0
141
8.0
290
     0
  0
SCALE
  5
4D
102
{ACAD_REACTORS
330
47
102
}
330
47
100
AcDbScale
 70
     0
300
1:10
140
1.0
141
10.0
290
     0
  0
SCALE
  5
4E
102
{ACAD_REACTORS
330
47
102
}
330
47
100
AcDbScale
 70
     0
300
1:16
140
1.0
141
16.0
290
     0
  0
SCALE
  5
4F
102
{ACAD_REACTORS
330
47
102
}
330
47
100
AcDbScale
 70
     0
300
1:20
140
1.0
141
20.0
290
     0
  0
SCALE
  5
50
102
{ACAD_REACTORS
330
47
102
}
330
47
100
AcDbScale
 70
     0
300
1:30
140
1.0
141
30.0
290
     0
  0
SCALE
  5
51
102
{ACAD_REACTORS
330
47
102
}
330
47
100
AcDbScale
 70
     0
300
1:40
140
1.0
141
40.0
290
     0
  0
SCALE
  5
52
102
{ACAD_REACTORS
330
47
102
}
330
47
100
AcDbScale
 70
     0
300
1:50
140
1.0
141
50.0
290
     0
  0
SCALE
  5
53
102
{ACAD_REACTORS
330
47
102
}
330
47
100
AcDbScale
 70
     0
300
1:100
140
1.0
141
100.0
290
     0
  0
SCALE
  5
54
102
{ACAD_REACTORS
330
47
102
}
330
47
100
AcDbScale
 70
     0
300
2:1
140
2.0
141
1.0
290
     0
  0
SCALE
  5
55
102
{ACAD_REACTORS
330
47
102
}
330
47
100
AcDbScale
 70
     0
300
4:1
140
4.0
141
1.0
290
     0
  0
SCALE
  5
56
102
{ACAD_REACTORS
330
47
102
}
330
47
100
AcDbScale
 70
     0
300
8:1
140
8.0
141
1.0
290
     0
  0
SCALE
  5
57
102
{ACAD_REACTORS
330
47
102
}
330
47
100
AcDbScale
 70
     0
300
10:1
140
10.0
141
1.0
290
     0
  0
SCALE
  5
58
102
{ACAD_REACTORS
330
47
102
}
330
47
100
AcDbScale
 70
     0
300
100:1
140
100.0
141
1.0
290
     0
  0
SCALE
  5
59
102
{ACAD_REACTORS
330
47
102
}
330
47
100
AcDbScale
 70
     0
300
1/128" = 1'-0"
140
0.0078125
141
12.0
290
     0
  0
SCALE
  5
5A
102
{ACAD_REACTORS
330
47
102
}
330
47
100
AcDbScale
 70
     0
300
1/64" = 1'-0"
140
0.015625
141
12.0
290
     0
  0
SCALE
  5
5B
102
{ACAD_REACTORS
330
47
102
}
330
47
100
AcDbScale
 70
     0
300
1/32" = 1'-0"
140
0.03125
141
12.0
290
     0
  0
SCALE
  5
5C
102
{ACAD_REACTORS
330
47
102
}
330
47
100
AcDbScale
 70
     0
300
1/16" = 1'-0"
140
0.0625
141
12.0
290
     0
  0
SCALE
  5
5D
102
{ACAD_REACTORS
330
47
102
}
330
47
100
AcDbScale
 70
     0
300
3/32" = 1'-0"
140
0.09375
141
12.0
290
     0
  0
SCALE
  5
5E
102
{ACAD_REACTORS
330
47
102
}
330
47
100
AcDbScale
 70
     0
300
1/8" = 1'-0"
140
0.125
141
12.0
290
     0
  0
SCALE
  5
5F
102
{ACAD_REACTORS
330
47
102
}
330
47
100
AcDbScale
 70
     0
300
3/16" = 1'-0"
140
0.1875
141
12.0
290
     0
  0
SCALE
  5
60
102
{ACAD_REACTORS
330
47
102
}
330
47
100
AcDbScale
 70
     0
300
1/4" = 1'-0"
140
0.25
141
12.0
290
     0
  0
SCALE
  5
61
102
{ACAD_REACTORS
330
47
102
}
330
47
100
AcDbScale
 70
     0
300
3/8" = 1'-0"
140
0.375
141
12.0
290
     0
  0
SCALE
  5
62
102
{ACAD_REACTORS
330
47
102
}
330
47
100
AcDbScale
 70
     0
300
1/2" = 1'-0"
140
0.5
141
12.0
290
     0
  0
SCALE
  5
63
102
{ACAD_REACTORS
330
47
102
}
330
47
100
AcDbScale
 70
     0
300
3/4" = 1'-0"
140
0.75
141
12.0
290
     0
  0
SCALE
  5
64
102
{ACAD_REACTORS
330
47
102
}
330
47
100
AcDbScale
 70
     0
300
1" = 1'-0"
140
1.0
141
12.0
290
     0
  0
SCALE
  5
65
102
{ACAD_REACTORS
330
47
102
}
330
47
100
AcDbScale
 70
     0
300
1-1/2" = 1'-0"
140
1.5
141
12.0
290
     0
  0
SCALE
  5
66
102
{ACAD_REACTORS
330
47
102
}
330
47
100
AcDbScale
 70
     0
300
3" = 1'-0"
140
3.0
141
12.0
290
     0
  0
SCALE
  5
67
102
{ACAD_REACTORS
330
47
102
}
330
47
100
AcDbScale
 70
     0
300
6" = 1'-0"
140
6.0
141
12.0
290
     0
  0
SCALE
  5
68
102
{ACAD_REACTORS
330
47
102
}
330
47
100
AcDbScale
 70
     0
300
1'-0" = 1'-0"
140
12.0
141
12.0
290
     0
  0
ENDSEC
  0
EOF
